<?xml version="1.0" encoding="UTF-8"?>
<!DOCTYPE svg PUBLIC "-//W3C//DTD SVG 1.1//EN" "http://www.w3.org/Graphics/SVG/1.1/DTD/svg11.dtd">
<!-- Creator: CorelDRAW X5 -->
<svg xmlns="http://www.w3.org/2000/svg" xml:space="preserve" width="20mm" height="20mm" style="shape-rendering:geometricPrecision; text-rendering:geometricPrecision; image-rendering:optimizeQuality; fill-rule:evenodd; clip-rule:evenodd"
viewBox="0 0 20000 20000"
 xmlns:xlink="http://www.w3.org/1999/xlink">
 <defs>
  <style type="text/css">
   <![CDATA[
    .fil2 {fill:#2A2A29}
    .fil0 {fill:#F39314}
    .fil1 {fill:#2A2A29;fill-rule:nonzero}
   ]]>
  </style>
 </defs>
 <g id="Слой_x0020_1">
  <metadata id="CorelCorpID_0Corel-Layer"/>
  <g id="_355547752">
   <rect class="fil0" x="318" y="318" width="19363" height="19363" rx="2169" ry="2169"/>
   <path class="fil1" d="M2488 0l15025 0c684,0 1307,280 1757,730 6,6 12,13 18,19 440,450 713,1064 713,1738l0 15025c0,683 -280,1305 -731,1756l1 1c-451,451 -1073,731 -1757,731l-15025 0c-684,0 -1307,-280 -1757,-731 -451,-451 -730,-1073 -730,-1757l0 -15025c0,-684 280,-1305 730,-1756l1 -1c451,-451 1072,-730 1756,-730zm15025 637l-15025 0c-509,0 -972,208 -1308,543 -335,336 -543,799 -543,1308l0 15025c0,509 208,971 544,1307 336,336 798,544 1307,544l15025 0c509,0 972,-208 1307,-544l1 1 1 -1c335,-335 543,-797 543,-1307l0 -15025c0,-502 -202,-959 -528,-1292l-16 -15c-336,-336 -798,-544 -1307,-544z"/>
   <path class="fil2" d="M9925 927c-4330,0 -7957,2977 -8950,6998 -463,2756 438,5603 2341,7571 -196,1107 -222,2407 -222,3919l728 0c0,-2222 82,-3926 580,-5096 498,-1170 1360,-1870 3173,-2211l608 -114 -396 -476c-638,-768 -1061,-1877 -1061,-3112 0,-1192 381,-2265 978,-3027 597,-762 1392,-1208 2260,-1208 869,0 1664,446 2260,1208 597,762 978,1835 978,3027 0,1211 -375,2302 -982,3062l-391 490 619 97c1976,311 2813,1013 3265,2198 452,1185 449,2929 449,5163l729 0c0,-1173 9,-2224 -59,-3162 1438,-1626 2311,-3763 2311,-6107 0,-5096 -4124,-9220 -9220,-9220l0 0zm320 1694c1174,4 2358,283 3440,857 3860,2052 5167,7000 3139,10789 -71,132 -145,261 -222,388 -57,-230 -124,-451 -205,-662 -35,-91 -73,-181 -114,-268 1693,-3414 483,-7783 -2940,-9603 -973,-517 -2039,-767 -3096,-771 -2326,-8 -4610,1178 -5758,3344 -1010,1906 -879,4210 204,5958 -188,174 -355,364 -503,568 -1325,-1984 -1514,-4660 -344,-6867 1283,-2421 3817,-3742 6400,-3733l0 0zm3378 3855c1467,1451 1958,3700 1272,5673 -199,-127 -417,-241 -654,-343 397,-1235 269,-2586 -316,-3703 -27,-573 -132,-1121 -302,-1627l0 0zm-7459 505c-108,452 -165,930 -165,1425 0,291 21,576 60,853 -75,821 119,1654 554,2342 -248,76 -480,162 -697,259 -745,-1276 -820,-2920 -110,-4296 106,-206 226,-400 357,-582l0 0z"/>
  </g>
 </g>
</svg>
