<?xml version="1.0" encoding="UTF-8"?>
<!DOCTYPE svg PUBLIC "-//W3C//DTD SVG 1.1//EN" "http://www.w3.org/Graphics/SVG/1.1/DTD/svg11.dtd">
<!-- Creator: CorelDRAW X5 -->
<svg xmlns="http://www.w3.org/2000/svg" xml:space="preserve" width="20mm" height="20mm" style="shape-rendering:geometricPrecision; text-rendering:geometricPrecision; image-rendering:optimizeQuality; fill-rule:evenodd; clip-rule:evenodd"
viewBox="0 0 20000 20000"
 xmlns:xlink="http://www.w3.org/1999/xlink">
 <defs>
  <style type="text/css">
   <![CDATA[
    .fil2 {fill:#2A2A29}
    .fil0 {fill:#E31E25}
    .fil1 {fill:#2A2A29;fill-rule:nonzero}
   ]]>
  </style>
 </defs>
 <g id="Слой_x0020_1">
  <metadata id="CorelCorpID_0Corel-Layer"/>
  <g id="_355544896">
   <rect class="fil0" x="318" y="318" width="19363" height="19363" rx="2169" ry="2169"/>
   <path class="fil1" d="M2488 0l15025 0c684,0 1306,280 1757,731 451,451 730,1073 730,1757l0 15025c0,684 -280,1307 -730,1757 -451,451 -1073,731 -1757,731l-15025 0c-683,0 -1305,-280 -1756,-731l-1 1c-451,-451 -730,-1073 -730,-1757l0 -15025c0,-684 280,-1306 730,-1757 6,-6 13,-12 19,-18 450,-440 1064,-713 1738,-713zm15025 637l-15025 0c-502,0 -959,202 -1292,528l-15 16c-336,336 -544,798 -544,1307l0 15025c0,509 208,972 544,1307l-1 1 1 1c335,335 797,543 1307,543l15025 0c509,0 971,-209 1307,-544 336,-336 544,-798 544,-1307l0 -15025c0,-509 -208,-971 -544,-1307 -336,-336 -798,-544 -1307,-544z"/>
   <path class="fil2" d="M12393 9404c-81,-320 -242,-918 -254,-1282l1286 316 -1032 966zm5321 9050c-280,-328 -562,-668 -841,-1018l1657 -340 -816 1358zm-1202 -1478c-315,-407 -625,-826 -926,-1253l2148 -339 -1222 1592zm-1240 -1705c-333,-489 -652,-987 -951,-1488l2086 -264 -1136 1752zm-1211 -1935c-263,-462 -511,-933 -738,-1414l1920 -155 -1183 1568zm-940 -1857c-215,-489 -400,-973 -550,-1448l1786 157 -1236 1291z"/>
   <polygon class="fil2" points="5136,4997 5428,5988 8065,7358 6191,4963 5136,4997 "/>
   <path class="fil2" d="M9654 2142c614,1298 1278,2626 1973,3955 -526,2034 222,4479 1477,6871 1010,1925 2365,3828 3730,5471l-1588 0c-1629,-1872 -3141,-3943 -4244,-6136 -1618,-3215 -2357,-6666 -1348,-10162l0 0z"/>
   <polygon class="fil2" points="7361,2089 6888,2856 8421,7081 8032,2571 7362,2089 "/>
   <path class="fil2" d="M1678 17849c179,71 364,134 553,187 31,-114 75,-225 135,-331 207,-361 621,-596 1139,-628 542,-34 999,230 1169,631 63,149 97,304 110,465 627,-104 1253,-313 1846,-640 -15,-338 121,-698 398,-1011 225,-254 508,-403 788,-439 21,-3 42,-5 63,-6 146,-10 290,11 423,65 4,2 8,4 12,5 30,-35 59,-71 89,-107 1389,-1710 1498,-5520 -431,-7597 -1863,-2006 -7286,954 -2910,4021 -1767,-2844 890,-2947 1664,-1780 852,1285 1091,3144 -800,4398 -1495,991 -3359,-814 -3240,-3524 88,-1997 -229,-3697 -1007,-4902l0 11191zm2206 -11678c-108,478 -140,1401 71,1938 265,-187 759,-418 1044,-548 -206,-469 -742,-991 -1115,-1390zm6083 7296c92,345 -122,1147 -297,1452 620,172 1556,66 2241,21 -379,-485 -1254,-1251 -1944,-1473l0 0zm-2076 3299c-87,0 -175,55 -328,229 -237,268 -253,421 -207,591 210,774 1156,1048 1840,1048 -147,-422 -335,-856 -549,-1197 -214,-340 -454,-571 -611,-634 -39,-16 -74,-28 -108,-34 -13,-2 -25,-3 -37,-3l0 0zm-4341 1023c-357,22 -477,119 -565,271 -491,857 1457,922 1035,-72 -76,-178 -317,-275 -470,-199z"/>
  </g>
 </g>
</svg>
