<?xml version="1.0" encoding="UTF-8"?>
<!DOCTYPE svg PUBLIC "-//W3C//DTD SVG 1.1//EN" "http://www.w3.org/Graphics/SVG/1.1/DTD/svg11.dtd">
<!-- Creator: CorelDRAW X5 -->
<svg xmlns="http://www.w3.org/2000/svg" xml:space="preserve" width="20mm" height="20mm" style="shape-rendering:geometricPrecision; text-rendering:geometricPrecision; image-rendering:optimizeQuality; fill-rule:evenodd; clip-rule:evenodd"
viewBox="0 0 20000 20000"
 xmlns:xlink="http://www.w3.org/1999/xlink">
 <defs>
  <style type="text/css">
   <![CDATA[
    .fil2 {fill:#2A2A29}
    .fil0 {fill:#B0CA1F}
    .fil1 {fill:#2A2A29;fill-rule:nonzero}
   ]]>
  </style>
 </defs>
 <g id="Слой_x0020_1">
  <metadata id="CorelCorpID_0Corel-Layer"/>
  <g id="_355545016">
   <rect class="fil0" x="322" y="323" width="19355" height="19355" rx="2168" ry="2168"/>
   <path class="fil1" d="M2491 0l15018 0c685,0 1308,280 1760,731 451,451 731,1074 731,1760l0 15018c0,685 -280,1308 -731,1760 -451,451 -1074,731 -1760,731l-15018 0c-684,0 -1307,-281 -1759,-732l-1 1c-451,-451 -731,-1074 -731,-1760l0 -15018c0,-685 280,-1308 731,-1760l1 1c452,-452 1075,-732 1759,-732zm15018 645l-15018 0c-508,0 -969,207 -1303,541l0 1c-335,335 -543,796 -543,1303l0 15018c0,507 208,969 543,1303l0 1c334,334 795,541 1303,541l15018 0c507,0 969,-208 1303,-543 335,-335 543,-796 543,-1303l0 -15018c0,-507 -208,-969 -543,-1303 -335,-335 -796,-543 -1303,-543z"/>
   <path class="fil2" d="M5059 17209c267,-402 551,-695 831,-695l2471 1676c1,23 1,47 1,69 0,411 -90,756 -267,1046l-2862 -1978 -175 -118zm-312 500l2887 1969 894 0c265,-402 402,-884 403,-1417 1,-559 -141,-1174 -420,-1839 1572,492 2974,102 3766,-802 767,-876 917,-2213 172,-3525 1061,167 1966,125 2686,-132l7 10 33 -24c259,-97 495,-221 704,-375 776,-571 1121,-1526 1007,-2727 864,569 1864,667 2808,572l0 -2265 -265 -3384c-1643,1213 -3164,1586 -3211,3863 -621,-364 -1303,-512 -1964,-488 -694,26 -1365,242 -1917,598 -630,407 -1115,1004 -1293,1723 -144,582 -76,1234 257,1892 -177,-11 -348,-17 -514,-17 -50,0 -99,1 -148,2 -1176,26 -2084,348 -2660,971 -684,739 -825,1847 -434,3176 -1505,-29 -3342,469 -4755,3854l1068 69c165,-139 517,-1001 892,-1705zm14775 -9362c-261,24 -546,23 -852,-2l-1033 -2684c223,-161 484,-275 773,-355l1111 3040zm-1494 -87c-386,-68 -799,-170 -1237,-309 -32,-858 132,-1441 409,-1844l828 2153zm-3129 -33c408,20 857,82 1341,185 133,664 129,1216 5,1666l-1346 -1851zm-697 9l1771 2435c-118,172 -263,321 -434,447 -67,49 -139,95 -215,137l-2027 -2839c264,-92 566,-153 904,-180l0 0zm-1424 430l2005 2809c-275,79 -587,126 -936,140l-1678 -2305c131,-230 305,-423 519,-581 29,-21 59,-43 89,-63l0 0zm-842 1290l1196 1644c-330,-26 -684,-77 -1061,-155l-2 -5 -47 -6c-10,-2 -19,-4 -29,-6 -6,-9 -12,-18 -18,-28 -108,-559 -119,-1040 -40,-1445l0 0zm-1164 1959c274,0 569,18 880,51 170,481 265,912 292,1297l-1418 -1343c43,-2 86,-4 130,-5 38,-1 77,-1 116,-1l0 0zm-983 90l2114 2001c-71,349 -217,642 -431,878l-2633 -2537c260,-153 577,-269 949,-342zm-1398 699l2635 2541c-241,143 -532,255 -872,329l-2161 -2046 -45 48c75,-346 225,-637 442,-872l0 0zm-496 1515l1534 1453c-373,22 -787,11 -1242,-39 -185,-529 -280,-1000 -293,-1414l0 0zm-115 1981c220,442 375,854 470,1230l-1654 -1121c349,-69 744,-107 1185,-109l0 0z"/>
   <path class="fil2" d="M323 2491l0 6471 614 -527c389,365 830,675 1331,914l-324 927 1087 380 324 -927c540,126 1079,157 1610,114l185 961 1117 -219 -184 -962c516,-158 1016,-386 1461,-691l638 743 873 -753 -653 -748c357,-383 673,-825 908,-1315l927 324 379 -1087 -927 -324c125,-536 156,-1083 114,-1610l977 -179 -214 -1134 -961 185c-158,-516 -407,-1006 -713,-1450l1524 -1226 -2683 0 -5382 0c-939,0 -2027,1620 -2027,2134zm4238 -1802c749,3 1505,222 2171,675 1578,1074 2116,3105 1367,4789l-1526 -1039c221,-839 -90,-1762 -848,-2278 -757,-516 -1717,-458 -2417,54l-1533 -1044c747,-760 1760,-1162 2786,-1158l0 0zm-3570 2306l1521 1036c-225,842 79,1773 839,2291 761,517 1751,468 2452,-50l1514 1031c-1293,1319 -3383,1565 -4963,488 -1581,-1076 -2118,-3111 -1363,-4797zm3552 382c232,1 466,68 672,209 548,374 690,1122 317,1670 -373,549 -1122,691 -1671,317 -549,-374 -691,-1122 -317,-1671 234,-343 614,-527 999,-526l0 0z"/>
  </g>
 </g>
</svg>
