<?xml version="1.0" encoding="UTF-8"?>
<!DOCTYPE svg PUBLIC "-//W3C//DTD SVG 1.1//EN" "http://www.w3.org/Graphics/SVG/1.1/DTD/svg11.dtd">
<!-- Creator: CorelDRAW X5 -->
<svg xmlns="http://www.w3.org/2000/svg" xml:space="preserve" width="20mm" height="20mm" style="shape-rendering:geometricPrecision; text-rendering:geometricPrecision; image-rendering:optimizeQuality; fill-rule:evenodd; clip-rule:evenodd"
viewBox="0 0 20000 20000"
 xmlns:xlink="http://www.w3.org/1999/xlink">
 <defs>
  <style type="text/css">
   <![CDATA[
    .fil3 {fill:#2A2A29}
    .fil0 {fill:#A2DAF7}
    .fil1 {fill:#2A2A29;fill-rule:nonzero}
    .fil2 {fill:#A2DAF7;fill-rule:nonzero}
   ]]>
  </style>
 </defs>
 <g id="Слой_x0020_1">
  <metadata id="CorelCorpID_0Corel-Layer"/>
  <g id="_355547032">
   <rect class="fil0" x="323" y="323" width="19355" height="19355" rx="2168" ry="2168"/>
   <path class="fil1" d="M2491 0l15018 0c684,0 1306,280 1758,731l1 1 1 1c451,452 731,1074 731,1758l0 15018c0,685 -280,1308 -731,1759l-1 -1c-452,452 -1075,732 -1759,732l-15018 0c-685,0 -1308,-280 -1759,-731 -451,-451 -731,-1074 -731,-1759l0 -15018c0,-684 281,-1307 732,-1759l-1 -1c451,-451 1074,-731 1759,-731zm15018 645l-15018 0c-507,0 -969,208 -1303,543l-1 0c-334,334 -541,795 -541,1303l0 15018c0,507 208,969 543,1303 335,335 796,543 1303,543l15018 0c508,0 969,-207 1303,-541l0 -1c335,-335 543,-796 543,-1303l0 -15018c0,-508 -207,-970 -541,-1303l-1 -1c-334,-334 -795,-541 -1303,-541z"/>
   <g>
    <path class="fil1" d="M9706 17484c0,163 132,294 295,294 163,0 294,-132 294,-294l2 -1067c1656,-75 3150,-778 4247,-1875 1103,-1103 1806,-2604 1876,-4269l1093 2c163,0 294,-132 294,-295 0,-163 -132,-294 -294,-294l-1095 -2c-59,-1218 -457,-2347 -1102,-3295l-408 455c532,827 862,1797 918,2839l-2085 -3c-366,305 -778,628 -1211,916 -112,478 -356,905 -692,1240 -403,403 -938,675 -1535,744l1 -796c0,-127 -81,-236 -194,-277 -53,-2 -105,-6 -156,-12 -136,26 -239,146 -239,289l-1 798c-603,-66 -1143,-339 -1550,-745 -409,-409 -683,-955 -747,-1563l780 1c136,0 251,-92 284,-218 -11,-69 -18,-139 -21,-209 -48,-96 -148,-162 -263,-162l-776 -1c71,-592 342,-1122 742,-1523 329,-329 747,-571 1214,-686 260,-383 539,-745 788,-1068l132 -172 3 -2063c1117,57 2151,428 3015,1026l500 -370c-992,-733 -2201,-1188 -3514,-1248l2 -1113c0,-163 -132,-295 -295,-295 -163,0 -294,132 -294,295l-2 1113c-1660,73 -3156,776 -4256,1875 -1092,1092 -1793,2576 -1874,4223l-1087 -2c-163,0 -294,132 -294,295 0,163 132,294 294,294l1085 2c69,1667 773,3171 1876,4274 1098,1098 2593,1801 4250,1875l-2 1067zm591 -1659l4 -2651c761,-71 1443,-409 1954,-920 518,-518 858,-1213 923,-1986l2650 4c-69,1502 -707,2856 -1702,3852 -991,991 -2335,1626 -3828,1701zm-586 -11653l-4 2651c-764,69 -1450,408 -1963,921 -507,507 -845,1185 -919,1940l-2652 -4c80,-1484 715,-2820 1700,-3806 992,-992 2341,-1629 3837,-1702zm-5539 6096l2650 4c66,771 406,1465 923,1981 513,514 1201,853 1967,921l-4 2650c-1495,-74 -2842,-710 -3833,-1702 -996,-996 -1634,-2352 -1702,-3855z"/>
    <path id="1" class="fil1" d="M10000 17655l0 246 0 0 -21 -1 -21 -2 -21 -3 -21 -4 -20 -5 -20 -6 -19 -7 -19 -7 -19 -9 -18 -9 -17 -10 -17 -11 -16 -12 -16 -12 -15 -13 -14 -14 -14 -14 -13 -15 -12 -16 -12 -17 -11 -17 -10 -17 -9 -18 -9 -19 -7 -19 -7 -20 -6 -20 -5 -20 -4 -21 -3 -21 -2 -21 -1 -21 246 0 0 9 1 9 1 8 2 9 2 9 2 8 3 8 3 8 3 7 4 8 4 7 4 7 5 7 5 7 5 6 6 6 6 6 6 5 7 5 7 5 7 5 7 4 8 4 7 3 8 3 8 3 8 2 9 2 9 2 8 1 9 1 9 0 0 0zm172 -172l246 0 0 0 -1 21 -2 21 -3 21 -4 21 -5 20 -6 20 -7 20 -7 19 -9 19 -9 18 -10 17 -11 17 -12 17 -12 16 -13 15 -14 14 -14 14 -15 13 -16 12 -17 12 -17 11 -17 10 -18 9 -19 9 -19 7 -20 7 -20 6 -20 5 -21 4 -21 3 -21 2 -21 1 0 -246 9 0 9 -1 8 -1 9 -2 9 -2 8 -2 8 -3 8 -3 7 -3 8 -4 7 -4 7 -4 7 -5 7 -5 6 -5 6 -6 6 -6 5 -6 5 -7 5 -7 4 -7 4 -7 4 -8 3 -7 3 -8 3 -8 2 -8 2 -9 2 -9 1 -8 1 -9 0 -9 0 0zm0 0l0 0 0 0 0 0zm247 -1067l-2 1067 -246 0 2 -1067 117 -123 129 123zm-246 0l0 -117 117 -5 -117 123zm4283 -1962l174 174 0 0 -106 104 -108 101 -111 99 -113 96 -115 94 -117 91 -119 89 -121 86 -123 83 -125 80 -127 78 -129 75 -131 72 -133 69 -135 66 -136 63 -138 60 -140 57 -141 54 -143 51 -144 47 -146 44 -147 41 -149 37 -150 34 -151 31 -152 27 -154 24 -154 20 -156 16 -157 13 -158 9 -11 -246 152 -9 151 -12 150 -16 149 -19 148 -23 147 -26 145 -30 144 -33 143 -36 141 -39 140 -43 139 -46 137 -49 136 -52 134 -55 133 -58 131 -61 130 -64 128 -67 126 -69 124 -72 123 -75 121 -77 119 -80 117 -83 115 -85 113 -88 111 -90 109 -93 106 -95 104 -98 102 -100 0 0zm1963 -4305l0 246 123 -118 -9 159 -12 158 -16 157 -20 156 -23 154 -27 153 -30 152 -34 151 -37 149 -41 148 -44 146 -47 145 -51 144 -54 142 -57 140 -60 139 -63 137 -66 135 -69 134 -72 132 -75 130 -78 128 -81 126 -84 124 -86 122 -89 120 -92 118 -94 116 -97 113 -99 111 -102 109 -104 107 -174 -174 100 -103 98 -105 96 -107 93 -109 91 -111 88 -113 86 -116 83 -117 80 -119 78 -121 75 -123 72 -125 69 -127 67 -129 64 -130 61 -132 58 -134 55 -135 52 -137 49 -138 46 -140 42 -141 39 -142 36 -144 33 -145 29 -146 26 -147 23 -148 19 -150 15 -151 12 -152 8 -153 123 -118zm-123 118l5 -118 118 0 -123 118zm1216 130l-1093 -2 0 -246 1093 2 0 246 0 0zm0 0l0 0 0 0 0 0zm172 -417l246 0 0 0 -1 21 -2 21 -3 21 -4 21 -5 20 -6 20 -7 19 -7 19 -9 19 -9 18 -10 18 -11 17 -11 16 -12 16 -13 15 -14 14 -14 14 -15 13 -16 12 -16 12 -17 11 -17 10 -18 9 -19 9 -19 7 -20 7 -20 6 -20 5 -21 4 -21 3 -21 2 -21 1 0 -246 9 0 9 -1 9 -1 9 -2 9 -2 8 -2 8 -3 8 -3 7 -3 8 -4 7 -4 7 -5 7 -5 7 -5 6 -5 6 -6 6 -6 5 -6 5 -7 5 -7 5 -7 4 -7 4 -7 3 -7 3 -8 3 -8 2 -8 2 -9 2 -9 1 -8 1 -9 0 -9 0 0zm-172 -172l0 -246 0 0 21 1 21 2 21 3 21 4 20 5 20 6 20 7 19 7 19 9 18 9 17 10 17 11 16 12 16 12 15 13 14 14 14 14 13 15 12 16 12 16 11 17 10 18 9 18 9 19 7 19 7 20 6 20 5 20 4 21 3 21 2 21 1 21 -246 0 0 -9 -1 -9 -1 -8 -2 -9 -2 -9 -2 -8 -3 -8 -3 -8 -3 -7 -4 -7 -4 -7 -5 -7 -5 -7 -5 -7 -5 -6 -6 -6 -6 -6 -6 -5 -7 -5 -7 -5 -7 -5 -7 -4 -8 -4 -7 -3 -8 -3 -8 -3 -8 -2 -9 -2 -9 -2 -9 -1 -9 -1 -9 0 0 0zm0 0l0 0 0 0 0 0zm-1095 -247l1095 2 0 246 -1095 -2 -123 -117 123 -129zm0 246l-117 0 -6 -117 123 117zm-1010 -3336l-183 -164 193 13 61 91 59 92 58 93 56 94 55 95 53 96 52 97 50 98 49 99 47 100 45 101 44 102 42 103 40 104 38 104 37 105 35 106 33 107 31 108 30 108 28 109 26 110 24 111 22 111 20 112 19 113 17 113 15 114 13 114 11 115 9 116 7 116 -246 12 -6 -112 -8 -111 -10 -111 -12 -110 -14 -110 -16 -109 -18 -108 -20 -108 -21 -107 -23 -106 -25 -106 -27 -105 -29 -104 -30 -104 -32 -103 -34 -102 -35 -101 -37 -101 -39 -100 -40 -99 -42 -98 -44 -97 -45 -96 -47 -95 -48 -94 -50 -94 -51 -93 -53 -92 -54 -91 -56 -90 -57 -89 -59 -88 193 13zm-183 -164l105 -117 88 130 -193 -13zm-408 455l408 -455 183 164 -408 455 -195 -16 12 -149zm-12 149l-51 -79 63 -70 -12 149zm1021 2896l0 -246 -123 129 -6 -95 -7 -95 -9 -95 -11 -94 -12 -94 -14 -93 -15 -93 -16 -92 -18 -92 -20 -91 -21 -91 -22 -90 -24 -90 -25 -89 -27 -88 -28 -88 -29 -87 -31 -87 -32 -86 -33 -85 -35 -85 -36 -84 -37 -83 -39 -83 -40 -82 -41 -81 -42 -80 -43 -79 -45 -79 -46 -78 -47 -77 -48 -76 207 -133 50 80 49 81 48 81 47 82 45 83 44 84 43 84 41 85 40 86 39 87 37 87 36 88 35 89 33 90 32 90 31 91 29 92 28 92 26 93 25 93 23 94 22 95 20 95 19 96 17 96 16 97 14 97 13 98 11 98 9 99 8 99 6 100 -123 129zm123 -129l7 130 -130 0 123 -129zm-2208 -120l2085 3 0 246 -2085 -3 -79 -217 79 -29zm-79 29l34 -29 45 0 -79 29zm-1013 1038l-239 -56 52 -74 40 -27 40 -27 40 -27 40 -27 40 -28 40 -28 39 -28 39 -28 39 -28 39 -28 39 -28 39 -28 38 -29 38 -29 38 -29 38 -29 38 -29 38 -29 37 -29 37 -29 37 -29 37 -29 36 -29 36 -29 36 -29 36 -29 36 -29 35 -29 35 -29 35 -29 35 -29 34 -29 157 189 -35 29 -35 29 -35 29 -36 29 -36 29 -36 29 -36 29 -36 29 -37 29 -37 29 -37 29 -38 30 -38 29 -38 29 -38 29 -38 29 -39 29 -39 29 -39 29 -39 29 -39 29 -40 29 -40 29 -40 29 -40 29 -40 28 -40 28 -40 28 -41 28 -41 28 -41 28 -41 27 52 -74zm-239 -56l11 -47 41 -27 -52 74zm-485 1355l-174 -174 0 0 30 -30 29 -31 29 -31 28 -32 28 -32 27 -33 27 -33 26 -34 25 -34 25 -35 24 -35 24 -35 23 -36 22 -36 22 -37 21 -37 21 -37 20 -38 19 -38 19 -39 18 -39 17 -39 17 -40 16 -40 15 -40 15 -41 14 -41 13 -41 13 -42 12 -42 11 -42 10 -43 239 56 -11 47 -12 47 -13 46 -14 46 -15 45 -15 45 -16 45 -17 44 -18 44 -18 44 -19 43 -20 43 -21 42 -21 42 -22 42 -23 41 -23 41 -24 40 -25 40 -25 39 -26 39 -27 38 -27 38 -28 38 -29 37 -29 36 -30 36 -30 36 -31 35 -31 34 -32 34 -33 33 0 0zm-1745 656l246 0 -137 -122 53 -7 53 -8 52 -9 52 -10 52 -11 51 -12 51 -13 50 -14 50 -15 49 -16 49 -17 49 -18 48 -19 47 -20 47 -21 47 -22 46 -23 45 -24 45 -25 44 -26 44 -27 43 -28 42 -29 42 -29 41 -30 41 -31 40 -32 39 -33 39 -33 38 -34 37 -35 37 -36 174 174 -40 39 -41 38 -42 38 -42 37 -43 36 -44 35 -45 34 -45 33 -46 32 -47 31 -47 30 -48 29 -49 28 -49 27 -50 26 -51 26 -51 24 -52 23 -52 22 -53 21 -53 20 -54 19 -54 18 -55 17 -55 16 -56 15 -56 13 -57 12 -57 11 -58 10 -58 9 -59 7 -137 -122zm137 122l-137 16 0 -138 137 122zm110 -918l-1 796 -246 0 1 -796 246 0 0 0zm0 0l0 0 0 0 0 0zm-321 -154l9 -246 37 7 15 6 14 6 15 7 14 7 14 8 14 9 13 9 13 9 12 10 11 10 12 11 12 11 10 11 10 12 10 13 9 13 9 13 8 13 8 14 7 14 7 14 7 15 6 15 5 15 5 15 4 16 4 16 3 16 2 16 2 16 1 17 0 17 -246 0 0 -7 0 -6 -1 -7 -1 -7 -1 -6 -1 -6 -2 -7 -2 -6 -2 -7 -2 -6 -2 -5 -3 -6 -3 -6 -3 -6 -4 -6 -4 -5 -4 -5 -4 -5 -5 -5 -5 -5 -4 -4 -5 -4 -5 -5 -5 -4 -5 -4 -6 -4 -5 -3 -6 -3 -6 -3 -6 -3 -6 -3 -6 -2 37 7zm9 -246l19 1 18 7 -37 -7zm-138 231l-46 -241 38 -1 4 1 5 1 5 1 5 1 5 1 4 0 5 1 5 1 4 0 5 0 5 1 5 0 5 1 4 0 5 0 5 0 4 0 5 0 5 0 5 0 5 0 4 0 5 0 5 0 4 0 5 0 5 0 5 0 5 0 4 0 5 0 5 0 -9 246 -5 0 -5 0 -6 0 -5 0 -5 0 -5 0 -5 0 -6 0 -5 0 -5 0 -6 0 -5 0 -5 0 -5 0 -5 0 -6 -1 -5 0 -5 0 -6 -1 -5 -1 -5 0 -5 -1 -5 0 -6 -1 -5 -1 -5 -1 -6 -1 -5 -1 -5 -1 -5 -1 -5 -1 -6 -1 38 -1zm-46 -241l19 -4 19 2 -38 1zm-93 410l-246 0 0 0 0 -19 1 -19 2 -18 3 -18 4 -18 5 -18 5 -17 6 -17 7 -17 7 -17 8 -16 8 -15 9 -15 10 -15 11 -14 11 -14 11 -13 12 -13 13 -12 13 -12 14 -11 15 -11 14 -10 15 -9 16 -9 16 -8 17 -8 17 -7 17 -6 18 -6 18 -5 18 -4 46 241 -8 2 -7 2 -7 2 -8 3 -7 3 -6 3 -7 3 -6 3 -6 4 -6 4 -6 4 -6 5 -5 5 -5 5 -5 5 -5 6 -5 6 -4 6 -4 6 -4 6 -4 7 -3 6 -3 7 -3 7 -2 7 -2 7 -2 7 -2 7 -1 8 -1 8 -1 8 0 8 0 0zm0 0l0 0 0 0 0 0zm-247 797l1 -798 246 0 -1 798 -136 122 -110 -122zm246 0l0 137 -136 -15 136 -122zm-1760 -659l174 -174 0 0 37 36 37 35 38 34 39 34 40 33 40 32 41 31 42 30 42 30 43 29 44 28 44 27 45 26 45 25 46 24 46 23 47 22 47 21 48 20 48 19 49 18 50 17 50 16 50 15 51 14 51 13 52 12 52 11 53 10 53 9 53 8 54 6 -27 244 -59 -7 -59 -8 -58 -10 -58 -11 -57 -12 -57 -13 -57 -14 -56 -16 -55 -17 -55 -18 -54 -19 -54 -20 -53 -21 -53 -22 -52 -24 -52 -24 -51 -26 -50 -26 -50 -28 -49 -29 -48 -30 -48 -31 -47 -32 -46 -32 -46 -33 -45 -34 -44 -35 -44 -36 -43 -37 -42 -38 -41 -39 -40 -40 0 0zm-660 -1772l0 246 122 -136 6 54 8 54 9 53 10 53 11 53 12 52 13 52 14 51 15 51 16 50 17 50 18 49 19 49 20 48 21 48 22 47 23 47 24 46 25 46 26 45 27 45 28 44 29 43 30 43 31 42 31 41 32 41 33 40 34 39 35 38 35 38 36 37 -174 174 -40 -41 -39 -41 -38 -42 -37 -43 -36 -44 -36 -45 -34 -45 -34 -46 -33 -47 -32 -47 -31 -48 -30 -49 -29 -50 -28 -50 -27 -51 -26 -52 -25 -52 -24 -53 -22 -53 -21 -54 -20 -54 -19 -55 -18 -56 -17 -56 -15 -56 -14 -57 -13 -57 -12 -58 -11 -58 -10 -59 -8 -59 -7 -60 122 -136zm-122 136l-14 -136 137 0 -122 136zm902 111l-780 -1 0 -246 780 1 0 246 0 0zm0 0l0 0 0 0 0 0zm163 -321l243 -39 -3 51 -5 17 -6 16 -6 15 -7 16 -8 16 -8 15 -9 15 -9 14 -10 14 -10 14 -11 13 -11 12 -12 12 -12 12 -13 11 -13 10 -13 10 -14 10 -14 9 -15 8 -16 8 -15 7 -16 7 -16 6 -17 6 -16 5 -17 4 -18 3 -17 3 -18 2 -18 1 -18 0 0 -246 7 0 8 -1 7 -1 7 -1 7 -1 7 -2 7 -2 6 -2 7 -2 7 -3 7 -3 6 -3 6 -4 6 -4 5 -4 6 -4 6 -5 5 -4 5 -5 5 -5 5 -5 5 -5 4 -5 4 -6 4 -6 3 -6 3 -6 3 -6 3 -6 3 -7 2 -7 2 -7 -3 51zm243 -39l4 26 -7 25 3 -51zm-252 -134l220 -110 13 50 0 6 0 6 0 7 0 7 0 5 1 7 0 7 0 6 1 7 1 7 1 6 1 6 1 7 1 6 1 7 1 6 1 5 1 6 1 7 1 7 1 6 1 6 1 7 1 6 1 6 1 7 1 7 1 6 1 6 1 6 1 7 1 6 -243 39 -1 -7 -1 -6 -1 -6 -1 -8 -1 -7 -1 -7 -1 -7 -1 -8 -1 -7 -1 -7 -1 -7 -1 -8 -1 -6 -1 -7 -1 -7 -1 -8 -1 -8 -1 -6 -1 -7 -1 -7 -1 -7 -1 -8 -1 -7 -1 -7 -1 -8 0 -7 -1 -7 -1 -9 0 -7 0 -7 0 -8 0 -7 13 50zm220 -110l12 24 1 26 -13 -50zm-373 16l0 -246 0 0 15 0 15 1 15 1 15 2 15 2 14 3 15 3 14 4 14 4 13 5 14 6 13 6 12 6 13 7 13 7 12 8 12 8 11 8 11 9 11 9 11 9 10 10 10 10 10 11 10 11 9 11 9 11 8 11 8 12 8 12 7 12 7 13 -220 110 -3 -5 -3 -6 -3 -5 -3 -5 -4 -5 -4 -5 -4 -4 -4 -4 -4 -4 -4 -4 -5 -4 -5 -4 -4 -4 -5 -3 -5 -4 -5 -3 -5 -3 -5 -3 -5 -3 -6 -3 -5 -2 -5 -2 -6 -2 -6 -2 -6 -2 -6 -1 -6 -1 -6 -1 -6 -1 -6 -1 -7 0 -6 0 0 0zm0 0l0 0 0 0 0 0zm-776 -247l776 1 0 246 -776 -1 -122 -138 122 -108zm0 246l-138 0 17 -137 122 138zm655 -1732l174 174 0 0 -35 36 -35 37 -34 38 -33 38 -32 39 -32 40 -31 40 -30 41 -29 42 -28 42 -27 43 -27 44 -26 44 -25 44 -24 45 -23 46 -22 46 -21 47 -20 47 -19 48 -18 48 -17 49 -16 49 -16 50 -14 50 -13 50 -12 51 -11 51 -10 52 -9 52 -8 52 -7 53 -244 -29 8 -58 9 -57 10 -57 11 -57 12 -56 14 -56 15 -55 16 -55 17 -54 18 -54 19 -54 20 -53 21 -52 22 -52 23 -51 25 -51 25 -50 26 -49 27 -49 28 -48 29 -48 30 -47 31 -46 32 -46 33 -45 34 -44 35 -44 36 -43 36 -42 37 -41 38 -41 39 -40 0 0zm1199 -668l203 138 -72 50 -42 11 -41 11 -41 12 -41 13 -41 13 -40 14 -40 15 -39 15 -39 16 -39 17 -38 17 -38 18 -38 19 -38 19 -37 20 -36 20 -36 21 -36 22 -35 22 -35 23 -35 23 -34 24 -34 24 -33 25 -33 26 -33 26 -32 27 -32 27 -31 28 -31 28 -30 29 -30 29 -174 -174 33 -32 33 -31 34 -31 34 -30 35 -30 35 -29 36 -29 36 -28 37 -28 37 -27 38 -26 38 -26 39 -25 39 -24 39 -24 40 -23 40 -23 41 -22 41 -21 42 -20 42 -20 42 -19 43 -18 43 -18 44 -17 44 -16 44 -16 44 -15 45 -14 45 -13 45 -12 46 -12 -72 50zm203 138l-26 39 -46 11 72 -50zm589 -1212l195 150 0 0 -23 30 -24 31 -24 31 -24 31 -24 31 -24 31 -24 32 -24 32 -24 32 -24 32 -25 33 -25 33 -25 33 -25 33 -25 33 -25 33 -25 34 -25 34 -25 34 -25 34 -25 34 -25 34 -25 35 -25 35 -25 35 -25 35 -25 35 -25 35 -24 35 -25 35 -24 35 -24 35 -203 -138 25 -36 25 -36 25 -36 25 -36 25 -36 25 -35 25 -35 25 -35 25 -35 25 -35 25 -35 25 -34 25 -34 25 -34 25 -34 25 -34 25 -34 25 -34 25 -33 25 -33 25 -33 25 -33 25 -33 25 -32 25 -32 24 -32 24 -32 24 -31 24 -31 24 -31 24 -31 24 -30 0 0zm327 -22l-132 172 -195 -150 132 -172 220 75 -26 75zm26 -75l0 42 -25 33 26 -75zm3 -2063l-3 2063 -246 0 3 -2063 129 -123 117 123zm-246 0l0 -129 129 7 -129 123zm3065 927l146 198 -143 2 -80 -54 -81 -53 -82 -52 -83 -50 -84 -49 -84 -48 -85 -46 -86 -45 -87 -43 -88 -42 -89 -40 -90 -39 -90 -37 -91 -36 -92 -34 -92 -33 -93 -31 -94 -30 -95 -28 -95 -27 -96 -25 -97 -23 -97 -22 -98 -20 -98 -18 -99 -17 -100 -15 -100 -13 -101 -12 -101 -10 -102 -8 -102 -6 12 -245 107 6 106 8 106 10 105 12 105 14 104 16 103 17 103 19 102 21 102 23 101 24 100 26 100 28 99 29 98 31 97 33 97 34 96 36 95 38 94 39 93 41 93 42 92 44 91 45 90 47 89 48 88 50 87 51 86 52 85 54 84 55 83 57 -143 2zm146 198l-71 52 -72 -50 143 -2zm500 -370l-500 370 -146 -198 500 -370 146 0 0 198zm0 -198l134 99 -134 99 0 -198zm-3710 -1150l246 0 -117 -123 125 7 124 9 124 12 123 14 122 16 122 18 121 21 120 23 120 25 119 27 118 29 117 31 116 34 115 36 114 38 113 40 112 42 111 44 110 46 109 48 108 50 107 52 106 53 105 55 104 57 103 59 102 61 100 62 99 64 98 66 97 68 95 69 -146 198 -92 -67 -93 -65 -94 -63 -96 -62 -97 -60 -98 -58 -99 -57 -100 -55 -101 -53 -102 -51 -103 -50 -104 -48 -105 -46 -106 -44 -107 -42 -108 -40 -109 -38 -110 -36 -111 -34 -112 -32 -112 -30 -114 -28 -114 -26 -115 -24 -116 -22 -116 -20 -117 -18 -118 -16 -119 -13 -119 -11 -120 -9 -121 -7 -117 -123zm117 123l-117 -5 0 -118 117 123zm130 -1236l-2 1113 -246 0 2 -1113 246 0 0 0zm0 0l0 0 0 0 0 0zm-417 -172l0 -246 0 0 21 1 21 2 21 3 21 4 20 5 20 6 19 7 19 7 19 9 18 9 18 10 17 11 16 11 16 13 15 13 14 14 14 15 13 15 12 16 12 16 11 17 10 17 9 18 9 19 7 19 7 20 6 20 5 20 4 21 3 21 2 21 1 21 -246 0 0 -9 -1 -9 -1 -9 -2 -9 -2 -9 -2 -8 -3 -8 -3 -8 -3 -7 -4 -8 -4 -7 -4 -7 -5 -7 -5 -7 -5 -6 -6 -6 -6 -6 -6 -5 -6 -5 -7 -5 -7 -5 -7 -4 -7 -4 -7 -3 -8 -3 -8 -3 -8 -2 -9 -2 -9 -2 -8 -1 -9 -1 -9 0 0 0zm-172 172l-246 0 0 0 1 -21 2 -21 3 -21 4 -21 5 -20 6 -20 7 -20 7 -19 9 -19 9 -18 10 -18 11 -17 11 -16 13 -16 13 -15 14 -14 15 -14 15 -13 16 -12 16 -11 17 -11 18 -10 18 -9 19 -9 19 -7 19 -7 20 -6 20 -5 21 -4 21 -3 21 -2 21 -1 0 246 -9 0 -9 1 -8 1 -9 2 -9 2 -8 2 -8 3 -8 3 -7 3 -8 4 -7 4 -7 4 -7 5 -7 5 -6 5 -6 6 -6 6 -5 6 -5 6 -5 7 -5 7 -4 7 -4 7 -3 7 -3 8 -3 8 -2 8 -2 9 -2 9 -1 9 -1 9 0 9 0 0zm0 0l0 0 0 0 0 0zm-247 1112l2 -1113 246 0 -2 1113 -118 123 -128 -123zm246 0l0 117 -117 5 118 -123zm-4292 1962l-174 -174 0 0 106 -104 109 -102 111 -99 113 -97 115 -94 117 -91 120 -89 122 -86 124 -83 126 -81 128 -78 129 -75 131 -72 133 -69 135 -66 137 -63 138 -60 140 -57 142 -54 143 -51 145 -47 146 -44 147 -41 149 -37 150 -34 151 -31 153 -27 154 -23 155 -20 156 -16 157 -13 158 -9 11 246 -152 9 -151 12 -150 16 -149 19 -148 23 -147 26 -146 29 -144 33 -143 36 -142 39 -140 42 -139 46 -138 49 -136 52 -135 55 -133 58 -132 61 -130 64 -128 67 -126 69 -125 72 -123 75 -121 78 -119 80 -117 83 -115 85 -113 88 -111 91 -109 93 -107 95 -105 98 -102 100 0 0zm-1961 4259l0 -246 -123 117 10 -157 13 -156 17 -155 20 -154 24 -153 27 -151 31 -150 34 -149 38 -148 41 -146 44 -145 47 -143 51 -142 54 -140 57 -139 60 -137 63 -136 66 -134 69 -132 72 -130 75 -128 77 -127 80 -125 83 -123 86 -121 88 -119 91 -117 93 -114 96 -112 98 -110 101 -108 103 -106 174 174 -99 102 -97 104 -95 106 -92 108 -90 110 -87 112 -85 114 -82 116 -80 118 -77 120 -75 122 -72 124 -69 125 -66 127 -63 129 -61 130 -58 132 -55 134 -52 135 -49 137 -46 138 -43 139 -39 141 -36 142 -33 143 -30 144 -26 146 -23 147 -20 148 -16 149 -13 150 -9 151 -123 117zm123 -117l-6 117 -117 0 123 -117zm-1210 -131l1087 2 0 246 -1087 -2 0 -246 0 0zm0 0l0 0 0 0 0 0zm-172 417l-246 0 0 0 1 -21 2 -21 3 -21 4 -21 5 -20 6 -20 7 -19 7 -19 9 -19 9 -18 10 -18 11 -17 11 -16 13 -16 13 -15 14 -14 15 -14 15 -13 16 -12 16 -12 17 -11 18 -10 17 -9 19 -9 19 -7 19 -7 20 -6 20 -5 21 -4 21 -3 21 -2 21 -1 0 246 -9 0 -9 1 -8 1 -9 2 -9 2 -8 2 -8 3 -8 3 -7 3 -8 4 -7 4 -6 4 -7 5 -7 5 -6 5 -6 6 -6 6 -5 6 -5 6 -5 7 -5 7 -4 7 -4 7 -3 7 -3 8 -3 8 -2 8 -2 9 -2 9 -1 8 -1 9 0 9 0 0zm172 172l0 246 0 0 -21 -1 -21 -2 -21 -3 -21 -4 -20 -5 -20 -6 -19 -7 -19 -7 -19 -9 -18 -9 -18 -10 -17 -11 -16 -11 -16 -12 -15 -13 -14 -14 -14 -14 -13 -15 -12 -16 -11 -16 -11 -17 -10 -18 -9 -18 -9 -19 -7 -19 -7 -19 -6 -20 -5 -20 -4 -21 -3 -21 -2 -21 -1 -21 246 0 0 9 1 9 1 8 2 9 2 9 2 8 3 8 3 8 3 7 4 8 4 7 4 7 5 7 5 7 5 6 6 6 6 6 6 5 7 5 7 5 7 4 7 4 8 4 7 3 8 3 8 3 8 2 9 2 9 2 8 1 9 1 9 0 0 0zm0 0l0 0 0 0 0 0zm1084 247l-1085 -2 0 -246 1085 2 123 118 -123 128zm0 -246l118 0 5 118 -123 -118zm1963 4310l-174 174 0 0 -104 -107 -102 -109 -99 -111 -97 -114 -94 -116 -92 -118 -89 -120 -86 -122 -84 -124 -81 -126 -78 -128 -75 -130 -72 -132 -69 -134 -66 -136 -63 -137 -60 -139 -57 -141 -54 -142 -51 -144 -47 -145 -44 -147 -41 -148 -37 -149 -34 -151 -30 -152 -27 -153 -23 -154 -20 -156 -16 -157 -12 -158 -9 -159 246 -10 8 153 12 152 15 151 19 150 22 149 26 148 29 146 33 145 36 144 39 142 42 141 45 140 49 138 52 137 55 135 58 134 61 132 64 130 67 129 69 127 72 125 75 123 78 121 81 120 83 118 86 116 88 114 91 111 93 109 96 107 98 105 100 103 0 0zm4286 1962l-246 0 117 123 -158 -9 -157 -13 -156 -16 -155 -20 -154 -24 -152 -27 -151 -31 -150 -34 -149 -37 -147 -41 -146 -44 -144 -47 -143 -51 -141 -54 -140 -57 -138 -60 -136 -63 -135 -66 -133 -69 -131 -72 -129 -75 -127 -78 -126 -81 -123 -83 -121 -86 -119 -89 -117 -91 -115 -94 -113 -96 -111 -99 -108 -101 -106 -104 174 -174 102 100 104 97 107 95 109 93 111 90 113 88 115 85 117 83 119 80 121 78 123 75 124 72 126 69 128 67 130 64 131 61 133 58 134 55 136 52 137 49 139 46 140 43 142 39 143 36 144 33 145 30 147 26 148 23 149 19 150 16 151 12 152 9 117 123zm-117 -123l118 5 0 118 -117 -123zm-130 1190l2 -1067 246 0 -2 1067 -246 0 0 0zm0 0l0 0 0 0 0 0zm841 -4310l-4 2651 -246 0 4 -2651 111 -122 134 123zm-246 0l0 -112 111 -10 -111 122zm1990 -1007l174 174 0 0 -50 49 -51 48 -52 47 -53 46 -54 45 -55 44 -56 43 -57 41 -58 40 -59 39 -60 38 -61 37 -61 35 -62 34 -63 33 -64 31 -65 30 -65 29 -66 27 -67 26 -68 24 -68 23 -69 22 -70 20 -70 19 -71 17 -71 16 -72 14 -72 12 -73 11 -73 9 -74 8 -23 -245 68 -7 68 -9 68 -10 67 -12 66 -13 66 -15 65 -16 65 -17 64 -19 64 -20 63 -21 62 -23 62 -24 61 -25 60 -27 60 -28 59 -29 58 -30 58 -32 57 -33 56 -34 55 -35 55 -36 54 -37 53 -38 52 -39 51 -41 50 -41 49 -43 48 -44 47 -45 47 -46 0 0zm1010 -2022l0 246 123 -113 -7 75 -9 75 -11 74 -12 74 -14 73 -15 72 -17 72 -18 71 -20 71 -21 70 -23 69 -24 69 -26 68 -27 67 -29 67 -30 66 -31 65 -33 64 -34 63 -35 62 -37 62 -38 61 -39 60 -41 59 -42 58 -43 57 -44 56 -45 55 -47 54 -48 53 -49 52 -50 51 -174 -174 46 -47 45 -48 44 -49 43 -50 42 -51 41 -52 40 -53 39 -54 38 -55 36 -55 35 -56 34 -57 33 -58 32 -59 30 -59 29 -60 28 -61 27 -61 25 -62 24 -63 22 -64 21 -64 20 -65 18 -65 17 -66 16 -66 14 -67 13 -68 11 -68 10 -68 8 -69 7 -70 123 -113zm-123 113l9 -113 113 0 -123 113zm2772 137l-2650 -4 0 -246 2650 4 123 129 -123 117zm0 -246l129 0 -6 128 -123 -129zm-1616 4062l-174 -174 0 0 90 -92 88 -94 86 -96 84 -98 82 -100 80 -102 77 -104 75 -106 73 -108 70 -109 68 -111 65 -113 63 -114 60 -116 58 -117 55 -119 52 -120 50 -122 47 -123 44 -124 41 -126 39 -127 36 -128 33 -129 30 -130 27 -132 24 -133 21 -134 18 -135 14 -136 11 -137 8 -138 246 11 -8 143 -12 142 -15 141 -18 141 -22 139 -25 138 -28 137 -31 136 -34 135 -37 134 -40 132 -43 131 -46 130 -49 128 -52 127 -55 126 -57 124 -60 122 -63 121 -66 119 -68 118 -71 116 -73 114 -76 112 -78 110 -81 109 -83 107 -85 105 -88 103 -90 101 -92 98 -94 96 0 0zm-4038 1614l246 0 -129 -123 137 -9 136 -12 135 -15 134 -18 133 -21 132 -24 131 -27 130 -30 129 -33 127 -36 126 -39 125 -41 124 -44 122 -47 121 -50 119 -52 118 -55 117 -58 115 -60 114 -63 112 -65 110 -68 109 -70 107 -72 105 -75 103 -77 102 -79 100 -81 98 -84 96 -86 94 -88 92 -90 174 174 -96 94 -98 92 -100 89 -102 87 -104 85 -106 83 -108 80 -110 78 -111 75 -113 73 -115 70 -117 68 -118 65 -120 63 -122 60 -123 57 -125 55 -126 52 -127 49 -129 46 -130 43 -131 40 -133 37 -134 34 -135 31 -137 28 -137 25 -139 22 -140 19 -141 15 -142 12 -142 9 -129 -123zm129 123l-129 7 0 -129 129 123zm-719 -9125l4 -2651 246 0 -4 2651 -112 122 -134 -123zm246 0l0 112 -112 10 112 -122zm-1999 1007l-174 -174 0 0 51 -49 51 -48 52 -47 54 -46 55 -45 55 -44 56 -43 57 -41 58 -40 59 -39 60 -38 61 -36 62 -35 63 -34 63 -33 64 -31 65 -30 66 -29 66 -27 67 -26 68 -24 69 -23 69 -22 70 -20 70 -19 71 -17 72 -16 72 -14 73 -13 73 -11 74 -9 74 -8 22 245 -69 7 -68 9 -68 10 -67 12 -67 13 -66 14 -66 16 -65 17 -65 19 -64 20 -63 21 -63 23 -62 24 -61 25 -61 26 -60 28 -59 29 -59 30 -58 31 -57 33 -56 34 -56 35 -55 36 -54 37 -53 38 -52 40 -52 41 -50 42 -49 43 -49 44 -48 45 -47 46 0 0zm-1006 1976l0 -246 -123 111 8 -73 10 -73 11 -72 13 -72 14 -71 16 -71 17 -70 19 -70 20 -69 22 -68 23 -68 24 -67 26 -66 27 -66 29 -65 30 -64 31 -63 33 -63 34 -62 35 -61 36 -60 38 -59 39 -59 40 -58 41 -57 42 -56 44 -55 45 -54 46 -53 47 -52 48 -51 49 -50 174 174 -45 46 -44 47 -43 48 -42 49 -41 50 -40 51 -39 51 -38 53 -37 53 -36 54 -35 55 -34 56 -33 57 -31 57 -30 58 -29 59 -28 59 -26 60 -25 61 -24 61 -23 62 -21 63 -20 63 -19 64 -17 64 -16 65 -15 65 -13 66 -12 66 -10 67 -9 67 -7 68 -123 111zm123 -111l-11 111 -112 0 123 -111zm-2774 -139l2652 4 0 246 -2652 -4 -123 -130 123 -116zm0 246l-130 0 7 -129 123 130zm1613 -4016l174 174 0 0 -89 92 -87 93 -85 96 -83 97 -81 99 -79 101 -77 103 -74 104 -72 106 -70 108 -67 110 -65 111 -62 113 -60 114 -57 116 -55 117 -52 119 -50 120 -47 122 -44 123 -42 124 -39 125 -36 127 -33 128 -30 129 -27 130 -24 131 -21 132 -18 133 -15 134 -12 135 -9 136 -245 -13 9 -142 13 -141 16 -140 19 -139 22 -138 25 -137 29 -136 32 -134 35 -133 37 -132 40 -131 43 -129 46 -128 49 -127 52 -125 55 -124 57 -122 60 -121 63 -119 65 -118 68 -116 70 -114 73 -113 75 -111 78 -109 80 -107 82 -105 84 -103 87 -101 89 -100 91 -98 93 -95 0 0zm4046 -1615l-246 0 129 123 -137 8 -136 11 -135 15 -134 18 -133 21 -132 24 -131 27 -130 30 -129 33 -128 36 -126 39 -125 41 -124 44 -123 47 -121 50 -120 52 -118 55 -117 58 -115 60 -114 63 -112 65 -110 68 -109 70 -107 72 -105 75 -104 77 -102 79 -100 82 -98 84 -96 86 -94 88 -92 90 -174 -174 96 -94 98 -92 100 -90 102 -87 104 -85 106 -83 108 -80 110 -78 112 -76 114 -73 115 -71 117 -68 119 -65 120 -63 122 -60 123 -57 125 -55 126 -52 128 -49 129 -46 130 -43 132 -40 133 -37 134 -34 136 -31 137 -28 138 -25 139 -22 140 -19 141 -15 142 -12 143 -9 129 123zm-129 -123l129 -6 0 129 -129 -123zm-2883 6346l-2650 -4 0 -246 2650 4 122 113 -123 133zm0 -246l113 0 10 112 -122 -113zm1009 2017l-174 174 0 0 -50 -51 -49 -52 -48 -53 -46 -54 -45 -55 -44 -56 -43 -57 -42 -58 -41 -59 -39 -60 -38 -61 -37 -62 -35 -62 -34 -63 -33 -64 -31 -65 -30 -65 -29 -66 -27 -67 -26 -68 -24 -69 -23 -69 -22 -70 -20 -70 -19 -71 -17 -72 -15 -72 -14 -73 -12 -73 -11 -74 -9 -74 -7 -75 245 -21 7 69 8 69 10 68 11 68 13 67 14 67 16 66 17 66 18 65 20 65 21 64 23 63 24 63 25 62 27 61 28 61 29 60 30 59 32 58 33 58 34 57 35 56 36 55 38 55 39 54 40 53 41 52 42 51 43 50 44 49 45 48 46 47 0 0zm2003 1008l-246 0 112 123 -74 -8 -74 -9 -73 -11 -73 -12 -72 -14 -72 -15 -71 -17 -71 -19 -70 -20 -69 -22 -69 -23 -68 -24 -67 -26 -67 -27 -66 -29 -65 -30 -64 -31 -64 -33 -63 -34 -62 -35 -61 -37 -60 -38 -59 -39 -58 -40 -58 -42 -56 -43 -56 -44 -55 -45 -54 -46 -53 -47 -52 -48 -51 -49 174 -174 47 46 48 45 49 44 50 43 51 42 51 41 52 40 53 38 54 37 55 36 56 35 57 34 57 33 58 32 59 30 59 29 60 28 61 27 62 25 62 24 63 23 64 21 64 20 65 19 65 17 66 16 66 14 67 13 67 11 68 10 68 9 69 7 112 123zm-112 -123l112 10 0 113 -112 -123zm-138 2773l4 -2650 246 0 -4 2650 -129 123 -117 -123zm246 0l0 129 -129 -6 129 -123zm-4043 -1615l174 -174 0 0 92 90 94 88 96 86 98 84 100 81 102 79 104 77 105 75 107 72 109 70 110 68 112 65 114 63 115 60 117 58 118 55 120 52 121 50 122 47 124 44 125 41 126 39 127 36 129 33 130 30 131 27 132 24 133 21 134 18 135 15 136 12 137 8 -12 246 -143 -9 -142 -12 -141 -15 -140 -19 -139 -22 -138 -25 -137 -28 -135 -31 -134 -34 -133 -37 -132 -40 -130 -43 -129 -46 -128 -49 -126 -52 -125 -55 -123 -57 -122 -60 -120 -63 -119 -65 -117 -68 -115 -70 -113 -73 -112 -76 -110 -78 -108 -80 -106 -83 -104 -85 -102 -87 -100 -89 -98 -92 -96 -94 0 0zm-1615 -4065l0 246 123 -129 8 138 11 137 14 136 17 135 21 134 24 133 27 132 30 130 33 129 36 128 39 127 41 126 44 124 47 123 50 122 52 120 55 119 58 117 60 116 63 114 65 113 68 111 70 109 73 108 75 106 77 104 80 102 82 100 84 99 86 96 88 95 91 93 -174 174 -94 -97 -92 -99 -90 -101 -88 -103 -85 -105 -83 -107 -81 -109 -78 -110 -76 -112 -73 -114 -71 -116 -68 -118 -66 -119 -63 -121 -60 -122 -57 -124 -55 -126 -52 -127 -49 -128 -46 -130 -43 -131 -40 -132 -37 -134 -34 -135 -31 -136 -28 -137 -25 -138 -22 -140 -18 -141 -15 -142 -12 -143 -8 -143 123 -129zm-123 129l-6 -129 129 0 -123 129z"/>
   </g>
   <g>
    <path class="fil2" d="M12836 7591l4731 -5311 723 644 -4731 5311 -401 160 -321 -804zm0 0l723 644 -17 18 -18 17 -18 16 -19 15 -20 14 -20 13 -21 12 -21 11 -22 10 -22 8 -22 7 -23 6 -23 5 -23 4 -23 3 -23 2 -23 1 -23 0 -23 -1 -23 -3 -23 -4 -23 -5 -23 -6 -23 -7 -22 -8 -22 -9 -22 -10 -21 -12 -21 -13 -20 -14 -20 -15 -19 -16 -18 -17 -17 -18 -16 -18 -15 -19 -14 -20 -13 -20 -12 -21 -11 -21 -10 -22 -8 -22 -7 -22 -6 -23 -5 -23 -4 -23 -3 -23 -2 -23 -1 -23 0 -23 1 -23 3 -23 4 -23 5 -23 6 -23 7 -23 8 -22 9 -22 10 -22 12 -21 13 -21 14 -20 15 -20 16 -19zm1977 942l-1656 -138 80 -964 1656 138 282 843 -362 121zm0 0l80 -964 25 3 24 4 24 5 23 6 23 7 22 8 22 9 21 11 21 11 20 12 19 13 19 14 18 15 17 16 16 17 15 17 15 18 14 19 13 19 12 20 11 21 10 21 9 22 8 22 7 23 6 23 5 23 4 24 2 24 1 24 0 25 -1 25 -3 25 -4 24 -5 24 -6 23 -7 23 -8 22 -9 22 -11 21 -11 21 -12 20 -13 19 -14 19 -15 18 -16 17 -17 16 -17 15 -18 15 -19 14 -19 13 -20 12 -21 11 -21 10 -22 9 -22 8 -23 7 -23 6 -23 5 -24 4 -24 2 -24 1 -25 0 -25 -1zm-5797 2464l684 -685 0 0 66 56 69 42 76 31 87 22 102 11 117 0 131 -14 145 -28 156 -42 166 -56 174 -69 180 -81 186 -93 190 -103 192 -112 194 -120 195 -127 194 -133 193 -137 191 -141 188 -143 184 -144 180 -144 174 -142 168 -140 161 -136 153 -132 144 -126 135 -119 125 -111 114 -102 103 -92 644 722 -103 92 -115 103 -127 113 -138 122 -149 130 -158 136 -167 142 -175 146 -182 149 -188 151 -194 151 -199 151 -203 150 -207 147 -210 143 -213 139 -215 133 -216 126 -217 118 -218 109 -218 98 -219 87 -219 73 -219 59 -220 42 -221 23 -221 0 -221 -25 -219 -55 -212 -88 -199 -122 -180 -154 0 0zm3060 -5524l-966 -66 869 325 -83 108 -92 116 -100 125 -107 133 -113 140 -118 147 -122 154 -126 160 -128 165 -129 169 -129 173 -128 176 -126 179 -123 180 -118 181 -113 181 -106 180 -99 179 -90 176 -80 172 -70 167 -58 161 -46 153 -33 144 -20 134 -8 122 4 109 15 97 25 85 34 76 46 71 61 70 -684 685 -151 -174 -122 -191 -92 -203 -61 -210 -33 -213 -8 -214 13 -213 32 -212 48 -210 63 -209 75 -208 86 -207 96 -206 105 -205 112 -204 119 -202 124 -200 129 -197 132 -194 134 -191 136 -187 136 -182 135 -177 133 -171 129 -164 126 -157 120 -149 113 -141 106 -131 97 -121 87 -110 75 -97 869 325zm-97 259l-771 -584 16 -20 16 -18 17 -18 18 -16 18 -15 19 -14 20 -13 20 -12 21 -11 21 -10 22 -9 22 -8 22 -7 23 -6 23 -5 23 -4 23 -3 23 -2 23 0 23 1 23 2 23 3 23 4 23 5 23 6 23 8 22 9 22 10 22 11 21 12 21 13 20 15 20 16 18 16 18 17 16 18 15 18 14 19 13 20 12 20 11 21 10 21 9 22 8 22 7 22 6 23 5 23 4 23 3 23 2 23 0 23 -1 23 -2 23 -3 23 -4 23 -5 23 -6 23 -8 23 -9 22 -10 22 -11 22 -12 21 -13 21 -15 20zm-986 1403l118 -1728 966 66 -118 1728 -203 362 -762 -428zm0 0l966 66 -2 25 -4 24 -5 24 -6 24 -7 23 -8 23 -9 22 -10 21 -11 21 -12 20 -13 20 -14 19 -15 18 -16 17 -16 16 -17 16 -18 15 -19 14 -19 13 -20 12 -21 11 -21 10 -22 9 -22 8 -23 7 -23 6 -23 5 -24 4 -24 3 -24 2 -25 0 -25 -1 -25 -2 -24 -4 -24 -5 -24 -6 -23 -7 -23 -8 -22 -9 -21 -10 -21 -11 -20 -12 -20 -13 -19 -14 -18 -15 -17 -16 -16 -16 -16 -17 -15 -18 -14 -19 -13 -19 -12 -20 -11 -21 -10 -21 -9 -22 -8 -22 -7 -23 -6 -23 -5 -23 -4 -24 -3 -24 -2 -24 0 -25 1 -25zm7216 -4138l-6454 4566 -559 -790 6454 -4566 641 717 -82 73zm0 0l-559 -790 21 -14 21 -13 22 -12 22 -10 22 -9 23 -8 23 -7 23 -6 23 -5 23 -3 23 -2 23 -1 23 0 23 1 23 2 23 3 23 5 23 6 22 7 22 8 22 9 21 10 21 11 20 12 20 13 19 14 19 15 18 16 17 17 17 18 16 19 15 20 14 21 13 21 12 22 10 22 9 22 8 23 7 23 6 23 5 23 3 23 2 23 1 23 0 23 -1 23 -2 23 -3 23 -5 23 -6 23 -7 22 -8 22 -9 22 -10 21 -11 21 -12 20 -13 20 -14 19 -15 19 -16 18 -17 17 -18 17 -19 16 -20 15zm-8287 6784l-968 0 0 0 2 -64 5 -64 8 -63 11 -63 14 -61 17 -60 20 -59 23 -57 25 -56 28 -55 31 -53 33 -51 35 -50 37 -48 39 -46 43 -45 44 -42 45 -39 48 -38 50 -35 51 -33 53 -31 55 -28 56 -25 57 -23 59 -20 60 -17 61 -14 63 -11 63 -8 64 -5 64 -2 0 968 -16 0 -16 1 -15 2 -14 3 -15 3 -14 4 -13 5 -14 5 -13 6 -12 6 -12 7 -12 8 -11 8 -11 9 -11 10 -10 10 -9 9 -9 11 -9 11 -8 11 -8 12 -7 12 -6 12 -6 13 -5 14 -5 13 -4 14 -3 15 -3 14 -2 15 -1 16 0 16 0 0zm-968 0l968 0 -1 25 -2 25 -3 24 -4 24 -5 23 -7 23 -8 23 -9 22 -10 22 -11 21 -12 20 -13 20 -13 19 -14 18 -15 18 -16 17 -17 16 -18 15 -18 14 -19 13 -20 13 -20 12 -21 11 -22 10 -22 9 -23 8 -23 7 -23 5 -24 4 -24 3 -25 2 -25 1 -25 -1 -25 -2 -24 -3 -24 -4 -23 -5 -23 -7 -23 -8 -22 -9 -22 -10 -21 -11 -20 -12 -20 -13 -19 -13 -18 -14 -18 -15 -17 -16 -16 -17 -15 -18 -14 -18 -13 -19 -13 -20 -12 -20 -11 -21 -10 -22 -9 -22 -8 -23 -7 -23 -5 -23 -4 -24 -3 -24 -2 -25 -1 -25zm1263 296l0 968 0 0 -64 -2 -64 -5 -64 -8 -62 -11 -61 -14 -61 -17 -59 -20 -58 -23 -56 -25 -55 -28 -53 -31 -52 -33 -50 -35 -48 -38 -45 -39 -44 -42 -42 -44 -39 -46 -38 -48 -35 -49 -33 -51 -31 -53 -28 -55 -25 -56 -23 -57 -20 -59 -17 -60 -14 -61 -11 -63 -8 -63 -5 -64 -2 -64 968 0 0 16 1 16 2 15 3 14 3 15 4 14 5 14 5 14 6 13 6 12 7 12 8 12 8 12 9 11 9 11 9 10 10 10 11 10 11 9 11 8 12 8 12 7 13 6 13 6 13 5 14 5 14 4 15 3 15 3 15 2 16 1 16 0 0 0zm0 968l0 -968 25 1 25 2 24 3 24 4 23 5 23 7 23 8 22 9 22 10 21 11 20 12 20 13 19 13 18 14 18 15 17 16 16 17 15 18 14 18 13 19 13 20 12 20 11 21 10 22 9 22 8 23 7 23 5 23 4 24 3 24 2 25 1 25 -1 25 -2 25 -3 24 -4 24 -5 23 -7 23 -8 23 -9 22 -10 22 -11 21 -12 20 -13 20 -13 19 -14 18 -15 18 -16 17 -17 16 -18 15 -18 14 -19 13 -20 13 -20 12 -21 11 -22 10 -22 9 -23 8 -23 7 -23 5 -24 4 -24 3 -25 2 -25 1zm296 -1264l968 0 0 0 -2 64 -5 64 -8 64 -11 62 -14 61 -17 61 -20 59 -23 57 -25 57 -28 55 -30 53 -33 52 -35 49 -37 48 -40 46 -42 44 -44 42 -46 40 -48 37 -50 35 -52 33 -53 31 -54 28 -56 25 -58 23 -59 20 -61 17 -61 14 -62 11 -64 8 -64 5 -65 2 0 -968 16 0 16 -1 15 -2 15 -3 15 -3 14 -4 14 -5 13 -5 13 -6 13 -7 12 -7 12 -7 11 -8 11 -9 11 -10 10 -10 10 -10 9 -11 9 -12 8 -12 7 -12 7 -13 6 -12 6 -13 5 -14 5 -14 4 -14 3 -15 3 -15 2 -15 1 -16 0 -16 0 0zm968 0l-968 0 1 -25 2 -25 3 -24 4 -24 5 -23 7 -23 8 -23 9 -22 10 -22 11 -21 12 -20 13 -20 13 -19 14 -18 15 -18 16 -17 17 -16 18 -15 18 -14 19 -13 20 -13 20 -12 21 -11 22 -10 22 -9 23 -8 23 -7 23 -5 24 -4 24 -3 25 -2 25 -1 25 1 25 2 24 3 24 4 23 5 23 7 23 8 22 9 22 10 21 11 20 12 20 13 19 13 18 14 18 15 17 16 16 17 15 18 14 18 13 19 13 20 12 20 11 21 10 22 9 22 8 23 7 23 5 23 4 24 3 24 2 25 1 25zm-1264 -295l0 -968 0 0 65 2 64 5 63 8 63 11 61 14 60 17 59 20 57 23 56 25 55 28 53 31 51 33 50 35 48 37 46 39 44 42 42 44 40 46 37 47 35 50 33 52 30 53 28 55 25 57 23 57 20 59 17 61 14 61 11 62 8 64 5 64 2 64 -968 0 0 -16 -1 -16 -2 -15 -3 -15 -3 -15 -4 -14 -5 -14 -5 -14 -6 -13 -6 -12 -7 -13 -8 -12 -8 -11 -9 -12 -9 -11 -9 -10 -10 -10 -11 -9 -11 -9 -11 -8 -12 -8 -12 -7 -12 -6 -13 -6 -14 -5 -13 -5 -14 -4 -15 -3 -14 -3 -15 -2 -16 -1 -16 0 0 0zm0 -968l0 968 -25 -1 -25 -2 -24 -3 -24 -4 -23 -5 -23 -7 -23 -8 -22 -9 -22 -10 -21 -11 -20 -12 -20 -13 -19 -13 -18 -14 -18 -15 -17 -16 -16 -17 -15 -18 -14 -18 -13 -19 -13 -20 -12 -20 -11 -21 -10 -22 -9 -22 -8 -23 -7 -23 -5 -23 -4 -24 -3 -24 -2 -25 -1 -25 1 -25 2 -25 3 -24 4 -24 5 -23 7 -23 8 -23 9 -22 10 -22 11 -21 12 -20 13 -20 13 -19 14 -18 15 -18 16 -17 17 -16 18 -15 18 -14 19 -13 20 -13 20 -12 21 -11 22 -10 22 -9 23 -8 23 -7 23 -5 24 -4 24 -3 25 -2 25 -1z"/>
    <path id="1" class="fil3" d="M17929 2602l-4731 5311 1656 138c-1030,919 -4243,3854 -5496,2604 -1252,-1250 1451,-4179 2236,-5215l-118 1728 6454 -4566zm-7712 6400c-433,0 -779,346 -779,779 0,433 346,780 779,780 433,0 780,-347 780,-780 0,-433 -347,-779 -780,-779z"/>
   </g>
  </g>
 </g>
</svg>
