<?xml version="1.0" encoding="UTF-8"?>
<!DOCTYPE svg PUBLIC "-//W3C//DTD SVG 1.1//EN" "http://www.w3.org/Graphics/SVG/1.1/DTD/svg11.dtd">
<!-- Creator: CorelDRAW X5 -->
<svg xmlns="http://www.w3.org/2000/svg" xml:space="preserve" width="20mm" height="20mm" style="shape-rendering:geometricPrecision; text-rendering:geometricPrecision; image-rendering:optimizeQuality; fill-rule:evenodd; clip-rule:evenodd"
viewBox="0 0 20000 20000"
 xmlns:xlink="http://www.w3.org/1999/xlink">
 <defs>
  <style type="text/css">
   <![CDATA[
    .fil3 {fill:#2A2A29}
    .fil0 {fill:#DADADA}
    .fil1 {fill:#2A2A29;fill-rule:nonzero}
    .fil2 {fill:#DADADA;fill-rule:nonzero}
   ]]>
  </style>
 </defs>
 <g id="Слой_x0020_1">
  <metadata id="CorelCorpID_0Corel-Layer"/>
  <g id="_355547488">
   <rect class="fil0" x="318" y="318" width="19363" height="19363" rx="2169" ry="2169"/>
   <path class="fil1" d="M2488 0l15025 0c683,0 1305,280 1756,731l1 -1c451,451 730,1073 730,1757l0 15025c0,683 -280,1305 -730,1756l-1 1 -1 1 -1 1c-451,450 -1073,730 -1755,730l-15025 0c-684,0 -1306,-280 -1757,-731 -6,-6 -12,-13 -18,-19 -440,-450 -713,-1064 -713,-1738l0 -15025c0,-684 280,-1307 730,-1757 451,-451 1073,-730 1757,-730zm15025 637l-15025 0c-509,0 -971,209 -1307,544 -336,336 -544,798 -544,1307l0 15025c0,502 202,959 528,1292l16 15c336,336 798,544 1307,544l15025 0c510,0 972,-208 1307,-543l1 -1c335,-335 543,-797 543,-1307l0 -15025c0,-509 -208,-972 -544,-1307l1 -1 -1 -1c-335,-335 -797,-543 -1307,-543z"/>
   <path class="fil1" d="M10000 3081c1911,0 3640,775 4892,2027 1252,1252 2027,2982 2027,4893 0,1911 -774,3640 -2027,4892 -1252,1252 -2982,2027 -4892,2027 -1911,0 -3640,-775 -4893,-2027 -1252,-1252 -2027,-2982 -2027,-4892 0,-1911 775,-3640 2027,-4893 1252,-1252 2982,-2027 4893,-2027zm4420 2499c-1131,-1131 -2694,-1831 -4420,-1831 -1726,0 -3289,700 -4420,1831 -1131,1131 -1831,2694 -1831,4420 0,1726 700,3289 1831,4420 1131,1131 2694,1831 4420,1831 1726,0 3289,-700 4420,-1831 1131,-1131 1831,-2694 1831,-4420 0,-1726 -700,-3289 -1831,-4420z"/>
   <path class="fil1" d="M10332 1503l-372 5247 5921 -3080c164,-85 365,-21 450,142 76,147 33,324 -96,421l-3966 3441 6366 2009c176,56 273,243 218,419 -49,155 -200,249 -356,231l-5247 -372 3080 5921c85,164 21,365 -142,450 -147,76 -324,33 -421,-96l-3441 -3966 -2009 6366c-55,176 -243,273 -419,218 -155,-49 -249,-200 -231,-356l372 -5247 -5921 3080c-164,85 -365,21 -450,-142 -76,-147 -33,-324 96,-421l3966 -3441 -6366 -2009c-176,-55 -273,-243 -218,-419 49,-155 200,-249 356,-231l5247 372 -3080 -5921c-85,-164 -21,-365 142,-450 147,-76 324,-33 421,96l3441 3966 2009 -6366c56,-176 243,-273 419,-218 155,49 249,200 231,356zm-1079 5794l215 -3036 -1338 4238 -1 0c-18,57 -51,110 -100,152 -139,120 -349,105 -470,-34l-1996 -2300 2052 3945 0 0c28,53 41,114 37,177 -13,184 -172,322 -356,309l-3036 -215 4238 1338 0 1c57,18 110,51 152,100 120,139 105,349 -34,470l-2300 1996 3945 -2052 0 0c53,-28 114,-41 177,-37 184,13 322,172 309,356l-215 3036 1338 -4238 1 0c18,-57 51,-110 100,-152 139,-120 349,-105 470,34l1996 2300 -2052 -3945 0 0c-28,-53 -41,-114 -37,-177 13,-184 172,-322 356,-309l3036 215 -4238 -1338 0 -1c-57,-18 -110,-51 -152,-100 -120,-139 -105,-349 34,-470l2300 -1996 -3945 2052 0 0c-53,28 -114,41 -177,37 -184,-13 -322,-172 -309,-356z"/>
   <g>
    <path class="fil2" d="M10358 5842l-1110 -83 528 -515 6 0 6 0 10 -1 6 0 6 0 6 0 6 0 6 0 6 0 11 0 6 0 6 0 6 0 11 0 6 0 2 0 11 0 11 0 2 0 6 0 11 0 6 0 6 0 11 0 6 0 2 0 11 0 6 0 6 0 11 0 6 0 6 0 0 1113 -6 0 -6 0 -2 0 -6 0 -6 0 -2 0 -11 0 -6 0 -2 0 -6 0 -6 0 -2 0 -6 0 -11 0 -2 0 -2 0 -11 0 -6 0 -2 0 -6 0 -6 0 -6 0 -2 0 -6 0 -6 0 -6 0 -6 0 -6 0 -6 0 -2 0 -6 0 -6 0 528 -515zm-582 -597l54 1112 -29 1 -28 -1 -28 -2 -28 -4 -27 -5 -27 -6 -26 -8 -26 -9 -25 -10 -25 -11 -24 -12 -23 -13 -23 -15 -22 -16 -21 -16 -20 -18 -19 -18 -19 -19 -18 -20 -17 -21 -16 -22 -15 -23 -14 -23 -12 -24 -11 -25 -10 -25 -9 -26 -8 -27 -6 -27 -5 -28 -4 -28 -2 -29 -1 -29 1 -28 2 -28 4 -28 5 -27 6 -27 8 -26 9 -26 10 -25 11 -25 12 -24 13 -23 15 -23 16 -22 16 -21 18 -20 18 -19 19 -19 20 -18 21 -17 22 -16 23 -15 23 -14 24 -12 25 -11 25 -10 26 -9 27 -8 27 -6 28 -5 28 -4 29 -2zm-577 1175l49 -660 1110 83 -49 660 -512 514 -598 -596zm0 0l1110 83 -3 29 -4 28 -6 28 -7 27 -8 26 -9 26 -11 25 -12 25 -13 24 -14 23 -15 22 -16 21 -17 21 -18 20 -19 19 -20 18 -21 17 -21 16 -22 15 -23 14 -24 13 -24 12 -25 11 -25 9 -26 8 -26 7 -27 6 -27 4 -28 3 -28 2 -28 0 -29 -1 -29 -3 -28 -4 -28 -6 -27 -7 -26 -8 -26 -9 -25 -11 -25 -12 -24 -13 -23 -14 -22 -15 -21 -16 -21 -17 -20 -18 -19 -19 -18 -20 -17 -21 -16 -21 -15 -22 -14 -23 -13 -24 -12 -24 -11 -25 -9 -25 -8 -26 -7 -26 -6 -27 -4 -27 -3 -28 -2 -28 0 -28 1 -29zm-729 434l1003 -483 -668 -289 28 -9 27 -8 28 -8 29 -8 28 -8 28 -8 28 -7 29 -7 29 -7 28 -7 29 -7 28 -6 29 -6 29 -6 28 -6 29 -6 28 -5 28 -5 29 -5 29 -5 29 -5 28 -4 28 -4 29 -4 29 -4 28 -3 28 -3 29 -3 29 -3 28 -3 28 -3 29 -2 86 1110 -20 2 -21 2 -21 2 -20 2 -20 2 -21 3 -21 3 -20 3 -20 3 -21 3 -21 3 -20 3 -20 3 -20 4 -21 4 -21 4 -20 4 -21 4 -20 4 -20 5 -21 5 -20 5 -21 5 -20 5 -20 5 -21 6 -21 6 -21 6 -20 6 -20 6 -21 6 -20 6 -668 -289zm335 -773l333 1062 -28 8 -28 6 -28 5 -28 4 -28 2 -28 1 -27 -1 -27 -2 -27 -3 -27 -5 -26 -6 -26 -7 -26 -8 -25 -10 -25 -11 -24 -12 -23 -13 -23 -14 -22 -15 -21 -16 -21 -17 -20 -18 -19 -19 -18 -20 -17 -21 -16 -22 -15 -23 -14 -24 -13 -25 -12 -26 -11 -26 -9 -27 -8 -28 -6 -28 -5 -28 -4 -28 -2 -28 -1 -28 1 -27 2 -27 3 -27 5 -27 6 -26 7 -26 8 -26 10 -25 11 -25 12 -24 13 -23 14 -23 15 -22 16 -21 17 -21 18 -20 19 -19 20 -18 21 -17 22 -16 23 -15 24 -14 25 -13 26 -12 26 -11 27 -9zm376 -316l292 605 -1003 483 -292 -605 327 -770 676 287zm0 0l-1003 483 -12 -26 -10 -26 -9 -27 -8 -27 -6 -27 -5 -27 -3 -27 -2 -27 -1 -27 1 -27 2 -27 3 -27 5 -26 6 -26 7 -26 8 -25 9 -25 11 -25 12 -24 13 -24 14 -23 15 -22 16 -22 17 -21 18 -20 20 -19 21 -18 22 -17 23 -16 24 -15 25 -14 26 -13 26 -12 26 -10 27 -9 27 -8 27 -6 27 -5 27 -3 27 -2 27 -1 27 1 27 2 27 3 26 5 26 6 26 7 25 8 25 9 25 11 24 12 24 13 23 14 22 15 22 16 21 17 20 18 19 20 18 21 17 22 16 23 15 24 14 25 13 26zm-942 447l-1002 484 202 -711 31 -20 31 -19 31 -19 32 -19 32 -19 33 -19 32 -18 32 -18 33 -18 32 -17 33 -17 32 -17 33 -17 33 -16 33 -16 34 -16 33 -16 34 -16 34 -15 34 -15 34 -15 34 -14 35 -15 35 -14 35 -14 34 -13 34 -13 35 -13 36 -13 35 -12 35 -12 36 -12 349 1057 -27 9 -28 10 -27 9 -27 10 -27 10 -27 10 -27 10 -26 10 -26 11 -26 11 -27 11 -27 12 -26 11 -26 12 -26 12 -26 12 -25 12 -26 13 -25 13 -25 13 -26 13 -25 13 -25 13 -24 13 -25 14 -25 14 -24 14 -24 14 -24 15 -24 15 -24 15 -24 15 202 -711zm-801 -227l599 938 -25 15 -25 13 -25 12 -26 11 -26 9 -26 8 -27 7 -27 5 -27 4 -27 3 -27 1 -27 0 -27 -1 -27 -3 -27 -4 -26 -5 -26 -6 -26 -8 -25 -9 -25 -10 -24 -11 -24 -13 -23 -14 -23 -15 -22 -16 -21 -17 -21 -18 -20 -19 -19 -20 -18 -22 -17 -23 -16 -24 -15 -25 -13 -25 -12 -25 -11 -26 -9 -26 -8 -26 -7 -27 -5 -27 -4 -27 -3 -27 -1 -27 0 -27 1 -27 3 -27 4 -27 5 -26 6 -26 8 -26 9 -25 10 -25 11 -24 13 -24 14 -23 15 -23 16 -22 17 -21 18 -21 19 -20 20 -19 22 -18 23 -17 24 -16zm93 1323l-295 -612 1002 -484 295 612 -189 702 -814 -219zm0 0l1002 -484 12 26 10 26 9 27 8 27 6 27 5 27 3 27 2 27 1 27 -1 27 -2 27 -3 27 -5 26 -6 26 -7 26 -8 25 -9 25 -11 25 -12 24 -13 24 -14 23 -15 22 -16 22 -17 21 -19 20 -19 19 -21 18 -22 17 -23 16 -24 15 -25 14 -26 13 -26 12 -26 10 -27 9 -27 8 -27 6 -27 5 -27 3 -27 2 -27 1 -27 -1 -27 -2 -27 -3 -26 -5 -26 -6 -26 -7 -25 -8 -25 -9 -25 -11 -24 -12 -24 -13 -23 -14 -22 -15 -22 -16 -21 -17 -20 -19 -19 -19 -18 -21 -17 -22 -16 -23 -15 -24 -14 -25 -13 -26zm-421 742l626 -920 -722 83 20 -21 20 -22 19 -20 20 -21 21 -21 20 -20 21 -20 21 -20 21 -21 21 -20 21 -19 22 -20 21 -19 21 -19 22 -19 23 -20 23 -19 22 -18 22 -19 23 -19 22 -18 23 -18 24 -19 23 -18 23 -18 24 -18 24 -18 24 -18 23 -17 23 -17 25 -17 25 -17 625 921 -18 12 -17 12 -18 13 -18 13 -17 12 -17 12 -17 13 -17 13 -17 13 -16 13 -17 13 -17 14 -16 13 -16 14 -17 14 -16 13 -16 13 -16 14 -16 15 -16 14 -15 14 -16 15 -15 14 -15 14 -15 15 -15 15 -15 15 -14 14 -15 15 -15 16 -14 15 -14 15 -722 83zm-96 -838l818 755 -20 21 -21 19 -22 18 -22 17 -23 16 -24 14 -24 13 -25 12 -25 11 -25 9 -26 8 -26 7 -26 6 -26 4 -27 3 -27 2 -27 0 -27 -1 -27 -2 -27 -3 -26 -5 -26 -6 -26 -7 -26 -9 -25 -10 -25 -11 -25 -12 -24 -14 -23 -15 -23 -16 -22 -18 -22 -19 -21 -20 -19 -21 -18 -22 -17 -22 -16 -23 -14 -24 -13 -24 -12 -25 -11 -25 -9 -25 -8 -26 -7 -26 -6 -26 -4 -26 -3 -27 -2 -27 0 -27 1 -27 2 -27 3 -27 5 -26 6 -26 7 -26 9 -26 10 -25 11 -25 12 -25 14 -24 15 -23 16 -23 18 -22 19 -22zm156 -468l566 385 -626 920 -566 -385 -103 -830 729 -90zm0 0l-626 920 -23 -17 -22 -18 -21 -19 -20 -19 -19 -20 -18 -21 -17 -22 -15 -23 -14 -23 -13 -24 -12 -24 -11 -25 -9 -25 -8 -26 -7 -26 -6 -26 -4 -26 -3 -27 -2 -27 -1 -27 1 -27 2 -27 3 -27 5 -27 6 -27 7 -26 9 -26 10 -26 11 -25 13 -25 14 -25 16 -24 17 -23 18 -22 19 -21 19 -20 20 -19 21 -18 22 -17 23 -15 23 -14 24 -13 24 -12 25 -11 25 -9 26 -8 26 -7 26 -6 26 -4 27 -3 27 -2 27 -1 27 1 27 2 27 3 27 5 27 6 26 7 26 9 26 10 25 11 25 13 25 14 24 16zm-591 858l-626 920 -181 -717 17 -33 18 -33 17 -32 18 -33 19 -33 18 -31 19 -33 19 -32 19 -32 20 -32 20 -31 20 -31 20 -31 20 -31 21 -31 21 -30 21 -30 22 -31 22 -30 22 -30 22 -30 22 -29 22 -29 23 -30 23 -29 23 -29 23 -28 24 -28 24 -28 24 -28 24 -28 25 -28 831 740 -18 21 -19 21 -19 22 -18 22 -18 22 -18 22 -18 22 -17 22 -17 22 -18 23 -18 23 -16 22 -17 23 -17 23 -16 23 -17 24 -16 23 -15 23 -16 24 -16 24 -15 24 -15 24 -15 24 -15 24 -15 24 -14 24 -15 25 -14 24 -13 24 -14 26 -13 25 -13 25 -181 -717zm-807 204l988 513 -14 25 -15 24 -16 23 -17 22 -18 21 -19 20 -20 19 -21 18 -21 17 -22 16 -23 15 -23 13 -24 12 -24 11 -25 10 -25 9 -26 8 -26 6 -26 5 -27 4 -27 2 -27 1 -27 0 -27 -1 -27 -3 -27 -4 -27 -6 -27 -7 -27 -8 -26 -10 -26 -11 -26 -13 -25 -14 -24 -15 -23 -16 -22 -17 -21 -18 -20 -19 -19 -20 -18 -21 -17 -21 -16 -22 -15 -23 -13 -23 -12 -24 -11 -24 -10 -25 -9 -25 -8 -26 -6 -26 -5 -26 -4 -27 -2 -27 -1 -27 0 -27 1 -27 3 -27 4 -27 6 -27 7 -27 8 -27 10 -26 11 -26 13 -26zm752 1105l-571 -389 626 -920 571 389 188 703 -814 218zm0 0l626 -920 23 17 22 18 21 19 20 19 19 20 18 21 17 22 15 22 14 23 13 24 12 24 11 25 9 25 8 26 7 26 6 26 4 26 3 27 2 27 1 27 -1 27 -2 27 -3 27 -5 27 -6 27 -7 26 -9 26 -10 26 -11 25 -13 25 -14 25 -16 24 -17 23 -18 22 -19 21 -19 20 -20 19 -21 18 -22 17 -22 15 -23 14 -24 13 -24 12 -25 11 -25 9 -26 8 -26 7 -26 6 -26 4 -27 3 -27 2 -27 1 -27 -1 -27 -2 -27 -3 -27 -5 -27 -6 -26 -7 -26 -9 -26 -10 -25 -11 -25 -13 -25 -14 -24 -16zm4 859l83 -1110 -584 432 7 -29 7 -28 7 -29 7 -28 7 -28 8 -30 8 -28 8 -28 8 -28 8 -28 9 -29 9 -29 9 -28 9 -27 9 -26 10 -28 10 -29 10 -27 10 -28 10 -27 10 -27 11 -28 11 -27 11 -27 12 -28 12 -27 11 -26 12 -27 12 -26 12 -27 13 -27 13 -26 1002 485 -10 20 -9 18 -9 20 -9 20 -8 19 -9 20 -8 20 -8 19 -8 20 -8 20 -8 19 -8 20 -8 20 -7 20 -7 21 -7 19 -7 20 -7 22 -7 21 -6 20 -6 20 -6 20 -6 21 -6 21 -6 21 -6 21 -5 19 -6 22 -6 21 -5 20 -5 22 -5 21 -584 432zm-501 -678l1085 246 -7 28 -8 27 -10 26 -11 26 -12 25 -13 24 -14 23 -15 22 -16 22 -17 21 -18 20 -19 19 -20 18 -21 17 -22 16 -22 15 -23 14 -24 13 -24 12 -25 10 -25 9 -26 8 -26 7 -27 5 -27 4 -27 3 -27 1 -28 0 -28 -1 -28 -3 -28 -4 -28 -6 -28 -7 -27 -8 -26 -10 -26 -11 -25 -12 -24 -13 -23 -14 -22 -15 -22 -16 -21 -17 -20 -18 -19 -19 -18 -20 -17 -21 -16 -22 -15 -22 -14 -23 -13 -24 -12 -24 -10 -25 -9 -25 -8 -26 -7 -26 -5 -27 -4 -27 -3 -27 -1 -27 0 -28 1 -28 3 -28 4 -28 6 -28zm-108 -483l692 51 -83 1110 -692 -51 -504 -664 587 -446zm0 0l-83 1110 -29 -3 -28 -4 -28 -6 -27 -7 -26 -8 -26 -9 -25 -11 -25 -12 -24 -13 -23 -14 -22 -15 -21 -16 -21 -17 -20 -18 -19 -19 -18 -20 -17 -21 -16 -21 -15 -22 -14 -23 -13 -24 -12 -24 -11 -25 -9 -25 -8 -26 -7 -26 -6 -27 -4 -27 -3 -28 -2 -28 0 -28 1 -29 3 -29 4 -28 6 -28 7 -27 8 -26 9 -26 11 -25 12 -25 13 -24 14 -23 15 -22 16 -21 17 -21 18 -20 19 -19 20 -18 21 -17 21 -16 22 -15 23 -14 24 -13 24 -12 25 -11 25 -9 26 -8 26 -7 27 -6 27 -4 28 -3 28 -2 28 0 29 1zm432 1391l-1113 0 0 0 0 -30 0 -31 1 -30 1 -30 1 -31 1 -30 1 -30 1 -30 2 -31 2 -30 2 -30 2 -31 2 -30 3 -30 3 -29 3 -30 3 -30 3 -29 3 -28 4 -29 4 -30 4 -30 4 -28 4 -29 5 -30 5 -28 5 -29 5 -30 5 -29 5 -28 6 -29 6 -29 1091 218 -4 22 -4 22 -4 23 -4 22 -4 22 -4 22 -4 23 -3 21 -3 23 -3 24 -3 21 -3 22 -3 23 -3 24 -3 23 -2 22 -2 23 -2 23 -2 23 -2 23 -2 22 -2 23 -1 23 -1 22 -1 23 -1 23 -1 23 -1 23 -1 24 0 24 0 23 0 24 0 0zm-1113 0l1113 0 -1 29 -2 28 -4 28 -5 27 -6 27 -8 26 -9 26 -10 25 -11 25 -12 24 -13 23 -15 23 -16 22 -17 21 -18 20 -18 19 -19 18 -20 18 -21 17 -22 16 -23 15 -23 13 -24 12 -25 11 -25 10 -26 9 -26 8 -27 6 -27 5 -28 4 -28 2 -29 1 -29 -1 -28 -2 -28 -4 -27 -5 -27 -6 -26 -8 -26 -9 -25 -10 -25 -11 -24 -12 -23 -13 -23 -15 -22 -16 -21 -17 -20 -18 -19 -18 -18 -19 -18 -20 -17 -21 -16 -22 -15 -23 -13 -23 -12 -24 -11 -25 -10 -25 -9 -26 -8 -26 -6 -27 -5 -27 -4 -28 -2 -28 -1 -29zm602 -352l-82 1110 -515 -529 0 -6 0 -6 -1 -11 0 -6 0 -6 0 -6 0 -6 0 -11 0 -2 0 -6 0 -11 0 -11 0 -6 0 -2 0 -6 0 -11 0 -11 0 -2 0 -6 0 -11 0 -6 0 -7 0 -6 0 -6 0 -11 0 -6 0 -7 0 -6 0 -6 0 -11 0 -6 0 -6 1113 0 0 6 0 6 0 2 0 7 0 6 0 6 0 6 0 2 0 6 0 7 0 6 0 6 0 2 0 6 0 11 0 2 0 2 0 6 0 11 0 6 0 2 0 2 0 7 0 11 0 2 0 6 0 6 0 7 0 6 0 2 0 6 0 6 -515 -529zm-597 581l1112 -53 1 29 -1 28 -2 28 -4 28 -5 27 -6 27 -8 26 -9 26 -10 25 -11 25 -12 24 -13 23 -15 23 -16 22 -17 21 -18 20 -18 19 -19 18 -20 18 -21 17 -22 16 -23 15 -23 13 -24 12 -25 11 -25 10 -26 9 -27 8 -27 6 -28 5 -28 4 -29 2 -29 1 -28 -1 -28 -2 -28 -4 -27 -5 -27 -6 -26 -8 -26 -9 -25 -10 -25 -11 -24 -12 -23 -13 -23 -15 -22 -16 -21 -17 -20 -18 -19 -18 -18 -19 -18 -20 -17 -21 -16 -22 -15 -23 -13 -23 -12 -24 -11 -25 -10 -25 -9 -26 -8 -27 -6 -27 -5 -28 -4 -28 -2 -29zm1206 580l-691 -51 82 -1110 691 51 514 514 -596 596zm0 0l82 -1110 29 3 28 4 28 6 27 7 26 8 26 9 25 11 25 12 24 13 23 14 22 15 22 16 21 17 20 18 19 19 18 20 17 21 16 21 15 22 14 23 13 24 12 24 11 25 9 25 8 26 7 26 6 27 4 27 3 28 2 28 0 28 -1 29 -3 29 -4 28 -6 28 -7 27 -8 26 -9 26 -11 25 -12 25 -13 24 -14 23 -15 22 -16 22 -17 21 -18 20 -19 19 -20 18 -21 17 -21 16 -22 15 -23 14 -24 13 -24 12 -25 11 -25 9 -26 8 -26 7 -27 6 -27 4 -28 3 -28 2 -28 0 -29 -1zm432 737l-484 -1002 -290 666 -9 -29 -8 -29 -8 -28 -8 -29 -8 -29 -8 -28 -7 -29 -7 -29 -7 -28 -7 -29 -7 -29 -6 -28 -6 -29 -6 -29 -6 -28 -6 -29 -5 -29 -5 -28 -5 -28 -5 -29 -4 -29 -4 -28 -4 -29 -4 -29 -4 -28 -3 -28 -3 -29 -3 -29 -3 -28 -3 -28 -3 -29 -2 -29 1110 -82 2 21 2 20 2 21 2 21 2 21 2 20 3 22 3 22 3 20 3 20 3 21 3 21 3 20 4 21 4 22 4 20 4 21 4 21 4 21 4 20 5 21 5 20 5 21 5 21 5 20 5 21 6 22 6 20 6 20 6 22 6 21 6 20 -290 666zm-773 -336l1063 -330 8 28 6 28 5 28 3 28 2 28 1 28 -1 27 -2 27 -3 27 -5 27 -6 26 -7 26 -8 26 -10 25 -11 24 -12 24 -13 23 -14 23 -15 22 -16 21 -17 21 -18 20 -19 19 -20 18 -21 17 -22 16 -23 15 -24 14 -25 13 -26 12 -26 10 -27 9 -28 8 -28 6 -28 5 -28 3 -28 2 -28 1 -27 -1 -27 -2 -27 -3 -27 -5 -26 -6 -26 -7 -26 -8 -25 -10 -24 -11 -24 -12 -23 -13 -23 -14 -22 -15 -21 -16 -21 -17 -20 -18 -19 -19 -18 -20 -17 -21 -16 -22 -15 -23 -14 -24 -13 -25 -12 -26 -10 -26 -9 -27zm-336 -364l626 -302 484 1002 -626 302 -769 -323 286 -679zm0 0l484 1002 -26 12 -26 10 -27 9 -27 8 -27 6 -27 5 -27 3 -27 2 -27 1 -27 -1 -27 -2 -27 -3 -26 -5 -26 -6 -26 -7 -25 -8 -25 -9 -25 -11 -24 -12 -23 -13 -23 -14 -22 -15 -22 -16 -21 -17 -20 -18 -19 -20 -18 -21 -17 -22 -16 -23 -15 -24 -14 -25 -13 -26 -12 -26 -10 -26 -9 -27 -8 -27 -6 -27 -5 -27 -3 -27 -2 -27 -1 -27 1 -27 2 -27 3 -27 5 -26 6 -26 7 -26 8 -25 9 -25 11 -25 12 -24 13 -23 14 -23 15 -22 16 -22 17 -21 18 -20 20 -19 21 -18 22 -17 23 -16 24 -15 25 -14 26 -13zm453 938l484 1002 -709 -199 -20 -31 -20 -31 -19 -31 -19 -32 -19 -31 -19 -32 -18 -32 -18 -32 -18 -33 -18 -32 -17 -33 -17 -33 -17 -32 -17 -33 -17 -34 -16 -33 -16 -33 -16 -34 -15 -34 -15 -34 -15 -35 -14 -34 -14 -34 -14 -35 -14 -34 -14 -35 -13 -35 -13 -34 -13 -36 -13 -35 -12 -35 -12 -36 1055 -356 9 27 10 28 10 27 10 26 10 27 10 27 10 26 11 27 11 26 11 26 11 27 11 25 12 26 12 26 12 25 12 26 13 26 12 25 13 25 13 26 13 25 13 25 14 25 13 24 14 25 14 25 14 24 15 25 14 24 15 24 15 24 15 24 -709 -199zm-226 803l935 -604 15 24 14 25 12 25 11 26 9 26 8 26 7 26 5 27 4 27 3 27 1 27 0 27 -1 27 -3 27 -4 27 -5 26 -6 26 -8 26 -9 25 -10 25 -11 24 -12 24 -14 23 -15 23 -16 22 -17 21 -18 21 -19 20 -20 19 -22 18 -23 17 -24 16 -24 15 -25 14 -25 12 -26 11 -26 9 -26 8 -26 7 -27 5 -27 4 -27 3 -27 1 -27 0 -27 -1 -27 -3 -27 -4 -26 -5 -26 -6 -26 -8 -25 -9 -25 -10 -24 -11 -24 -12 -23 -14 -23 -15 -22 -16 -21 -17 -21 -18 -20 -19 -19 -20 -18 -22 -17 -23 -16 -24zm1334 -102l-624 301 -484 -1002 624 -301 703 190 -219 813zm0 0l-484 -1002 26 -12 26 -10 27 -9 27 -8 27 -6 27 -5 27 -3 27 -2 27 -1 27 1 27 2 27 3 26 5 26 6 26 7 25 8 25 9 25 11 24 12 24 13 23 14 22 15 22 16 21 17 20 19 19 19 18 21 17 22 16 23 15 24 14 25 13 26 12 26 10 26 9 27 8 27 6 27 5 27 3 27 2 27 1 27 -1 27 -2 27 -3 27 -5 26 -6 26 -7 26 -8 25 -9 25 -11 25 -12 24 -13 24 -14 23 -15 22 -16 22 -17 21 -19 20 -19 19 -21 18 -22 17 -23 16 -24 15 -25 14 -26 13zm738 420l-920 -626 81 721 -21 -19 -21 -20 -21 -20 -20 -20 -21 -21 -20 -20 -21 -21 -20 -21 -19 -20 -20 -22 -20 -22 -19 -21 -19 -21 -19 -22 -19 -22 -19 -23 -19 -22 -19 -22 -18 -22 -19 -23 -19 -23 -18 -22 -18 -23 -18 -23 -18 -23 -17 -23 -18 -24 -17 -24 -17 -24 -17 -24 -16 -23 -17 -25 922 -623 12 17 13 18 12 18 12 17 13 18 12 17 13 17 13 17 13 17 13 17 14 17 13 16 13 16 14 17 14 16 14 16 13 15 14 16 14 16 14 16 15 16 14 15 14 15 16 16 15 15 14 14 15 15 14 14 16 15 15 14 15 14 15 14 81 721zm-839 95l758 -815 21 20 19 21 18 22 17 22 15 23 14 24 13 24 12 25 11 25 9 25 8 26 7 26 5 26 4 26 3 27 2 27 0 27 -1 27 -2 27 -4 27 -5 26 -6 26 -7 26 -9 26 -10 25 -11 25 -13 24 -14 24 -15 23 -16 23 -18 22 -19 22 -20 21 -21 19 -22 18 -22 17 -23 15 -24 14 -24 13 -25 12 -25 11 -25 9 -26 8 -26 7 -26 5 -26 4 -27 3 -27 2 -27 0 -27 -1 -27 -2 -27 -4 -26 -5 -26 -6 -26 -7 -26 -9 -25 -10 -25 -11 -24 -13 -24 -14 -23 -15 -23 -16 -22 -18 -22 -19zm-469 -151l388 -570 920 626 -388 570 -827 105 -93 -731zm0 0l920 626 -17 23 -18 22 -19 21 -19 20 -20 19 -21 18 -22 17 -22 15 -23 14 -24 13 -24 12 -25 11 -25 9 -26 8 -26 7 -26 6 -26 4 -27 3 -27 2 -27 1 -27 -1 -27 -2 -27 -3 -27 -5 -27 -6 -26 -7 -26 -9 -26 -10 -25 -11 -25 -13 -25 -14 -24 -16 -23 -17 -22 -18 -21 -19 -20 -19 -19 -20 -18 -21 -17 -22 -15 -22 -14 -23 -13 -24 -12 -24 -11 -25 -9 -25 -8 -26 -7 -26 -6 -26 -4 -26 -3 -27 -2 -27 -1 -27 1 -27 2 -27 3 -27 5 -27 6 -27 7 -26 9 -26 10 -26 11 -25 13 -25 14 -25 16 -24zm862 586l920 626 -713 183 -33 -17 -34 -18 -33 -18 -32 -18 -33 -18 -32 -18 -32 -18 -33 -19 -31 -19 -32 -19 -32 -20 -31 -20 -31 -20 -32 -21 -31 -20 -31 -21 -31 -21 -30 -21 -30 -21 -30 -22 -30 -22 -30 -22 -29 -22 -29 -22 -30 -23 -29 -23 -28 -23 -29 -24 -28 -24 -28 -24 -28 -24 -27 -24 734 -836 22 19 21 18 22 18 22 18 22 18 23 18 23 18 21 17 23 17 23 18 23 17 23 17 23 17 24 17 23 16 23 16 24 16 24 16 23 15 24 16 24 15 24 15 24 15 25 15 24 14 25 14 25 14 24 14 26 14 25 14 25 13 26 13 -713 183zm207 809l506 -992 25 14 24 15 23 16 22 17 21 18 20 19 19 20 18 20 17 21 16 22 15 23 14 23 12 24 11 24 10 25 9 25 8 26 6 26 5 26 4 27 3 27 1 27 0 27 -1 27 -3 27 -4 27 -5 27 -7 27 -8 27 -10 26 -11 26 -12 26 -14 25 -15 24 -16 23 -17 22 -18 21 -19 20 -20 19 -20 18 -21 17 -22 16 -23 15 -23 14 -24 12 -24 11 -25 10 -25 9 -26 8 -26 6 -26 5 -27 4 -27 3 -27 1 -27 0 -27 -1 -27 -3 -27 -4 -27 -5 -27 -7 -27 -8 -26 -10 -26 -11 -26 -12zm1098 -748l-385 566 -920 -626 385 -566 704 -187 216 813zm0 0l-920 -626 17 -23 18 -22 19 -21 19 -20 20 -19 21 -18 22 -17 23 -15 23 -14 24 -13 24 -12 25 -11 25 -9 25 -8 26 -7 26 -6 26 -4 27 -3 27 -2 27 -1 27 1 27 2 27 3 27 5 27 6 26 7 26 9 26 10 25 11 25 13 25 14 24 16 23 17 22 18 21 19 20 19 19 20 18 21 17 22 15 23 14 23 13 24 12 24 11 25 9 25 8 25 7 26 6 26 4 26 3 27 2 27 1 27 -1 27 -2 27 -3 27 -5 27 -6 27 -7 26 -9 26 -10 26 -11 25 -13 25 -14 25 -16 24zm859 -2l-1110 -83 431 584 -29 -7 -28 -7 -29 -7 -29 -7 -28 -7 -28 -8 -29 -8 -29 -8 -28 -8 -27 -8 -29 -9 -28 -9 -28 -9 -29 -10 -26 -9 -28 -10 -28 -10 -28 -10 -27 -10 -28 -11 -27 -11 -27 -11 -28 -12 -27 -11 -27 -11 -27 -12 -27 -12 -28 -12 -27 -12 -26 -12 -27 -13 -27 -13 488 -1000 19 9 19 9 20 9 20 9 19 8 19 8 20 8 20 9 20 8 19 8 20 8 20 8 20 7 20 8 20 7 20 7 20 7 22 8 19 7 20 6 21 7 20 6 21 6 21 6 20 6 20 6 21 6 21 6 21 5 20 5 21 5 21 5 431 584zm-680 501l249 -1085 28 7 27 8 26 10 26 11 25 12 24 13 23 14 22 15 22 16 21 17 20 18 19 19 18 20 17 21 16 22 15 22 14 23 13 24 11 24 10 25 9 25 8 26 7 26 5 27 4 27 3 27 1 27 0 28 -1 28 -3 28 -4 28 -6 28 -7 28 -8 27 -10 26 -11 26 -12 25 -13 24 -14 23 -15 22 -16 22 -17 21 -18 20 -19 19 -20 18 -21 17 -22 16 -22 15 -23 14 -24 13 -24 11 -25 10 -25 9 -26 8 -26 7 -27 5 -27 4 -27 3 -27 1 -28 0 -28 -1 -28 -3 -28 -4 -28 -6zm-481 91l50 -675 1110 83 -50 675 -662 505 -448 -588zm0 0l1110 83 -3 29 -4 28 -6 28 -7 27 -8 26 -9 26 -11 25 -12 25 -13 24 -14 23 -15 22 -16 21 -17 21 -18 20 -19 19 -20 18 -21 17 -21 16 -22 15 -23 14 -24 13 -24 12 -25 11 -25 9 -26 8 -26 7 -27 6 -27 4 -28 3 -28 2 -28 0 -29 -1 -29 -3 -28 -4 -28 -6 -27 -7 -26 -8 -26 -9 -25 -11 -25 -12 -24 -13 -23 -14 -22 -15 -21 -16 -21 -17 -20 -18 -19 -19 -18 -20 -17 -21 -16 -21 -15 -22 -14 -23 -13 -24 -12 -24 -11 -25 -9 -25 -8 -26 -7 -26 -6 -27 -4 -27 -3 -28 -2 -28 0 -28 1 -29zm1370 -436l0 1113 0 0 -29 0 -29 0 -30 -1 -29 -1 -29 -1 -29 -1 -29 -1 -29 -1 -29 -2 -30 -2 -29 -2 -29 -2 -29 -2 -29 -2 -29 -3 -29 -3 -29 -3 -29 -3 -29 -3 -27 -3 -30 -4 -29 -4 -27 -4 -30 -4 -28 -4 -27 -4 -29 -5 -29 -5 -27 -5 -27 -5 -29 -5 -28 -5 213 -1092 22 4 20 4 23 4 23 4 20 3 22 4 23 4 22 3 21 3 23 3 22 3 21 3 23 3 22 3 22 2 22 2 22 2 22 2 22 2 22 2 22 2 23 2 21 1 23 1 23 1 23 1 23 1 23 1 23 1 22 0 23 0 23 0 0 0zm0 1113l0 -1113 29 1 28 2 28 4 27 5 27 6 26 8 26 9 25 10 25 11 24 12 23 13 23 15 22 16 21 17 20 18 19 18 18 19 18 20 17 21 16 22 15 23 13 23 12 24 11 25 10 25 9 26 8 26 6 27 5 27 4 28 2 28 1 29 -1 29 -2 28 -4 28 -5 27 -6 27 -8 26 -9 26 -10 25 -11 25 -12 24 -13 23 -15 23 -16 22 -17 21 -18 20 -18 19 -19 18 -20 18 -21 17 -22 16 -23 15 -23 13 -24 12 -25 11 -25 10 -26 9 -26 8 -27 6 -27 5 -28 4 -28 2 -29 1zm-330 -604l1110 82 -524 515 -10 1 -7 0 -7 0 -7 0 -7 0 -11 1 -7 0 -7 0 -7 0 -11 1 -7 0 -7 0 -11 0 -7 0 -7 0 -7 0 -7 0 -7 0 -11 0 -7 0 -7 0 -11 0 -7 0 -7 0 -7 0 -11 0 -7 0 -7 0 -7 0 -7 0 -11 0 -7 0 0 -1113 7 0 3 0 7 0 7 0 7 0 7 0 3 0 7 0 7 0 7 0 3 0 7 0 7 0 3 0 7 0 7 0 7 0 7 0 7 0 3 0 7 0 7 0 3 0 7 0 7 0 7 0 3 0 7 0 7 0 7 0 7 0 4 0 -524 515zm586 597l-61 -1111 29 -1 28 1 28 2 28 3 27 5 27 6 26 7 26 9 25 10 25 11 24 12 23 13 23 14 22 15 21 16 20 17 20 18 19 19 18 20 17 21 16 22 15 23 14 23 13 24 11 25 10 25 9 26 8 27 6 27 5 28 4 28 2 29 1 29 -1 28 -2 28 -3 28 -5 27 -6 27 -7 26 -9 26 -10 25 -11 25 -12 24 -13 23 -14 23 -15 22 -16 21 -17 20 -18 20 -19 19 -20 18 -21 17 -22 16 -23 15 -23 14 -24 13 -25 11 -25 10 -26 9 -27 8 -27 6 -28 5 -28 4 -29 2zm574 -1180l-49 666 -1110 -82 49 -666 516 -514 594 596zm0 0l-1110 -82 3 -29 4 -28 6 -28 7 -27 8 -26 9 -26 11 -25 12 -25 13 -24 14 -23 15 -22 16 -22 17 -21 18 -20 19 -19 20 -18 21 -17 21 -16 22 -15 23 -14 24 -13 24 -12 25 -11 25 -9 26 -8 26 -7 27 -6 27 -4 28 -3 28 -2 28 0 29 1 29 3 28 4 28 6 27 7 26 8 26 9 25 11 25 12 24 13 23 14 22 15 22 16 21 17 20 18 19 19 18 20 17 21 16 21 15 22 14 23 13 24 12 24 11 25 9 25 8 26 7 26 6 27 4 27 3 28 2 28 0 28 -1 29zm752 -435l-1002 484 668 289 -29 9 -29 9 -29 9 -28 8 -29 8 -29 8 -29 8 -29 7 -29 7 -29 7 -28 7 -30 7 -29 6 -30 6 -29 6 -29 6 -30 5 -30 5 -29 5 -29 5 -30 5 -29 4 -30 4 -30 4 -30 4 -30 3 -29 3 -30 3 -29 3 -30 3 -30 2 -29 2 -78 -1110 22 -2 21 -2 21 -2 22 -2 21 -2 22 -2 21 -2 21 -3 21 -3 21 -3 22 -3 21 -3 22 -4 21 -3 21 -4 21 -4 21 -4 22 -4 21 -4 21 -5 21 -5 22 -5 21 -5 21 -5 21 -5 21 -6 21 -6 21 -6 22 -6 21 -6 21 -6 21 -6 668 289zm-335 773l-333 -1062 28 -8 28 -6 28 -5 28 -4 28 -2 27 -1 27 1 27 2 27 3 27 5 26 6 26 7 25 8 25 9 25 11 24 12 23 13 23 14 22 15 21 16 21 17 20 18 19 19 18 20 17 21 16 22 15 23 14 24 13 25 12 26 11 26 9 27 8 28 6 28 5 28 4 28 2 28 1 27 -1 27 -2 27 -3 27 -5 27 -6 26 -7 26 -8 25 -9 25 -11 25 -12 24 -13 23 -14 23 -15 22 -16 21 -17 21 -18 20 -19 19 -20 18 -21 17 -22 16 -23 15 -24 14 -25 13 -26 12 -26 11 -27 9zm-380 308l-288 -597 1002 -484 288 597 -321 769 -682 -285zm0 0l1002 -484 12 26 10 26 9 27 8 27 6 27 5 27 3 27 2 27 1 27 -1 27 -2 27 -3 27 -5 26 -6 26 -7 26 -8 25 -9 25 -11 25 -12 24 -13 23 -14 23 -15 22 -16 22 -17 21 -19 20 -19 19 -21 18 -22 17 -23 16 -24 15 -25 14 -26 13 -26 12 -26 10 -27 9 -27 8 -27 6 -27 5 -27 3 -27 2 -27 1 -27 -1 -27 -2 -27 -3 -26 -5 -26 -6 -26 -7 -25 -8 -25 -9 -25 -11 -24 -12 -23 -13 -23 -14 -22 -15 -22 -16 -21 -17 -20 -19 -19 -19 -18 -21 -17 -22 -16 -23 -15 -24 -14 -25 -13 -26zm936 -458l1002 -484 -196 707 -31 20 -31 20 -31 19 -31 20 -32 19 -31 18 -32 19 -33 19 -32 18 -32 18 -32 17 -33 18 -33 18 -33 17 -33 16 -33 16 -34 16 -34 16 -33 15 -34 16 -33 15 -34 15 -35 15 -34 14 -35 14 -34 14 -34 13 -35 13 -36 13 -35 13 -35 12 -36 12 -361 -1053 27 -9 27 -10 27 -10 26 -10 27 -10 27 -11 27 -11 26 -11 26 -11 26 -11 26 -12 27 -12 25 -12 26 -12 25 -12 25 -12 26 -13 26 -13 25 -13 24 -13 25 -13 26 -14 25 -14 24 -14 24 -14 24 -14 25 -15 23 -14 24 -15 25 -15 24 -15 23 -15 -196 707zm806 223l-610 -931 24 -15 25 -14 25 -12 26 -11 26 -10 26 -8 26 -7 27 -6 27 -4 27 -3 27 -2 27 0 27 1 27 2 27 4 26 5 26 6 26 7 25 9 25 10 25 11 24 12 23 13 23 15 22 16 22 17 21 18 20 19 19 20 18 21 17 23 16 24 15 24 14 25 12 25 11 26 10 26 8 26 7 26 6 27 4 27 3 27 2 27 0 27 -1 27 -2 27 -4 27 -5 26 -6 26 -7 26 -9 25 -10 25 -11 25 -12 24 -13 23 -15 23 -16 22 -17 22 -18 21 -19 20 -20 19 -21 18 -23 17 -24 16zm-89 -1298l285 591 -1002 484 -285 -591 188 -702 814 218zm0 0l-1002 484 -12 -26 -10 -26 -9 -27 -8 -27 -6 -27 -5 -27 -3 -27 -2 -27 -1 -27 1 -27 2 -27 3 -27 5 -26 6 -26 7 -26 8 -25 9 -25 11 -25 12 -24 13 -23 14 -23 15 -22 16 -22 17 -21 18 -20 20 -19 21 -18 22 -17 23 -16 24 -15 25 -14 26 -13 26 -12 26 -10 27 -9 27 -8 27 -6 27 -5 27 -3 27 -2 27 -1 27 1 27 2 27 3 26 5 26 6 26 7 25 8 25 9 25 11 24 12 23 13 23 14 22 15 22 16 21 17 20 18 19 20 18 21 17 22 16 23 15 24 14 25 13 26zm429 -750l-626 920 723 -84 -20 21 -20 21 -20 21 -21 21 -21 21 -21 21 -21 21 -20 20 -21 20 -22 21 -21 19 -21 20 -23 21 -22 20 -22 19 -22 19 -22 19 -23 20 -23 19 -23 19 -23 19 -24 19 -23 18 -23 18 -24 18 -24 18 -23 17 -24 17 -25 18 -25 18 -25 17 -24 17 -625 -921 19 -13 18 -12 17 -12 17 -13 18 -13 18 -14 18 -13 17 -13 17 -13 17 -14 16 -13 17 -14 17 -14 16 -13 16 -14 17 -15 16 -14 16 -14 16 -14 15 -14 16 -15 16 -15 15 -14 15 -15 16 -16 15 -15 15 -15 15 -15 14 -15 15 -15 15 -15 14 -16 723 -84zm97 837l-820 -753 20 -21 21 -19 22 -18 22 -17 23 -16 23 -14 24 -13 25 -12 25 -11 25 -9 26 -8 26 -7 26 -6 26 -4 27 -3 27 -2 27 -1 27 1 27 2 27 3 27 5 26 6 26 7 26 9 25 10 25 11 25 12 24 14 24 15 23 16 22 18 22 19 21 20 19 21 18 22 17 22 16 23 14 23 13 24 12 25 11 25 9 25 8 26 7 26 6 26 4 26 3 27 2 27 1 27 -1 27 -2 27 -3 27 -5 27 -6 26 -7 26 -9 26 -10 25 -11 25 -12 25 -14 24 -15 24 -16 23 -18 22 -19 22zm-186 449l-537 -365 626 -920 537 365 107 826 -733 95zm0 0l626 -920 23 17 22 18 21 19 20 19 19 20 18 21 17 22 15 23 14 23 13 24 12 24 11 25 9 25 8 26 7 26 6 26 4 26 3 27 2 27 1 27 -1 27 -2 27 -3 27 -5 27 -6 27 -7 26 -9 26 -10 26 -11 25 -13 25 -14 25 -16 24 -17 23 -18 22 -19 21 -19 20 -20 19 -21 18 -22 17 -23 15 -23 14 -24 13 -24 12 -25 11 -25 9 -26 8 -26 7 -26 6 -26 4 -27 3 -27 2 -27 1 -27 -1 -27 -2 -27 -3 -27 -5 -27 -6 -26 -7 -26 -9 -26 -10 -25 -11 -25 -13 -25 -14 -24 -16zm582 -865l626 -920 184 711 -17 33 -17 33 -17 32 -18 33 -18 32 -18 33 -18 32 -18 32 -19 33 -19 32 -19 31 -20 32 -20 32 -19 30 -21 31 -21 31 -21 31 -21 30 -21 30 -22 31 -22 30 -21 29 -23 30 -23 30 -22 29 -23 29 -23 29 -23 29 -24 29 -23 28 -24 28 -24 28 -839 -731 18 -21 18 -22 19 -22 18 -21 18 -22 18 -22 17 -22 18 -23 17 -22 17 -22 17 -23 17 -23 16 -23 16 -23 16 -23 16 -23 16 -24 15 -23 16 -25 15 -23 14 -23 16 -25 15 -24 14 -24 15 -25 14 -25 14 -24 14 -25 13 -25 14 -26 13 -25 13 -25 184 711zm810 -209l-994 -502 14 -25 15 -24 16 -23 17 -22 18 -21 19 -20 20 -19 20 -18 21 -17 22 -16 23 -15 23 -14 24 -12 24 -11 25 -10 25 -9 26 -8 26 -7 26 -5 27 -4 27 -3 27 -2 27 0 27 1 27 3 27 4 27 5 27 7 27 8 26 9 26 11 26 12 25 14 24 15 23 16 22 17 21 18 20 19 19 20 18 20 17 21 16 22 15 23 14 23 12 24 11 24 10 25 9 25 8 26 7 26 5 26 4 27 3 27 2 27 0 27 -1 27 -3 27 -4 27 -5 27 -7 27 -8 27 -9 26 -11 26 -12 26zm-717 -1074l534 363 -626 920 -534 -363 -189 -701 815 -219zm0 0l-626 920 -23 -17 -22 -18 -21 -19 -20 -19 -19 -20 -18 -21 -17 -22 -15 -22 -14 -23 -13 -24 -12 -24 -11 -25 -9 -25 -8 -26 -7 -26 -6 -26 -4 -26 -3 -27 -2 -27 -1 -27 1 -27 2 -27 3 -27 5 -27 6 -27 7 -26 9 -26 10 -26 11 -25 13 -25 14 -25 16 -24 17 -23 18 -22 19 -21 19 -20 20 -19 21 -18 22 -17 22 -15 23 -14 24 -13 24 -12 25 -11 25 -9 26 -8 26 -7 26 -6 26 -4 27 -3 27 -2 27 -1 27 1 27 2 27 3 27 5 27 6 26 7 26 9 26 10 25 11 25 13 25 14 24 16zm-7 -857l-83 1110 584 -433 -7 29 -7 29 -7 27 -7 29 -8 29 -7 28 -8 28 -8 28 -8 29 -9 29 -8 28 -9 28 -9 28 -9 28 -9 27 -10 28 -10 27 -10 27 -10 28 -11 28 -10 27 -10 27 -11 27 -11 27 -11 28 -11 27 -11 26 -12 28 -12 26 -12 26 -13 27 -12 26 -1003 -482 9 -20 9 -19 9 -20 9 -20 8 -19 9 -20 8 -20 8 -19 8 -20 8 -20 8 -20 8 -20 7 -19 7 -19 7 -21 7 -21 7 -20 7 -21 7 -20 6 -20 6 -21 6 -21 6 -20 6 -20 6 -21 6 -21 6 -21 5 -20 5 -20 5 -22 5 -20 5 -21 584 -433zm502 677l-1086 -245 7 -28 8 -27 10 -26 11 -26 12 -25 13 -24 14 -23 15 -23 16 -22 17 -21 18 -20 19 -19 20 -18 21 -17 22 -16 22 -15 23 -14 24 -13 24 -12 25 -10 25 -9 26 -8 26 -7 27 -5 27 -4 27 -3 27 -2 28 0 28 1 28 3 28 4 28 6 28 7 27 8 26 10 26 11 25 12 24 13 23 14 23 15 22 16 21 17 20 18 19 19 18 20 17 21 16 22 15 22 14 23 13 24 12 24 10 25 9 25 8 26 7 26 5 27 4 27 3 27 2 27 0 28 -1 28 -3 28 -4 28 -6 28zm55 480l-639 -48 83 -1110 639 48 505 662 -587 448zm0 0l83 -1110 29 3 28 4 28 6 27 7 26 8 26 9 25 11 25 12 24 13 23 14 22 15 21 16 21 17 20 18 19 19 18 20 17 21 16 21 15 22 14 23 13 24 12 24 11 25 9 25 8 26 7 26 6 27 4 27 3 28 2 28 0 28 -1 29 -3 29 -4 28 -6 28 -7 27 -8 26 -9 26 -11 25 -12 25 -13 24 -14 23 -15 22 -16 21 -17 21 -18 20 -19 19 -20 18 -21 17 -21 16 -22 15 -23 14 -24 13 -24 12 -25 11 -25 9 -26 8 -26 7 -27 6 -27 4 -28 3 -28 2 -28 0 -29 -1zm-436 -1374l1113 0 0 0 0 30 0 29 -1 30 -1 29 -1 29 -1 29 -1 29 -1 30 -2 29 -2 28 -2 29 -2 30 -2 29 -2 29 -3 30 -3 28 -3 29 -3 30 -3 28 -3 29 -4 30 -4 28 -4 29 -4 30 -4 27 -4 29 -5 29 -5 29 -5 28 -5 28 -5 28 -5 28 -1092 -215 4 -22 4 -22 4 -22 4 -22 4 -22 4 -22 3 -22 3 -23 3 -21 3 -22 3 -23 3 -21 3 -22 3 -23 2 -21 2 -22 2 -23 2 -22 2 -22 2 -23 2 -21 1 -23 1 -24 1 -23 1 -22 1 -23 1 -23 1 -23 1 -23 0 -22 0 -23 0 -23 0 0zm1113 0l-1113 0 1 -29 2 -28 4 -28 5 -27 6 -27 8 -26 9 -26 10 -25 11 -25 12 -24 13 -23 15 -23 16 -22 17 -21 18 -20 18 -19 19 -18 20 -18 21 -17 22 -16 23 -15 23 -13 24 -12 25 -11 25 -10 26 -9 26 -8 27 -6 27 -5 28 -4 28 -2 29 -1 29 1 28 2 28 4 27 5 27 6 26 8 26 9 25 10 25 11 24 12 23 13 23 15 22 16 21 17 20 18 19 18 18 19 18 20 17 21 16 22 15 23 13 23 12 24 11 25 10 25 9 26 8 26 6 27 5 27 4 28 2 28 1 29zm-604 335l83 -1110 514 525 1 8 1 11 0 3 0 7 1 11 0 7 1 11 0 7 0 3 1 11 0 11 0 7 0 7 0 7 0 7 0 7 0 11 0 7 0 7 0 11 0 3 0 7 0 11 0 11 0 7 0 3 0 11 0 7 0 7 0 11 0 7 0 7 -1113 0 0 -7 0 -7 0 -3 0 -7 0 -7 0 -3 0 -11 0 -7 0 -3 0 -3 0 -7 0 -11 0 -3 0 -7 0 -7 0 -3 0 -7 0 -7 0 -7 0 -7 0 -7 0 -3 0 -3 -1 -11 0 -7 0 -3 0 -7 0 -3 0 -7 -1 -11 0 -3 0 -6 514 525zm597 -585l-1111 60 -1 -29 1 -28 2 -28 3 -28 5 -27 6 -27 7 -26 9 -26 10 -25 11 -25 12 -24 13 -23 14 -23 15 -22 16 -21 17 -20 18 -19 19 -19 20 -18 21 -17 22 -16 23 -15 23 -14 24 -13 25 -11 25 -10 26 -9 27 -8 27 -6 28 -5 28 -4 29 -2 29 -1 28 1 28 2 28 3 27 5 27 6 26 7 26 9 25 10 25 11 24 12 23 13 23 14 22 15 21 16 20 17 19 18 19 19 18 20 17 21 16 22 15 23 14 23 13 24 11 25 10 25 9 26 8 27 6 27 5 28 4 28 2 29zm-1150 -572l636 47 -83 1110 -636 -47 -514 -514 596 -596zm0 0l-83 1110 -29 -3 -28 -4 -28 -6 -27 -7 -26 -8 -26 -9 -25 -11 -25 -12 -24 -13 -23 -14 -22 -15 -21 -16 -21 -17 -20 -18 -19 -19 -18 -20 -17 -21 -16 -21 -15 -22 -14 -23 -13 -24 -12 -24 -11 -25 -9 -25 -8 -26 -7 -26 -6 -27 -4 -27 -3 -28 -2 -28 0 -28 1 -29 3 -29 4 -28 6 -28 7 -27 8 -26 9 -26 11 -25 12 -25 13 -24 14 -23 15 -22 16 -21 17 -21 18 -20 19 -19 20 -18 21 -17 21 -16 22 -15 23 -14 24 -13 24 -12 25 -11 25 -9 26 -8 26 -7 27 -6 27 -4 28 -3 28 -2 28 0 29 1zm-437 -744l484 1002 289 -668 9 28 9 29 9 29 8 29 8 28 8 29 8 29 7 29 7 29 7 28 7 28 7 29 7 30 6 28 6 28 6 29 6 29 5 29 5 29 5 28 5 28 5 31 4 29 4 28 4 28 4 30 3 30 3 28 3 30 3 29 3 30 2 29 -1110 81 -2 -21 -2 -21 -2 -21 -2 -21 -2 -22 -2 -21 -3 -21 -3 -22 -3 -22 -3 -21 -3 -20 -4 -22 -4 -22 -4 -21 -4 -21 -4 -21 -4 -21 -4 -22 -5 -22 -4 -20 -5 -21 -5 -22 -5 -22 -5 -21 -5 -21 -5 -21 -6 -21 -6 -22 -6 -21 -6 -21 -6 -21 -7 -21 289 -668zm773 334l-1062 334 -8 -28 -6 -28 -5 -28 -4 -28 -2 -28 -1 -27 1 -27 2 -27 3 -27 5 -27 6 -26 7 -26 8 -26 10 -25 11 -25 12 -24 13 -23 14 -23 15 -22 16 -21 17 -21 18 -20 19 -19 20 -18 21 -17 22 -16 23 -15 24 -14 25 -13 26 -12 26 -11 27 -9 28 -8 28 -6 28 -5 28 -4 28 -2 27 -1 27 1 27 2 27 3 27 5 26 6 26 7 26 8 25 10 25 11 24 12 23 13 23 14 22 15 21 16 21 17 20 18 19 19 18 20 17 21 16 22 15 23 14 24 13 25 12 26 11 26 9 27zm288 390l-576 278 -484 -1002 576 -278 770 324 -285 678zm0 0l-484 -1002 26 -12 26 -10 27 -9 27 -8 27 -6 27 -5 27 -3 27 -2 27 -1 27 1 27 2 27 3 26 5 26 6 26 7 25 8 25 9 25 11 24 12 24 13 23 14 22 15 22 16 21 17 20 18 19 20 18 21 17 22 16 23 15 24 14 25 13 26 12 26 10 26 9 27 8 27 6 27 5 27 3 27 2 27 1 27 -1 27 -2 27 -3 27 -5 26 -6 26 -7 26 -8 25 -9 25 -11 25 -12 24 -13 23 -14 23 -15 22 -16 22 -17 21 -18 20 -20 19 -21 18 -22 17 -23 16 -24 15 -25 14 -26 13zm-453 -938l-484 -1002 709 199 20 31 19 31 19 31 19 31 19 32 19 32 18 32 19 33 18 32 18 32 17 33 17 33 17 32 17 33 17 34 16 33 16 34 15 33 16 34 15 34 15 34 14 34 14 34 15 36 14 34 14 34 13 35 13 35 13 35 12 35 12 35 12 36 -1055 355 -9 -27 -9 -27 -10 -27 -10 -26 -10 -26 -10 -27 -11 -27 -11 -27 -10 -25 -11 -27 -11 -27 -11 -26 -12 -26 -12 -26 -12 -26 -12 -25 -13 -26 -12 -25 -13 -25 -13 -26 -13 -25 -13 -25 -14 -25 -14 -25 -14 -24 -14 -24 -14 -24 -15 -24 -15 -24 -15 -24 -15 -24 -15 -23 709 199zm226 -803l-935 604 -15 -24 -14 -25 -12 -25 -11 -26 -9 -26 -8 -26 -7 -26 -5 -27 -4 -27 -3 -27 -1 -27 0 -27 1 -27 3 -27 4 -27 5 -26 6 -26 8 -26 9 -25 10 -25 11 -24 12 -24 14 -23 15 -23 16 -22 17 -21 18 -21 19 -20 20 -19 22 -18 23 -17 24 -16 24 -15 25 -14 25 -12 26 -11 26 -9 26 -8 26 -7 27 -5 27 -4 27 -3 27 -1 27 0 27 1 27 3 27 4 26 5 26 6 26 8 25 9 25 10 24 11 24 12 23 14 23 15 22 16 21 17 21 18 20 19 19 20 18 22 17 23 16 24zm-1288 80l578 -279 484 1002 -578 279 -702 -188 218 -815zm0 0l484 1002 -26 12 -26 10 -27 9 -27 8 -27 6 -27 5 -27 3 -27 2 -27 1 -27 -1 -27 -2 -27 -3 -26 -5 -26 -6 -26 -7 -25 -8 -25 -9 -25 -11 -24 -12 -24 -13 -23 -14 -22 -15 -22 -16 -21 -17 -20 -19 -19 -19 -18 -21 -17 -22 -16 -23 -15 -24 -14 -25 -13 -26 -12 -26 -10 -26 -9 -27 -8 -27 -6 -27 -5 -27 -3 -27 -2 -27 -1 -27 1 -27 2 -27 3 -27 5 -26 6 -26 7 -26 8 -25 9 -25 11 -25 12 -24 13 -24 14 -23 15 -22 16 -22 17 -21 19 -20 19 -19 21 -18 22 -17 23 -16 24 -15 25 -14 26 -13zm-754 -429l920 626 -85 -724 22 20 22 21 21 20 21 20 21 21 20 20 21 21 21 21 20 21 20 21 21 22 20 22 20 22 20 23 19 21 19 22 20 24 19 22 19 22 19 23 19 23 19 24 19 24 18 23 19 24 18 24 17 23 17 24 18 25 18 25 17 24 17 25 -919 627 -12 -18 -13 -18 -12 -18 -13 -17 -13 -18 -14 -18 -13 -17 -13 -17 -14 -18 -13 -17 -13 -17 -14 -17 -13 -16 -14 -17 -15 -17 -13 -15 -14 -16 -15 -17 -14 -16 -15 -16 -15 -16 -14 -15 -15 -16 -16 -16 -14 -15 -15 -15 -16 -16 -15 -14 -16 -15 -16 -15 -15 -14 -16 -14 -85 -724zm836 -98l-751 822 -21 -20 -19 -21 -18 -21 -17 -22 -16 -23 -14 -23 -13 -24 -12 -24 -11 -25 -9 -25 -8 -26 -7 -26 -6 -26 -4 -26 -3 -27 -2 -27 -1 -27 1 -27 2 -27 3 -27 5 -26 6 -26 7 -26 8 -26 10 -25 11 -25 12 -25 14 -24 15 -24 16 -23 18 -22 19 -22 20 -21 21 -19 21 -18 22 -17 23 -16 23 -14 24 -13 24 -12 25 -11 25 -9 26 -8 26 -7 26 -6 26 -4 27 -3 27 -2 27 -1 27 1 27 2 27 3 26 5 26 6 26 7 26 8 25 10 25 11 25 12 24 14 24 15 23 16 22 18 22 19zm447 191l-363 533 -920 -626 363 -533 829 -104 92 730zm0 0l-920 -626 17 -23 18 -22 19 -21 19 -20 20 -19 21 -18 22 -17 23 -15 23 -14 24 -13 24 -12 25 -11 25 -9 25 -8 26 -7 26 -6 26 -4 27 -3 27 -2 27 -1 27 1 27 2 27 3 27 5 27 6 26 7 26 9 26 10 25 11 25 13 25 14 24 16 23 17 22 18 21 19 20 19 19 20 18 21 17 22 15 23 14 23 13 24 12 24 11 25 9 25 8 25 7 26 6 26 4 26 3 27 2 27 1 27 -1 27 -2 27 -3 27 -5 27 -6 27 -7 26 -9 26 -10 26 -11 25 -13 25 -14 25 -16 24zm-860 -588l-920 -626 714 -182 33 17 33 18 33 18 32 18 33 18 32 18 33 19 32 19 32 19 31 19 31 20 32 20 31 20 31 20 31 21 30 20 30 21 31 22 30 22 29 21 30 22 30 22 29 22 29 23 29 23 29 23 29 23 29 24 28 23 28 24 28 24 28 24 -737 834 -21 -19 -21 -19 -22 -18 -22 -19 -21 -18 -22 -18 -22 -18 -22 -17 -22 -17 -23 -17 -22 -17 -23 -17 -24 -17 -23 -17 -22 -16 -23 -16 -24 -16 -23 -15 -24 -16 -24 -16 -23 -15 -24 -15 -25 -15 -24 -15 -25 -15 -24 -14 -25 -14 -25 -14 -25 -14 -25 -14 -25 -13 -26 -13 714 -182zm-206 -808l-508 990 -25 -14 -24 -15 -23 -16 -22 -17 -21 -18 -20 -19 -19 -20 -18 -20 -17 -21 -16 -22 -15 -23 -14 -23 -12 -24 -11 -24 -10 -25 -9 -25 -8 -26 -6 -26 -5 -26 -4 -27 -3 -27 -1 -27 0 -27 1 -27 3 -27 4 -27 5 -27 7 -27 8 -27 10 -26 11 -26 12 -26 14 -25 15 -24 16 -23 17 -22 18 -21 19 -20 20 -19 20 -18 21 -17 22 -16 23 -15 23 -14 24 -12 24 -11 25 -10 25 -9 26 -8 26 -6 26 -5 27 -4 27 -3 27 -1 27 0 27 1 27 3 27 4 27 5 27 7 27 8 26 10 26 11 26 12zm-1081 721l367 -539 920 626 -367 539 -700 189 -220 -815zm0 0l920 626 -17 23 -18 22 -19 21 -19 20 -20 19 -21 18 -22 17 -23 15 -23 14 -24 13 -24 12 -25 11 -25 9 -25 8 -26 7 -26 6 -26 4 -27 3 -27 2 -27 1 -27 -1 -27 -2 -27 -3 -27 -5 -27 -6 -26 -7 -26 -9 -26 -10 -25 -11 -25 -13 -25 -14 -24 -16 -23 -17 -22 -18 -21 -19 -20 -19 -19 -20 -18 -21 -17 -22 -15 -23 -14 -23 -13 -24 -12 -24 -11 -25 -9 -25 -8 -25 -7 -26 -6 -26 -4 -26 -3 -27 -2 -27 -1 -27 1 -27 2 -27 3 -27 5 -27 6 -27 7 -26 9 -26 10 -26 11 -25 13 -25 14 -25 16 -24zm-857 9l1110 82 -435 -585 29 7 28 7 29 7 28 7 29 7 29 8 27 7 29 8 29 8 28 8 28 9 28 9 28 9 28 9 27 9 29 10 27 10 27 10 28 10 27 10 28 11 27 11 27 11 28 11 27 11 27 11 27 12 28 12 26 12 26 12 28 13 26 12 -480 1004 -20 -9 -19 -9 -20 -9 -20 -9 -19 -8 -20 -9 -20 -8 -20 -8 -19 -8 -20 -8 -20 -8 -19 -7 -20 -8 -19 -7 -21 -7 -21 -7 -19 -7 -21 -7 -20 -7 -20 -6 -21 -7 -20 -6 -21 -6 -20 -6 -20 -5 -22 -6 -20 -5 -20 -5 -21 -5 -20 -5 -21 -5 -21 -5 -435 -585zm675 -502l-241 1087 -28 -7 -27 -8 -27 -10 -26 -11 -25 -12 -24 -13 -23 -14 -23 -15 -22 -16 -21 -17 -20 -18 -19 -19 -18 -20 -17 -21 -16 -21 -15 -22 -14 -23 -13 -24 -12 -24 -10 -25 -9 -25 -8 -26 -7 -26 -6 -27 -4 -27 -3 -27 -2 -27 0 -28 1 -28 3 -28 4 -28 6 -28 7 -28 8 -27 10 -27 11 -26 12 -25 13 -24 14 -23 15 -23 16 -22 17 -21 18 -20 19 -19 20 -18 21 -17 21 -16 22 -15 23 -14 24 -13 24 -12 25 -10 25 -9 26 -8 26 -7 27 -6 27 -4 27 -3 27 -2 28 0 28 1 28 3 28 4 28 6zm483 -71l-49 655 -1110 -82 49 -655 665 -504 445 587zm0 0l-1110 -82 3 -29 4 -28 6 -28 7 -27 8 -26 9 -26 11 -25 12 -25 13 -24 14 -23 15 -22 16 -22 17 -21 18 -20 19 -19 20 -18 21 -17 22 -16 22 -15 23 -14 24 -13 24 -12 25 -10 25 -9 26 -8 26 -7 27 -6 27 -4 28 -3 28 -2 28 0 29 1 29 3 28 4 28 6 27 7 26 8 26 9 25 11 25 12 24 13 23 14 22 15 22 16 21 17 20 18 19 19 18 20 17 21 16 22 15 22 14 23 13 24 12 24 10 25 9 25 8 26 7 26 6 27 4 27 3 28 2 28 0 28 -1 29zm-1396 431l0 -1113 0 0 30 0 31 0 31 1 29 1 31 1 31 1 29 1 31 1 31 2 29 2 31 2 31 2 29 2 30 3 31 3 30 3 30 3 31 3 29 4 30 4 30 4 29 4 29 4 29 4 30 5 29 5 29 5 29 5 28 5 29 5 30 6 29 6 -220 1091 -23 -5 -21 -4 -22 -4 -23 -4 -22 -4 -23 -4 -23 -4 -22 -3 -23 -3 -23 -3 -23 -3 -23 -3 -23 -3 -23 -3 -22 -2 -23 -2 -23 -2 -22 -2 -23 -2 -24 -2 -23 -2 -22 -1 -24 -2 -23 -1 -23 -1 -25 -1 -23 -1 -23 -1 -25 -1 -23 0 -23 0 -24 0 0 0zm0 -1113l0 1113 -29 -1 -28 -2 -28 -4 -27 -5 -27 -6 -26 -8 -26 -9 -25 -10 -25 -11 -24 -12 -23 -13 -23 -15 -22 -16 -21 -17 -20 -18 -19 -18 -18 -19 -18 -20 -17 -21 -16 -22 -15 -23 -13 -23 -12 -24 -11 -25 -10 -25 -9 -26 -8 -26 -6 -27 -5 -27 -4 -28 -2 -28 -1 -29 1 -29 2 -28 4 -28 5 -27 6 -27 8 -26 9 -26 10 -25 11 -25 12 -24 13 -23 15 -23 16 -22 17 -21 18 -20 18 -19 19 -18 20 -18 21 -17 22 -16 23 -15 23 -13 24 -12 25 -11 25 -10 26 -9 26 -8 27 -6 27 -5 28 -4 28 -2 29 -1zm0 557l0 0 0 0 0 0 0 556 0 -556zm0 -557l0 1113 -29 -1 -28 -2 -28 -4 -27 -5 -27 -6 -26 -8 -26 -9 -25 -10 -25 -11 -24 -12 -23 -13 -23 -15 -22 -16 -21 -17 -20 -18 -19 -18 -18 -19 -18 -20 -17 -21 -16 -22 -15 -23 -13 -23 -12 -24 -11 -25 -10 -25 -9 -26 -8 -26 -6 -27 -5 -27 -4 -28 -2 -28 -1 -29 1 -29 2 -28 4 -28 5 -27 6 -27 8 -26 9 -26 10 -25 11 -25 12 -24 13 -23 15 -23 16 -22 17 -21 18 -20 18 -19 19 -18 20 -18 21 -17 22 -16 23 -15 23 -13 24 -12 25 -11 25 -10 26 -9 26 -8 27 -6 27 -5 28 -4 28 -2 29 -1zm3211 4128l-1093 208 0 0 -4 -19 -4 -19 -4 -19 -4 -19 -4 -19 -5 -19 -5 -20 -4 -17 -5 -18 -5 -19 -5 -18 -5 -18 -5 -18 -6 -18 -6 -19 -6 -17 -6 -17 -7 -19 -6 -17 -7 -18 -7 -18 -7 -17 -7 -18 -7 -18 -7 -17 -7 -17 -8 -17 -8 -18 -8 -17 -8 -16 -8 -17 -8 -17 995 -499 12 25 12 25 13 26 12 25 11 25 11 26 12 26 11 26 11 26 10 26 11 27 10 27 10 26 10 28 9 26 10 27 9 28 9 27 9 27 9 28 8 28 8 28 8 27 8 28 8 29 7 27 7 28 7 28 6 29 6 29 6 29 6 29 0 0zm-1094 208l1094 -207 5 28 3 28 2 28 0 28 -1 28 -3 27 -4 27 -5 27 -6 26 -8 26 -9 25 -10 25 -11 24 -12 24 -13 23 -15 22 -16 22 -17 21 -18 20 -19 19 -20 19 -20 18 -21 17 -22 16 -23 15 -24 13 -25 12 -25 11 -26 10 -27 9 -27 7 -28 6 -28 5 -28 3 -28 2 -28 0 -28 -1 -27 -3 -27 -4 -27 -5 -26 -6 -26 -8 -25 -9 -25 -10 -24 -11 -24 -12 -23 -13 -22 -15 -22 -16 -21 -17 -20 -18 -19 -19 -19 -20 -18 -20 -17 -21 -16 -22 -15 -23 -13 -24 -12 -25 -11 -25 -10 -26 -9 -27 -7 -27 -6 -28zm-1520 3632l-208 -1093 0 0 110 -24 107 -29 104 -34 101 -39 98 -43 96 -48 93 -52 90 -57 86 -60 83 -65 80 -68 76 -72 72 -75 69 -79 65 -82 61 -85 57 -88 52 -90 48 -93 44 -95 39 -97 34 -99 30 -101 25 -103 20 -104 15 -105 10 -107 4 -107 -1 -109 -7 -110 -12 -110 -18 -111 1093 -208 27 166 19 166 10 165 2 164 -6 163 -15 161 -22 160 -30 158 -37 155 -45 153 -52 150 -59 147 -66 144 -73 140 -79 136 -85 132 -92 128 -98 124 -104 119 -109 114 -115 109 -120 103 -126 98 -131 92 -136 86 -140 79 -145 73 -150 66 -153 59 -158 51 -161 44 -165 36 0 0zm-208 -1093l208 1093 -28 5 -28 3 -28 2 -28 0 -28 -1 -27 -3 -27 -4 -27 -5 -26 -6 -26 -8 -25 -9 -25 -10 -24 -11 -24 -12 -23 -13 -22 -15 -22 -16 -21 -17 -20 -18 -19 -19 -18 -20 -18 -20 -17 -21 -16 -22 -15 -23 -13 -24 -12 -25 -11 -25 -10 -26 -9 -27 -7 -27 -6 -28 -5 -28 -3 -28 -2 -28 0 -28 1 -28 3 -27 4 -27 5 -27 6 -26 8 -26 9 -25 10 -25 11 -24 12 -24 13 -23 15 -22 16 -22 17 -21 18 -20 19 -19 20 -18 20 -18 21 -17 22 -16 23 -15 24 -13 25 -12 25 -11 26 -10 27 -9 27 -7 28 -6zm-2338 -327l724 845 -42 -877 44 30 44 29 46 28 46 27 46 26 48 25 48 24 48 22 50 21 50 20 50 19 51 18 51 16 52 15 52 14 52 12 53 11 53 10 54 9 54 7 54 6 54 4 55 3 55 2 55 0 55 -1 56 -3 56 -4 56 -6 56 -7 56 -9 57 -10 208 1093 -85 15 -85 13 -85 10 -85 8 -85 6 -84 4 -84 2 -84 -1 -83 -3 -83 -5 -83 -7 -83 -9 -81 -11 -81 -13 -81 -15 -80 -17 -79 -19 -79 -21 -78 -23 -77 -25 -77 -27 -76 -28 -75 -30 -74 -32 -74 -34 -72 -36 -71 -37 -71 -39 -70 -41 -68 -42 -68 -44 -66 -46 -42 -877zm683 -32l-641 910 -23 -17 -22 -18 -21 -19 -20 -20 -18 -21 -17 -21 -16 -22 -15 -23 -14 -23 -13 -24 -11 -24 -10 -25 -9 -25 -8 -26 -6 -26 -5 -26 -4 -26 -3 -27 -1 -27 0 -27 1 -27 3 -27 4 -27 5 -27 6 -26 8 -26 9 -26 10 -26 12 -25 13 -25 15 -24 16 -24 17 -23 18 -22 19 -21 20 -20 21 -18 21 -17 22 -16 23 -15 23 -14 24 -13 24 -11 25 -10 25 -9 26 -8 26 -6 26 -5 26 -4 27 -3 27 -1 27 0 27 1 27 3 27 4 27 5 26 6 26 8 26 9 26 10 25 12 25 13 24 15 24 16zm65 857l-24 20 -724 -845 24 -20 686 -30 39 875zm0 0l-724 -845 22 -18 23 -17 23 -16 24 -14 25 -13 25 -12 25 -10 26 -9 26 -8 26 -6 26 -5 27 -4 27 -2 27 -1 27 0 27 1 27 3 26 4 26 5 26 7 26 8 25 9 25 10 25 11 24 13 24 14 23 15 22 16 22 18 21 19 20 20 19 21 18 22 17 23 16 23 14 24 13 25 12 25 10 25 9 26 8 26 6 26 5 26 4 27 2 27 1 27 0 27 -1 27 -3 27 -4 26 -5 26 -7 26 -8 26 -9 25 -10 25 -11 25 -13 24 -14 24 -15 23 -16 22 -18 22 -19 21 -20 20 -21 19zm-824 -954l-728 -842 858 165 15 28 15 28 16 27 16 27 17 27 17 27 17 27 17 26 18 26 19 26 19 26 19 25 19 25 20 25 20 24 21 24 21 24 21 23 21 23 22 22 23 23 22 22 23 22 23 22 23 21 24 21 24 21 24 20 25 20 25 19 25 19 26 19 -647 905 -39 -28 -39 -29 -38 -29 -37 -30 -37 -31 -36 -31 -36 -31 -36 -33 -35 -32 -35 -33 -34 -34 -33 -34 -33 -35 -33 -35 -32 -36 -31 -36 -31 -36 -31 -37 -30 -37 -30 -38 -29 -39 -28 -39 -27 -38 -28 -40 -27 -41 -26 -40 -26 -41 -25 -41 -25 -42 -24 -42 -23 -42 -23 -43 858 165zm130 -677l-988 512 -13 -26 -11 -26 -10 -26 -8 -27 -7 -27 -6 -27 -4 -27 -3 -27 -2 -27 0 -27 1 -27 2 -27 4 -27 5 -26 6 -26 8 -26 9 -25 10 -25 11 -24 12 -24 13 -23 15 -23 16 -22 17 -21 18 -21 19 -20 20 -19 21 -18 22 -17 23 -16 24 -15 25 -14 26 -13 26 -11 26 -10 27 -8 27 -7 27 -6 27 -4 27 -3 27 -2 27 0 27 1 27 2 27 4 26 5 26 6 26 8 25 9 25 10 24 11 24 12 23 13 23 15 22 16 21 17 21 18 20 19 19 20 18 21 17 22 16 23 15 24 14 25zm-892 -136l33 -29 728 842 -33 29 -855 -159 127 -683zm0 0l728 842 -22 18 -23 17 -23 16 -24 14 -24 13 -25 12 -25 10 -26 9 -26 8 -26 6 -26 5 -27 4 -27 3 -27 1 -27 0 -27 -1 -27 -3 -26 -4 -26 -5 -26 -6 -26 -8 -25 -9 -25 -10 -25 -11 -24 -13 -24 -14 -23 -15 -22 -16 -22 -18 -21 -19 -20 -20 -19 -21 -18 -22 -17 -23 -16 -23 -14 -24 -13 -24 -12 -25 -10 -25 -9 -26 -8 -26 -6 -26 -5 -26 -4 -27 -3 -27 -1 -27 0 -27 1 -27 3 -27 4 -26 5 -26 6 -26 8 -26 9 -25 10 -25 11 -25 13 -24 14 -24 15 -23 16 -22 18 -22 19 -21 20 -20 21 -19zm-455 -251l1093 -208 0 0 4 21 4 20 4 20 5 21 5 21 5 20 5 20 6 21 5 20 6 20 6 20 6 20 6 20 6 19 7 20 7 19 7 19 7 20 7 18 8 19 8 20 7 18 8 18 9 19 8 18 8 17 9 19 9 18 9 17 9 19 9 18 9 17 -982 524 -14 -27 -14 -27 -13 -27 -14 -28 -13 -27 -13 -27 -13 -29 -13 -28 -12 -27 -12 -29 -12 -29 -11 -27 -11 -29 -11 -30 -11 -29 -11 -30 -10 -29 -10 -29 -10 -30 -9 -30 -9 -29 -9 -30 -9 -31 -8 -31 -8 -30 -8 -31 -8 -31 -7 -30 -7 -30 -7 -32 -6 -31 -6 -31 0 0zm1093 -208l-1093 209 -5 -28 -3 -28 -2 -28 0 -28 1 -28 3 -27 4 -27 5 -27 6 -26 8 -26 9 -25 10 -25 11 -24 12 -24 13 -23 15 -22 16 -22 17 -21 18 -20 19 -19 19 -19 20 -18 21 -17 22 -16 23 -15 24 -13 25 -12 25 -11 26 -10 27 -9 27 -7 28 -6 28 -5 28 -3 28 -2 28 0 28 1 27 3 27 4 27 5 26 6 26 8 25 9 25 10 24 11 24 12 23 13 22 15 22 16 21 17 20 18 19 19 19 19 18 20 17 21 16 22 15 23 13 24 12 25 11 25 10 26 9 27 7 27 6 28zm1520 -3631l208 1093 0 0 -110 24 -107 29 -104 34 -101 39 -99 44 -96 48 -92 52 -89 57 -86 61 -83 65 -80 68 -76 72 -72 75 -69 79 -65 82 -61 85 -57 88 -53 90 -48 93 -44 95 -39 97 -34 99 -30 101 -25 103 -20 104 -15 105 -10 107 -4 107 1 109 7 110 12 110 18 111 -1093 208 -27 -166 -19 -166 -10 -165 -2 -164 6 -163 15 -161 22 -160 30 -158 37 -155 45 -153 52 -150 59 -147 66 -144 73 -140 79 -136 85 -132 92 -128 98 -124 104 -119 109 -114 115 -109 120 -103 126 -98 131 -92 136 -86 141 -79 145 -73 149 -66 154 -59 158 -51 161 -44 165 -36 0 0zm208 1093l-208 -1093 28 -5 28 -3 28 -2 28 0 28 1 27 2 27 4 27 5 26 6 26 8 25 9 25 10 24 11 24 12 23 13 22 15 22 16 21 17 20 18 19 19 18 20 18 20 17 21 16 22 15 23 14 24 12 25 11 25 10 26 9 27 7 27 6 28 5 28 3 28 2 28 0 28 -1 28 -2 27 -4 27 -5 27 -6 26 -8 26 -9 25 -10 25 -11 24 -12 24 -13 23 -15 22 -16 22 -17 21 -18 20 -19 19 -20 18 -20 18 -21 17 -22 16 -23 15 -24 14 -25 12 -25 11 -26 10 -27 9 -27 7 -28 6zm454 -1151l-15 1113 0 0 -14 0 -12 0 -14 0 -14 0 -14 0 -14 0 -14 0 -14 0 -12 1 -14 1 -14 1 -14 1 -14 1 -14 1 -14 1 -12 1 -13 1 -16 2 -14 1 -13 1 -14 2 -14 2 -14 2 -13 2 -14 2 -14 2 -13 2 -16 3 -14 2 -11 2 -14 3 -15 3 -208 -1093 20 -4 20 -4 24 -4 20 -3 19 -3 22 -3 20 -3 20 -3 22 -3 21 -3 20 -2 20 -2 22 -2 20 -2 19 -2 22 -2 22 -2 20 -2 20 -1 20 -1 20 -1 20 -1 20 -1 22 -1 20 -1 20 -1 20 0 20 0 20 0 20 0 22 0 20 0 0 0zm-15 1113l15 -1113 29 1 28 3 28 4 27 5 27 7 26 8 26 9 25 10 25 12 24 13 23 14 22 15 22 16 21 17 20 18 19 19 18 20 17 21 16 21 15 22 14 23 13 24 12 24 11 25 10 25 8 26 7 27 6 27 5 28 3 28 2 28 0 29 -1 29 -3 28 -4 28 -5 27 -7 27 -8 26 -9 26 -10 25 -12 25 -13 24 -14 23 -15 22 -16 22 -17 21 -18 20 -19 19 -20 18 -21 17 -21 16 -22 15 -23 14 -24 13 -24 12 -25 11 -25 10 -26 8 -27 7 -27 6 -28 5 -28 3 -28 2 -29 0zm8 -557l0 0 0 0 0 0 8 -557 -8 557zm-8 557l15 -1113 29 1 28 3 28 4 27 5 27 7 26 8 26 9 25 10 25 12 24 13 23 14 22 15 22 16 21 17 20 18 19 19 18 20 17 21 16 21 15 22 14 23 13 24 12 24 11 25 10 25 8 26 7 27 6 27 5 28 3 28 2 28 0 29 -1 29 -3 28 -4 28 -5 27 -7 27 -8 26 -9 26 -10 25 -12 25 -13 24 -14 23 -15 22 -16 22 -17 21 -18 20 -19 19 -20 18 -21 17 -21 16 -22 15 -23 14 -24 13 -24 12 -25 11 -25 10 -26 8 -27 7 -27 6 -28 5 -28 3 -28 2 -29 0zm1956 401l-729 -841 33 868 -34 -25 -34 -24 -35 -24 -36 -23 -36 -22 -36 -21 -36 -21 -37 -20 -38 -20 -37 -18 -38 -18 -39 -17 -39 -16 -39 -16 -39 -15 -40 -14 -40 -13 -41 -13 -41 -12 -40 -11 -41 -10 -42 -10 -42 -9 -41 -8 -42 -7 -43 -6 -42 -5 -42 -4 -43 -4 -43 -3 -43 -2 -43 -1 15 -1113 66 2 66 3 65 4 65 5 65 7 64 8 64 9 64 11 64 12 63 13 62 14 62 15 63 17 61 18 61 19 60 20 60 21 60 23 59 24 59 25 57 26 58 27 57 28 56 29 56 30 55 31 55 32 54 33 53 34 52 35 52 36 51 37 33 868zm-696 27l662 -894 23 18 21 19 20 19 19 20 18 21 17 22 16 22 14 23 13 24 12 24 11 25 10 25 8 25 7 26 6 26 5 26 3 27 2 27 1 27 -1 27 -2 27 -3 27 -4 27 -6 26 -7 26 -8 26 -10 26 -11 25 -12 25 -14 25 -15 24 -17 23 -18 23 -19 21 -19 20 -20 19 -21 18 -22 17 -22 16 -23 14 -24 13 -24 12 -25 11 -25 10 -25 8 -26 7 -26 6 -26 5 -27 3 -27 2 -27 1 -27 -1 -27 -2 -27 -3 -27 -4 -26 -6 -26 -7 -26 -8 -26 -10 -25 -11 -25 -12 -25 -14 -24 -15 -23 -17zm-69 -837l35 -31 729 841 -35 31 -691 31 -38 -872zm0 0l729 841 -22 18 -23 17 -23 16 -24 14 -25 13 -25 12 -25 10 -26 9 -26 8 -26 6 -26 5 -27 4 -27 3 -27 1 -27 0 -27 -1 -27 -3 -26 -4 -26 -5 -26 -6 -26 -8 -25 -9 -25 -10 -25 -11 -24 -13 -24 -14 -23 -15 -22 -16 -22 -18 -21 -19 -20 -20 -19 -21 -18 -22 -17 -23 -16 -23 -14 -24 -13 -25 -12 -25 -10 -25 -9 -26 -8 -26 -6 -26 -5 -26 -4 -27 -3 -27 -1 -27 0 -27 1 -27 3 -27 4 -26 5 -26 6 -26 8 -26 9 -25 10 -25 11 -25 13 -24 14 -24 15 -23 16 -22 18 -22 19 -21 20 -20 21 -19zm822 956l728 842 -859 -168 -15 -28 -15 -28 -16 -28 -16 -28 -16 -27 -17 -27 -17 -26 -18 -26 -18 -26 -18 -26 -19 -26 -19 -25 -19 -24 -20 -25 -20 -25 -20 -24 -21 -24 -21 -24 -22 -23 -22 -23 -22 -22 -23 -22 -23 -22 -23 -22 -24 -21 -24 -21 -24 -20 -24 -20 -25 -20 -25 -20 -25 -19 -26 -19 652 -902 39 28 38 29 38 29 37 30 37 31 37 31 36 32 35 32 35 33 35 33 34 34 34 34 33 35 32 35 32 36 32 36 31 37 30 36 30 37 30 39 29 39 28 39 28 39 27 40 26 40 26 41 25 41 25 42 24 41 24 42 23 43 22 43 -859 -168zm-132 675l991 -507 12 26 11 26 10 26 8 27 7 27 5 27 4 27 3 27 1 27 0 27 -1 27 -3 27 -4 27 -5 26 -6 26 -8 26 -9 25 -10 25 -11 24 -12 24 -14 23 -15 23 -16 22 -17 21 -18 20 -19 20 -20 19 -21 18 -22 17 -23 16 -24 15 -25 14 -26 12 -26 11 -26 10 -27 8 -27 7 -27 5 -27 4 -27 3 -27 1 -27 0 -27 -1 -27 -3 -27 -4 -26 -5 -26 -6 -26 -8 -25 -9 -25 -10 -24 -11 -24 -12 -23 -14 -23 -15 -22 -16 -21 -17 -20 -18 -20 -19 -19 -20 -18 -21 -17 -22 -16 -23 -15 -24 -14 -25zm886 145l-27 23 -728 -842 27 -23 861 171 -134 671zm0 0l-728 -842 22 -18 23 -17 23 -16 24 -14 25 -13 25 -12 25 -10 26 -9 26 -8 26 -6 26 -5 27 -4 27 -3 27 -1 27 0 27 1 27 3 27 4 26 5 26 6 26 8 25 9 25 10 25 11 24 13 24 14 23 15 22 16 22 18 21 19 20 20 19 21 18 22 17 23 16 23 14 24 13 25 12 25 10 25 9 26 8 26 6 26 5 26 4 27 3 27 1 27 0 27 -1 27 -3 27 -4 27 -5 26 -6 26 -8 26 -9 25 -10 25 -11 25 -13 24 -14 24 -15 23 -16 22 -18 22 -19 21 -20 20 -21 19zm-364 -421l0 0 0 0 0 0 497 -250 -497 250zm364 421l-728 -842 22 -18 23 -17 23 -16 24 -14 25 -13 25 -12 25 -10 26 -9 26 -8 26 -6 26 -5 27 -4 27 -3 27 -1 27 0 27 1 27 3 27 4 26 5 26 6 26 8 25 9 25 10 25 11 24 13 24 14 23 15 22 16 22 18 21 19 20 20 19 21 18 22 17 23 16 23 14 24 13 25 12 25 10 25 9 26 8 26 6 26 5 26 4 27 3 27 1 27 0 27 -1 27 -3 27 -4 27 -5 26 -6 26 -8 26 -9 25 -10 25 -11 25 -13 24 -14 24 -15 23 -16 22 -18 22 -19 21 -20 20 -21 19z"/>
    <path id="1" class="fil3" d="M10000 5796c-66,0 -132,2 -198,5l-49 660c-262,20 -524,70 -783,151l-292 -605c-335,111 -650,261 -941,447l295 612c-225,153 -429,329 -609,524l-566 -385c-231,259 -430,547 -591,858l571 389c-118,244 -208,500 -267,764l-691 -51c-54,271 -83,550 -83,836 0,68 2,136 5,203l691 51c20,264 69,529 150,790l-626 302c113,334 266,648 453,938l624 -301c152,225 327,428 520,608l-388 570c261,229 550,426 862,586l385 -566c243,119 500,209 764,270l-50 675c264,52 536,79 815,79 76,0 151,-2 225,-6l49 -666c270,-19 540,-69 806,-152l288 597c333,-114 647,-269 936,-458l-285 -591c229,-156 435,-334 617,-532l537 365c228,-262 424,-552 582,-865l-534 -363c117,-243 206,-499 265,-762l639 48c52,-265 80,-539 80,-819 0,-74 -2,-147 -6,-220l-636 -47c-20,-267 -70,-535 -153,-798l576 -278c-112,-334 -265,-648 -453,-939l-578 279c-157,-229 -336,-436 -535,-617l363 -533c-260,-230 -549,-428 -860,-588l-367 539c-243,-116 -499,-205 -762,-263l49 -655c-272,-55 -553,-84 -841,-84l0 0zm2422 2959c111,221 195,461 243,717 281,1480 -690,2908 -2170,3189 -756,144 -1497,-40 -2080,-451l24 -20c-345,-247 -630,-573 -826,-953l-33 29c-127,-237 -220,-497 -273,-775 -281,-1480 690,-2908 2170,-3189 185,-35 369,-51 550,-48l0 0c582,8 1133,204 1584,537l-35 31c344,249 626,576 821,957l27 -23 0 0z"/>
   </g>
   <g>
    <path class="fil1" d="M12965 10000l-645 0 0 0 -3 -120 -9 -118 -15 -116 -21 -114 -26 -112 -31 -110 -36 -108 -41 -105 -46 -103 -51 -100 -56 -97 -60 -94 -65 -91 -69 -88 -73 -84 -77 -81 -81 -77 -84 -73 -88 -69 -91 -65 -94 -60 -97 -56 -100 -51 -103 -46 -105 -41 -108 -36 -110 -31 -112 -26 -114 -21 -116 -15 -118 -9 -120 -3 0 -645 152 4 150 11 149 19 146 26 144 33 141 40 138 47 135 53 131 59 128 66 124 71 120 77 116 83 112 88 107 93 103 98 98 103 93 108 88 112 83 116 77 120 71 124 66 128 59 131 53 135 47 138 40 141 33 144 26 146 19 148 11 151 4 152 0 0zm-2965 2965l0 -645 0 0 120 -3 118 -9 116 -15 114 -21 112 -26 110 -31 108 -36 105 -41 103 -46 100 -51 97 -56 94 -60 91 -65 88 -69 84 -73 81 -77 77 -81 73 -84 69 -88 65 -91 60 -94 56 -97 51 -100 46 -103 41 -105 36 -108 31 -110 26 -112 21 -114 15 -116 9 -118 3 -120 645 0 -4 152 -11 150 -19 149 -26 146 -33 144 -40 141 -47 138 -53 135 -59 131 -66 128 -71 124 -77 120 -83 116 -88 112 -93 108 -98 103 -103 98 -108 93 -112 88 -116 83 -120 77 -124 71 -128 66 -131 59 -135 53 -138 47 -141 40 -144 33 -146 26 -149 19 -150 11 -152 4 0 0zm-2965 -2965l645 0 0 0 3 120 9 118 15 116 21 114 26 112 31 110 36 108 41 105 46 103 51 100 56 97 60 94 65 91 69 88 73 84 77 81 81 77 84 73 88 69 91 65 94 60 97 56 100 51 103 46 105 41 108 36 110 31 112 26 114 21 116 15 118 9 120 3 0 645 -152 -4 -150 -11 -149 -19 -146 -26 -144 -33 -141 -40 -138 -47 -135 -53 -131 -59 -128 -66 -124 -71 -120 -77 -116 -83 -112 -88 -108 -93 -103 -98 -98 -103 -93 -108 -88 -112 -83 -116 -77 -120 -71 -124 -66 -128 -59 -131 -53 -135 -47 -138 -40 -141 -33 -144 -26 -146 -19 -149 -11 -150 -4 -152 0 0zm2965 -2965l0 645 0 0 -120 3 -118 9 -116 15 -114 21 -112 26 -110 31 -108 36 -105 41 -103 46 -100 51 -97 56 -94 60 -91 65 -88 69 -84 73 -81 77 -77 81 -73 84 -69 88 -65 91 -60 94 -56 97 -51 100 -46 103 -41 105 -36 108 -31 110 -26 112 -21 114 -15 116 -9 118 -3 120 -645 0 4 -152 11 -151 19 -148 26 -146 33 -144 40 -141 47 -138 53 -135 59 -131 66 -128 71 -124 77 -120 83 -116 88 -112 93 -108 98 -103 103 -98 107 -93 112 -88 116 -83 120 -77 124 -71 128 -66 131 -59 135 -53 138 -47 141 -40 144 -33 146 -26 149 -19 150 -11 152 -4 0 0z"/>
   </g>
   <circle class="fil3" cx="10000" cy="10000" r="1091"/>
  </g>
 </g>
</svg>
