<?xml version="1.0" encoding="UTF-8"?>
<!DOCTYPE svg PUBLIC "-//W3C//DTD SVG 1.1//EN" "http://www.w3.org/Graphics/SVG/1.1/DTD/svg11.dtd">
<!-- Creator: CorelDRAW X5 -->
<svg xmlns="http://www.w3.org/2000/svg" xml:space="preserve" width="20mm" height="20mm" style="shape-rendering:geometricPrecision; text-rendering:geometricPrecision; image-rendering:optimizeQuality; fill-rule:evenodd; clip-rule:evenodd"
viewBox="0 0 20000 20000"
 xmlns:xlink="http://www.w3.org/1999/xlink">
 <defs>
  <style type="text/css">
   <![CDATA[
    .fil0 {fill:#CB5499}
    .fil1 {fill:#2A2A29;fill-rule:nonzero}
   ]]>
  </style>
 </defs>
 <g id="Слой_x0020_1">
  <metadata id="CorelCorpID_0Corel-Layer"/>
  <g id="_355550008">
   <rect class="fil0" x="323" y="322" width="19355" height="19355" rx="2168" ry="2168"/>
   <path class="fil1" d="M2491 0l15018 0c685,0 1308,280 1759,731 451,451 731,1074 731,1760l0 15018c0,685 -280,1308 -731,1760l-1 -1c-452,452 -1075,732 -1759,732l-15018 0c-685,0 -1308,-280 -1759,-731 -451,-451 -731,-1074 -731,-1760l0 -15018c0,-684 281,-1307 732,-1759l-1 -1c451,-451 1074,-731 1759,-731zm15018 645l-15018 0c-507,0 -969,208 -1303,543l-1 0c-334,334 -541,795 -541,1303l0 15018c0,507 208,969 543,1303 335,335 796,543 1303,543l15018 0c508,0 969,-207 1303,-541l0 -1c335,-335 543,-796 543,-1303l0 -15018c0,-507 -208,-969 -543,-1303 -335,-335 -796,-542 -1303,-542z"/>
   <g>
    <path class="fil1" d="M10000 4028c1649,0 3142,669 4223,1749 1081,1081 1749,2574 1749,4223 0,1649 -669,3142 -1749,4223 -1081,1081 -2574,1749 -4223,1749 -1649,0 -3142,-669 -4223,-1749 -1081,-1081 -1749,-2574 -1749,-4223 0,-1649 668,-3142 1749,-4223 1081,-1081 2574,-1749 4223,-1749zm3815 2157c-976,-976 -2325,-1580 -3815,-1580 -1490,0 -2839,604 -3815,1580 -976,976 -1580,2325 -1580,3815 0,1490 604,2839 1580,3815 976,976 2325,1580 3815,1580 1490,0 2839,-604 3815,-1580 976,-976 1580,-2325 1580,-3815 0,-1490 -604,-2839 -1580,-3815z"/>
    <path id="1" class="fil1" d="M14234 5766l-23 23 0 0 -102 -100 -105 -97 -107 -95 -109 -92 -111 -90 -114 -87 -116 -85 -118 -82 -120 -79 -122 -76 -124 -73 -126 -70 -128 -67 -129 -64 -131 -61 -133 -58 -134 -55 -136 -52 -138 -48 -139 -45 -141 -42 -142 -39 -143 -35 -145 -32 -146 -28 -147 -25 -149 -21 -150 -17 -151 -13 -152 -10 -153 -6 -154 -2 0 -32 155 2 154 6 153 10 152 14 150 17 149 21 148 25 147 28 146 32 144 35 143 39 141 42 140 45 138 49 137 52 135 55 133 58 132 62 130 65 128 68 126 71 124 74 123 77 121 79 118 82 116 85 114 88 112 90 110 93 107 96 105 98 103 100 0 0zm1754 4234l-32 0 0 0 -2 -154 -6 -153 -10 -152 -13 -151 -17 -150 -21 -149 -25 -147 -28 -146 -32 -145 -35 -143 -39 -142 -42 -141 -45 -139 -48 -138 -52 -136 -55 -134 -58 -133 -61 -131 -64 -129 -67 -128 -70 -126 -73 -124 -76 -122 -79 -120 -82 -118 -85 -116 -87 -114 -90 -111 -92 -109 -95 -107 -97 -105 -100 -102 23 -23 100 103 98 105 96 107 93 110 90 112 88 114 85 116 82 118 79 121 77 123 74 124 71 126 68 128 65 130 62 132 58 133 55 135 52 137 49 138 45 140 42 141 39 143 35 144 32 146 28 147 25 148 21 149 17 150 14 152 10 153 6 154 2 155 0 0zm-1754 4234l-23 -23 0 0 100 -102 97 -105 95 -107 92 -109 90 -111 87 -114 85 -116 82 -118 79 -120 76 -122 73 -124 70 -126 67 -128 64 -129 61 -131 58 -133 55 -134 52 -136 48 -138 45 -139 42 -141 39 -142 35 -143 32 -145 28 -146 25 -147 21 -149 17 -150 13 -151 10 -152 6 -153 2 -154 32 0 -2 155 -6 154 -10 153 -14 152 -17 150 -21 149 -25 148 -28 147 -32 146 -35 144 -39 143 -42 141 -45 140 -49 138 -52 137 -55 135 -58 133 -62 132 -65 130 -68 128 -71 126 -74 124 -77 123 -79 121 -82 118 -85 116 -88 114 -90 112 -93 110 -96 107 -98 105 -100 103 0 0zm-4234 1754l0 -32 0 0 154 -2 153 -6 152 -10 151 -13 150 -17 149 -21 147 -25 146 -28 145 -32 143 -35 142 -39 141 -42 139 -45 138 -48 136 -52 134 -55 133 -58 131 -61 129 -64 128 -67 126 -70 124 -73 122 -76 120 -79 118 -82 116 -85 114 -87 111 -90 109 -92 107 -95 105 -97 102 -100 23 23 -103 100 -105 98 -107 96 -110 93 -112 90 -114 88 -116 85 -118 82 -121 79 -123 77 -124 74 -126 71 -128 68 -130 65 -132 62 -133 58 -135 55 -137 52 -138 49 -140 45 -141 42 -143 39 -144 35 -146 32 -147 28 -148 25 -149 21 -150 17 -152 14 -153 10 -154 6 -155 2 0 0zm-4234 -1754l23 -23 0 0 102 100 105 97 107 95 109 92 111 90 114 87 116 85 118 82 120 79 122 76 124 73 126 70 128 67 129 64 131 61 133 58 134 55 136 52 138 48 139 45 141 42 142 39 143 35 145 32 146 28 147 25 149 21 150 17 151 13 152 10 153 6 154 2 0 32 -155 -2 -154 -6 -153 -10 -152 -14 -150 -17 -149 -21 -148 -25 -147 -28 -146 -32 -144 -35 -143 -39 -141 -42 -140 -45 -138 -49 -137 -52 -135 -55 -134 -58 -132 -62 -130 -65 -128 -68 -126 -71 -125 -74 -122 -77 -121 -79 -118 -82 -116 -85 -114 -88 -112 -90 -110 -93 -107 -96 -105 -98 -103 -100 0 0zm-1754 -4234l32 0 0 0 2 154 6 153 10 152 13 151 17 150 21 149 25 147 28 146 32 145 35 143 38 142 42 141 45 139 48 138 52 136 55 134 58 133 61 131 64 129 67 128 70 126 73 124 76 122 79 120 82 118 84 116 87 114 90 111 92 109 95 107 98 105 100 102 -23 23 -100 -103 -98 -105 -95 -107 -93 -110 -90 -112 -88 -114 -85 -116 -82 -118 -79 -121 -76 -123 -74 -124 -71 -126 -68 -128 -65 -130 -62 -132 -58 -133 -55 -135 -52 -137 -49 -138 -45 -140 -42 -141 -39 -143 -35 -144 -32 -146 -28 -147 -25 -148 -21 -149 -17 -150 -14 -152 -10 -153 -6 -154 -2 -155 0 0zm1754 -4234l23 23 0 0 -100 102 -97 105 -95 107 -92 109 -90 111 -87 114 -84 116 -82 118 -79 120 -76 122 -73 124 -70 126 -67 128 -64 129 -61 131 -58 133 -55 134 -52 136 -48 138 -45 139 -42 141 -38 142 -35 143 -32 145 -28 146 -25 147 -21 149 -17 150 -13 151 -10 152 -6 153 -2 154 -32 0 2 -155 6 -154 10 -153 14 -152 17 -150 21 -149 25 -148 28 -147 32 -146 35 -144 39 -143 42 -141 45 -140 49 -138 52 -137 55 -135 58 -133 62 -132 65 -130 68 -128 71 -126 74 -124 76 -123 79 -121 82 -118 85 -116 88 -114 90 -112 93 -110 96 -107 98 -105 100 -103 0 0zm4234 -1754l0 32 0 0 -154 2 -153 6 -152 10 -151 13 -150 17 -149 21 -147 25 -146 28 -145 32 -143 35 -142 39 -141 42 -139 45 -138 48 -136 52 -134 55 -133 58 -131 61 -129 64 -127 67 -126 70 -124 73 -122 76 -120 79 -118 82 -116 85 -114 87 -111 90 -109 92 -107 95 -105 97 -102 100 -23 -23 103 -100 105 -98 107 -96 110 -93 112 -90 114 -88 117 -85 118 -82 120 -79 123 -77 125 -74 126 -71 128 -68 130 -65 132 -62 133 -58 135 -55 137 -52 138 -49 140 -45 141 -42 143 -39 144 -35 146 -32 147 -28 148 -25 149 -21 150 -17 152 -14 153 -10 154 -6 155 -2 0 0zm0 609l0 -32 0 0 140 2 139 5 138 9 137 12 136 16 135 19 134 22 133 25 132 29 130 32 129 35 128 38 127 41 125 44 124 47 122 50 121 53 119 56 117 58 116 61 114 64 113 67 111 69 109 72 107 74 105 77 103 79 101 82 99 84 97 86 95 88 93 91 -23 23 -92 -90 -95 -88 -97 -86 -99 -83 -101 -81 -103 -79 -105 -76 -106 -74 -108 -71 -110 -69 -112 -66 -114 -64 -115 -61 -117 -58 -118 -55 -120 -53 -121 -50 -123 -47 -124 -44 -126 -41 -127 -38 -128 -35 -130 -32 -131 -29 -132 -25 -133 -22 -134 -19 -135 -16 -136 -12 -137 -9 -138 -5 -139 -2 0 0zm-3804 1576l-23 -23 0 0 93 -91 95 -88 97 -86 99 -84 101 -82 103 -79 105 -77 107 -74 109 -72 111 -69 113 -67 114 -64 116 -61 118 -58 119 -56 121 -53 122 -50 124 -47 125 -44 126 -41 128 -38 129 -35 130 -32 132 -29 133 -25 134 -22 135 -19 136 -16 137 -12 138 -9 139 -5 140 -2 0 32 -139 2 -138 5 -137 9 -136 12 -135 16 -134 19 -133 22 -132 25 -131 29 -130 32 -128 35 -127 38 -126 41 -124 44 -123 47 -121 50 -120 53 -118 55 -117 58 -115 61 -114 64 -112 66 -110 69 -108 71 -106 74 -104 76 -103 79 -101 81 -99 83 -97 86 -95 88 -92 90 0 0zm-1576 3804l-32 0 0 0 2 -140 5 -139 9 -138 12 -137 15 -136 19 -135 22 -134 25 -133 29 -132 32 -130 35 -129 38 -128 41 -126 44 -125 47 -124 50 -122 53 -121 56 -119 59 -118 61 -116 64 -114 67 -113 69 -111 72 -109 74 -107 77 -105 79 -103 82 -101 84 -99 86 -97 89 -95 91 -93 23 23 -90 92 -88 95 -86 97 -83 99 -81 101 -79 103 -76 104 -74 106 -71 108 -69 110 -66 112 -63 114 -61 115 -58 117 -55 118 -53 120 -50 121 -47 123 -44 124 -41 126 -38 127 -35 128 -32 130 -29 131 -25 132 -22 133 -19 134 -15 135 -12 136 -9 137 -5 138 -2 139 0 0zm1576 3804l-23 23 0 0 -91 -93 -88 -95 -86 -97 -84 -99 -82 -101 -79 -103 -77 -105 -74 -107 -72 -109 -69 -111 -67 -113 -64 -114 -61 -116 -58 -117 -56 -119 -53 -121 -50 -122 -47 -124 -44 -125 -41 -127 -38 -128 -35 -129 -32 -130 -29 -132 -25 -133 -22 -134 -19 -135 -16 -136 -12 -137 -9 -138 -5 -139 -2 -140 32 0 2 139 5 138 9 137 12 136 16 135 19 134 22 133 25 132 29 131 32 130 35 128 38 127 41 126 44 124 47 123 50 121 53 120 55 118 58 117 61 115 64 114 66 112 69 110 71 108 74 106 76 105 79 103 81 101 83 99 86 97 88 95 90 92 0 0zm3804 1576l0 32 0 0 -140 -2 -139 -5 -138 -9 -137 -12 -136 -16 -135 -19 -134 -22 -133 -25 -132 -29 -130 -32 -129 -35 -128 -38 -126 -41 -125 -44 -124 -47 -122 -50 -121 -53 -119 -56 -118 -58 -116 -61 -114 -64 -113 -67 -111 -69 -109 -72 -107 -74 -105 -77 -103 -79 -101 -82 -99 -84 -97 -86 -95 -89 -93 -91 23 -23 92 90 95 88 97 86 99 83 101 81 103 79 104 76 106 74 108 71 110 69 112 66 114 63 115 61 117 58 118 55 120 53 121 50 123 47 124 44 126 41 127 38 128 35 130 32 131 29 132 25 133 22 134 19 135 16 136 12 137 9 138 5 139 2 0 0zm3804 -1576l23 23 0 0 -93 91 -95 89 -97 86 -99 84 -101 82 -103 79 -105 77 -107 74 -109 72 -111 69 -113 67 -114 64 -116 61 -118 58 -119 56 -121 53 -122 50 -124 47 -125 44 -127 41 -128 38 -129 35 -130 32 -132 29 -133 25 -134 22 -135 19 -136 16 -137 12 -138 9 -139 5 -140 2 0 -32 139 -2 138 -5 137 -9 136 -12 135 -16 134 -19 133 -22 132 -25 131 -29 130 -32 128 -35 127 -38 126 -41 124 -44 123 -47 121 -50 120 -53 118 -55 117 -58 115 -61 114 -63 112 -66 110 -69 108 -71 106 -74 105 -76 103 -79 101 -81 99 -83 97 -86 95 -88 92 -90 0 0zm1576 -3804l32 0 0 0 -2 140 -5 139 -9 138 -12 137 -16 136 -19 135 -22 134 -25 133 -29 132 -32 130 -35 129 -38 128 -41 127 -44 125 -47 124 -50 122 -53 121 -56 119 -58 118 -61 116 -64 114 -67 113 -69 111 -72 109 -74 107 -77 105 -79 103 -82 101 -84 99 -86 97 -89 95 -91 93 -23 -23 90 -92 88 -95 86 -97 83 -99 81 -101 79 -103 76 -105 74 -106 71 -108 69 -110 66 -112 63 -114 61 -115 58 -117 55 -118 53 -120 50 -121 47 -123 44 -124 41 -126 38 -127 35 -128 32 -130 29 -131 25 -132 22 -133 19 -134 16 -135 12 -136 9 -137 5 -138 2 -139 0 0zm-1576 -3804l23 -23 0 0 91 93 89 95 86 97 84 99 82 101 79 103 77 105 74 107 72 109 69 111 67 113 64 114 61 116 58 118 56 119 53 121 50 122 47 124 44 125 41 126 38 128 35 129 32 130 29 132 25 133 22 134 19 135 16 136 12 137 9 138 5 139 2 140 -32 0 -2 -139 -5 -138 -9 -137 -12 -136 -16 -135 -19 -134 -22 -133 -25 -132 -29 -131 -32 -130 -35 -128 -38 -127 -41 -126 -44 -124 -47 -123 -50 -121 -53 -120 -55 -118 -58 -117 -61 -115 -63 -114 -66 -112 -69 -110 -71 -108 -74 -106 -76 -104 -79 -103 -81 -101 -83 -99 -86 -97 -88 -95 -90 -92 0 0z"/>
   </g>
   <g>
    <path class="fil1" d="M10286 2665l-321 4529 5111 -2659c141,-73 315,-18 388,123 66,127 28,280 -82,363l-3423 2970 5494 1734c152,48 236,210 188,361 -42,134 -173,215 -307,200l-4529 -321 2659 5111c73,141 19,315 -123,388 -127,66 -280,28 -363,-82l-2970 -3423 -1734 5494c-48,152 -210,236 -361,188 -134,-42 -215,-173 -200,-307l321 -4529 -5111 2659c-141,73 -315,19 -388,-123 -66,-127 -28,-280 82,-363l3423 -2970 -5494 -1734c-152,-48 -236,-210 -188,-361 42,-134 173,-215 307,-200l4529 321 -2659 -5111c-73,-141 -18,-315 123,-388 127,-66 280,-28 363,82l2970 3423 1734 -5494c48,-152 210,-236 361,-188 134,42 215,173 200,307zm-931 5001l186 -2621 -1155 3658 -1 0c-16,49 -44,95 -86,131 -120,104 -301,91 -405,-29l-1723 -1986 1771 3405 0 0c24,46 36,98 32,153 -11,159 -149,278 -307,267l-2621 -186 3658 1155 0 1c49,16 95,44 131,86 104,120 91,301 -29,405l-1986 1723 3405 -1771 0 0c46,-24 98,-36 153,-32 159,11 278,149 267,307l-186 2621 1155 -3658 1 0c16,-49 44,-95 86,-131 120,-104 301,-91 405,29l1723 1986 -1771 -3405 0 0c-24,-46 -36,-98 -32,-153 11,-159 149,-278 307,-267l2621 186 -3658 -1155 0 -1c-49,-16 -95,-44 -131,-86 -104,-120 -91,-301 29,-405l1986 -1723 -3405 1771 0 0c-46,24 -98,36 -153,32 -159,-11 -278,-149 -267,-307z"/>
    <path id="1" class="fil1" d="M9949 7193l321 -4529 32 2 -321 4529 -9 13 -24 -15zm24 15l-26 13 2 -29 24 15zm5111 -2659l-5111 2659 -15 -29 5111 -2659 0 0 15 29zm395 101l-29 15 0 0 -7 -12 -7 -12 -8 -11 -8 -11 -9 -10 -9 -10 -10 -9 -10 -9 -10 -8 -11 -8 -11 -7 -11 -7 -12 -6 -12 -5 -12 -5 -12 -4 -12 -4 -13 -3 -13 -2 -13 -2 -13 -1 -13 -1 -13 0 -13 1 -13 1 -13 2 -13 3 -13 3 -13 4 -13 5 -13 6 -13 6 -15 -29 14 -7 14 -6 14 -5 15 -5 15 -4 15 -3 15 -2 15 -2 15 -1 15 0 15 1 15 1 14 2 14 3 14 4 14 4 14 5 14 5 13 6 13 7 13 7 12 8 12 9 12 9 11 10 11 10 10 11 10 12 9 12 9 13 8 13 8 14 0 0zm-86 383l-21 -24 1 -1 10 -8 9 -8 9 -8 8 -9 8 -9 8 -9 7 -9 7 -10 6 -10 6 -10 5 -10 5 -11 4 -11 4 -11 3 -11 3 -11 2 -12 2 -12 2 -12 1 -12 0 -12 0 -12 -1 -12 -1 -12 -2 -12 -2 -12 -3 -12 -3 -12 -4 -12 -4 -12 -5 -11 -6 -11 29 -15 6 13 6 13 5 13 4 13 4 13 3 13 3 13 2 13 1 13 1 13 0 13 0 13 -1 13 -2 13 -2 13 -3 13 -3 13 -4 13 -4 12 -5 12 -6 12 -6 12 -6 11 -7 11 -8 11 -8 11 -8 10 -9 10 -9 10 -10 9 -10 9 -11 9 1 -1zm-21 -24l0 0 1 -1 -1 1zm-3423 2970l3423 -2970 21 24 -3423 2970 -16 3 -6 -28zm6 28l-28 -9 22 -19 6 28zm5494 1734l-5494 -1734 10 -31 5494 1734 -10 31 0 0zm208 351l-31 -10 0 0 4 -13 3 -14 3 -14 2 -14 1 -13 0 -13 0 -13 -1 -13 -2 -13 -2 -13 -3 -13 -3 -13 -4 -13 -5 -12 -5 -12 -6 -12 -6 -11 -7 -11 -7 -11 -8 -10 -9 -10 -9 -10 -9 -9 -10 -9 -10 -8 -11 -8 -11 -7 -12 -7 -12 -6 -13 -6 -13 -5 -13 -5 10 -31 15 5 14 6 14 6 14 7 13 8 13 8 12 9 12 9 11 10 11 10 10 11 9 11 9 12 8 12 8 13 7 13 6 13 6 13 5 14 5 14 4 14 3 14 3 15 2 15 1 15 0 15 0 15 -1 15 -2 15 -3 15 -4 15 -4 15 0 0zm-323 211l2 -32 1 0 12 1 12 1 12 0 12 -1 12 -1 12 -1 11 -2 11 -3 11 -3 11 -3 11 -4 11 -4 11 -5 10 -5 10 -6 10 -6 10 -6 9 -7 9 -7 9 -8 8 -8 8 -8 8 -9 7 -9 7 -9 7 -10 6 -10 6 -10 5 -11 5 -11 5 -11 4 -12 31 10 -5 13 -5 13 -6 13 -6 12 -7 12 -7 11 -7 11 -8 11 -8 10 -9 10 -9 9 -9 9 -10 9 -10 8 -10 8 -11 7 -11 7 -11 6 -12 6 -12 5 -12 5 -12 4 -12 4 -12 3 -13 3 -13 2 -13 2 -13 1 -13 1 -13 0 -13 -1 -13 -1 1 0zm2 -32l1 0 -1 0 1 0zm-4529 -321l4529 321 -2 32 -4529 -321 -13 -9 15 -24zm-15 24l-13 -26 29 2 -15 24zm2659 5111l-2659 -5111 29 -15 2659 5111 0 0 -29 15zm-101 395l-15 -29 0 0 12 -7 12 -7 11 -8 11 -8 10 -9 10 -9 9 -10 9 -10 8 -10 8 -11 7 -11 7 -12 6 -12 6 -12 5 -12 4 -12 4 -13 3 -13 2 -13 2 -13 1 -13 1 -13 0 -13 -1 -13 -1 -13 -2 -13 -3 -13 -3 -13 -4 -13 -5 -13 -6 -13 -6 -13 29 -15 7 14 6 14 5 14 5 15 4 15 3 15 2 15 2 15 1 15 0 15 -1 15 -1 15 -2 14 -3 14 -3 14 -4 14 -5 14 -5 14 -6 13 -7 13 -7 13 -8 12 -9 12 -9 12 -10 11 -10 11 -11 10 -12 10 -12 9 -13 9 -13 8 -14 8 0 0zm-383 -86l24 -21 1 1 8 10 8 9 8 9 9 8 9 8 9 8 9 7 10 7 10 6 10 6 11 5 11 5 11 4 11 4 11 3 11 3 12 2 12 2 12 2 12 1 12 0 12 0 12 -1 12 -1 12 -2 12 -2 12 -3 12 -3 12 -4 12 -4 11 -5 11 -6 15 29 -13 6 -13 6 -13 5 -13 4 -13 4 -13 3 -13 3 -13 2 -13 1 -13 1 -13 0 -13 0 -13 -1 -13 -2 -13 -2 -13 -3 -13 -3 -13 -4 -12 -4 -12 -5 -12 -5 -12 -6 -12 -6 -11 -7 -11 -8 -11 -8 -10 -8 -10 -9 -10 -9 -9 -10 -9 -10 -9 -11 1 1zm24 -21l0 0 1 1 -1 -1zm-2970 -3423l2970 3423 -24 21 -2970 -3423 -3 -16 28 -6zm-28 6l9 -28 19 22 -28 6zm-1734 5494l1734 -5494 31 10 -1734 5494 0 0 -31 -10zm-351 208l10 -31 0 0 13 4 14 3 14 3 14 2 13 1 14 0 13 0 13 -1 13 -2 13 -2 13 -3 13 -3 12 -4 12 -5 12 -5 12 -6 11 -6 11 -7 11 -7 11 -8 10 -8 10 -9 9 -9 9 -10 8 -10 8 -11 7 -11 7 -12 6 -12 6 -13 5 -13 5 -13 31 10 -5 15 -6 14 -6 14 -7 14 -8 13 -8 13 -9 12 -9 12 -10 11 -10 11 -11 10 -11 10 -12 9 -12 8 -13 8 -13 7 -13 6 -13 6 -14 5 -14 5 -14 4 -14 3 -15 3 -15 2 -15 1 -15 0 -15 0 -15 -1 -15 -2 -15 -3 -15 -4 -15 -4 0 0zm-211 -323l32 2 0 1 -1 12 -1 12 0 12 1 12 1 12 1 12 2 11 3 11 3 11 3 11 4 11 4 11 5 11 5 10 6 10 6 10 6 10 7 9 7 9 8 9 8 8 8 8 9 8 9 7 9 7 10 7 10 6 10 6 11 5 11 5 11 5 12 4 -10 31 -13 -5 -13 -5 -13 -6 -12 -6 -12 -7 -11 -7 -11 -7 -11 -8 -10 -8 -10 -9 -9 -9 -9 -9 -9 -10 -8 -10 -8 -10 -7 -11 -7 -11 -6 -11 -6 -12 -5 -12 -5 -12 -4 -12 -4 -12 -3 -12 -3 -13 -2 -13 -2 -13 -1 -13 -1 -13 0 -13 1 -13 1 -13 0 1zm32 2l0 1 0 -1 0 1zm321 -4529l-321 4529 -32 -2 321 -4529 9 -13 24 15zm-24 -15l26 -13 -2 29 -24 -15zm-5111 2659l5111 -2659 15 29 -5111 2659 0 0 -15 -29zm-395 -101l29 -15 0 0 7 12 7 12 8 11 8 11 9 10 9 10 10 9 10 9 10 8 11 8 11 7 11 7 12 6 12 6 12 5 12 4 13 4 13 3 13 2 13 2 13 1 13 1 13 0 13 -1 13 -1 13 -2 13 -3 13 -3 13 -4 13 -5 13 -6 13 -6 15 29 -14 7 -14 6 -14 5 -15 5 -15 4 -15 3 -15 2 -15 2 -15 1 -15 0 -15 -1 -15 -1 -15 -2 -14 -3 -14 -3 -14 -4 -14 -5 -14 -5 -13 -6 -13 -7 -13 -7 -12 -8 -12 -9 -12 -9 -11 -10 -11 -10 -10 -11 -10 -12 -9 -12 -9 -13 -8 -13 -8 -14 0 0zm86 -383l21 24 -1 1 -10 8 -9 8 -9 8 -8 9 -8 9 -8 9 -7 9 -7 10 -6 10 -6 10 -5 11 -5 11 -4 11 -4 11 -3 11 -3 11 -2 12 -2 12 -2 12 -1 12 0 12 0 12 1 12 1 12 2 12 2 12 3 12 3 12 4 12 4 12 5 11 6 11 -29 15 -6 -13 -6 -13 -5 -13 -4 -13 -4 -13 -3 -13 -3 -13 -2 -13 -1 -13 -1 -13 0 -13 0 -13 1 -13 2 -13 2 -13 3 -13 3 -13 4 -13 4 -12 5 -12 5 -12 6 -12 6 -12 7 -11 8 -11 8 -11 8 -10 9 -10 9 -10 10 -9 10 -9 11 -9 -1 1zm21 24l0 0 -1 1 1 -1zm3423 -2970l-3423 2970 -21 -24 3423 -2970 16 -3 6 28zm-6 -28l28 9 -22 19 -6 -28zm-5494 -1734l5494 1734 -10 31 -5494 -1734 0 0 10 -31zm-208 -351l31 10 0 0 -4 13 -3 14 -2 14 -2 14 -1 13 0 14 0 13 1 13 2 13 2 13 3 13 3 13 4 13 5 12 5 12 6 12 6 12 7 11 7 11 8 11 8 10 9 10 9 9 10 9 10 8 11 8 11 7 12 7 12 6 13 6 13 5 13 5 -10 31 -15 -5 -14 -6 -14 -6 -14 -7 -13 -8 -13 -8 -12 -9 -12 -9 -11 -10 -10 -10 -10 -11 -9 -11 -9 -12 -8 -12 -8 -13 -7 -13 -6 -13 -6 -14 -5 -14 -5 -14 -4 -14 -3 -14 -3 -15 -2 -15 -1 -15 0 -15 0 -15 1 -15 2 -15 3 -15 4 -15 4 -15 0 0zm31 10l0 0 -7 23 7 -23zm293 -221l-2 32 -1 0 -12 -1 -12 -1 -12 0 -12 1 -12 1 -12 1 -11 2 -11 3 -11 3 -11 3 -11 4 -11 4 -11 5 -10 5 -10 6 -10 6 -10 6 -9 7 -9 7 -9 8 -8 8 -8 8 -8 9 -7 9 -7 9 -7 10 -6 10 -6 10 -5 11 -5 11 -5 11 -4 12 -31 -10 5 -13 5 -13 6 -12 6 -12 7 -12 7 -11 7 -11 8 -11 8 -10 9 -10 9 -9 9 -9 10 -8 10 -8 11 -8 11 -7 11 -7 11 -6 12 -6 12 -5 12 -5 12 -4 12 -4 12 -3 13 -3 13 -2 13 -2 13 -1 13 -1 13 0 13 1 13 1 -1 0zm-2 32l-1 0 1 0 -1 0zm4529 321l-4529 -321 2 -32 4529 321 13 9 -15 24zm15 -24l13 26 -29 -2 15 -24zm-2659 -5111l2659 5111 -29 15 -2659 -5111 0 0 29 -15zm101 -395l15 29 0 0 -12 7 -12 7 -11 8 -11 8 -10 9 -10 9 -9 10 -9 10 -8 10 -8 11 -7 11 -7 11 -6 12 -5 12 -5 12 -4 12 -4 13 -3 13 -2 13 -2 13 -1 13 -1 13 0 13 1 13 1 13 2 13 3 13 3 13 4 13 5 13 6 13 6 13 -29 15 -7 -14 -6 -14 -5 -14 -5 -15 -4 -15 -3 -15 -2 -15 -2 -15 -1 -15 0 -15 1 -15 1 -15 2 -15 3 -14 4 -14 4 -14 5 -14 5 -14 6 -13 7 -13 7 -13 8 -12 9 -12 9 -12 10 -11 10 -11 11 -10 12 -10 12 -9 13 -9 13 -8 14 -8 0 0zm383 86l-24 21 -1 -1 -8 -10 -8 -9 -8 -9 -9 -8 -9 -8 -9 -8 -9 -7 -10 -7 -10 -6 -10 -6 -10 -5 -11 -5 -11 -4 -11 -4 -11 -3 -11 -3 -12 -2 -12 -2 -12 -2 -12 -1 -12 0 -12 0 -12 1 -12 1 -12 2 -12 2 -12 3 -12 3 -12 4 -12 4 -11 5 -11 6 -15 -29 13 -6 13 -6 13 -5 13 -4 13 -4 13 -3 13 -3 13 -2 13 -1 13 -1 13 0 13 0 13 1 13 2 13 2 13 3 13 3 13 4 12 4 12 5 12 6 12 6 11 6 11 7 11 8 11 8 10 8 10 9 10 9 9 10 9 10 9 11 -1 -1zm-24 21l0 0 -1 -1 1 1zm2970 3423l-2970 -3423 24 -21 2970 3423 3 16 -28 6zm28 -6l-9 28 -19 -22 28 -6zm1734 -5494l-1734 5494 -31 -10 1734 -5494 31 10 0 0zm351 -208l-10 31 0 0 -13 -4 -14 -3 -14 -2 -14 -2 -13 -1 -13 0 -13 0 -13 1 -13 2 -13 2 -13 3 -13 3 -13 4 -12 5 -12 5 -12 6 -12 6 -11 7 -11 7 -10 8 -10 8 -10 9 -9 9 -9 10 -8 10 -8 11 -7 11 -7 12 -6 12 -6 13 -5 13 -5 13 -31 -10 5 -15 6 -14 6 -14 7 -14 8 -13 8 -13 9 -12 9 -12 10 -11 10 -11 11 -10 11 -9 12 -9 12 -8 13 -8 13 -7 13 -6 14 -6 14 -5 14 -5 14 -4 14 -3 15 -3 15 -2 15 -1 15 0 15 0 15 1 15 2 15 3 15 4 15 4 0 0zm-10 31l0 0 -20 -6 20 6zm221 293l-32 -2 0 -1 1 -12 1 -12 0 -12 -1 -12 -1 -12 -1 -12 -2 -11 -3 -11 -3 -11 -3 -11 -4 -11 -4 -11 -5 -11 -5 -10 -6 -10 -6 -10 -6 -10 -7 -9 -7 -9 -8 -9 -8 -8 -8 -8 -9 -8 -9 -7 -9 -7 -10 -7 -10 -6 -10 -6 -11 -5 -11 -5 -11 -5 -12 -4 10 -31 13 5 13 5 12 6 12 6 12 7 11 7 11 7 11 8 10 8 10 9 9 9 9 9 8 10 8 10 8 11 7 11 7 11 6 11 6 12 5 12 5 12 4 12 4 12 3 12 3 13 2 13 2 13 1 13 1 13 0 13 -1 13 -1 13 0 -1zm-32 -2l0 -1 0 1 0 -1zm-714 2383l-186 2621 -32 -2 186 -2621 1 -4 32 6zm-32 -6l41 -131 -10 137 -32 -6zm-1155 3658l1155 -3658 31 10 -1155 3658 -20 11 -11 -20zm31 10l-5 15 -15 -4 20 -11zm-12 -21l1 0 -9 31 -1 0 -11 -20 20 -11zm-20 11l5 -15 15 4 -20 11zm-60 148l-21 -24 0 0 4 -3 4 -3 4 -3 3 -3 3 -3 3 -4 3 -3 3 -4 3 -4 3 -4 3 -4 3 -4 3 -4 3 -4 3 -4 3 -4 3 -4 2 -4 2 -4 2 -4 2 -4 2 -4 2 -4 2 -4 2 -4 2 -4 2 -4 2 -4 2 -4 2 -4 2 -4 1 -4 31 10 -2 5 -2 5 -2 5 -2 5 -2 5 -2 5 -2 5 -2 5 -2 5 -2 5 -2 5 -2 4 -3 5 -3 5 -3 5 -3 4 -3 4 -3 4 -3 4 -3 4 -3 4 -3 4 -3 4 -3 4 -4 4 -4 4 -4 4 -4 4 -4 4 -4 4 -4 4 -4 4 0 0zm0 0l0 0 0 0 0 0zm-428 -31l24 -21 0 0 9 10 10 10 10 9 11 9 11 8 11 7 11 7 12 6 12 6 12 5 13 4 13 4 13 3 13 2 13 2 13 1 13 1 13 0 13 -1 13 -1 13 -2 13 -3 13 -3 13 -4 13 -5 12 -5 12 -6 12 -6 12 -7 11 -8 11 -8 11 -9 21 24 -12 10 -12 9 -13 8 -13 8 -13 7 -14 6 -14 6 -14 5 -14 4 -14 4 -14 3 -15 2 -15 1 -15 1 -15 0 -15 -1 -15 -1 -15 -2 -14 -3 -14 -4 -14 -4 -14 -5 -14 -6 -13 -6 -13 -7 -13 -8 -13 -8 -12 -9 -12 -10 -11 -10 -11 -11 -11 -12 0 0zm24 -21l0 0 -28 -32 28 32zm-1723 -1986l1723 1986 -24 21 -1723 -1986 -2 -3 27 -18zm-27 18l-63 -121 90 103 -27 18zm1771 3405l-1771 -3405 29 -15 1771 3405 -7 22 -22 -7zm29 -15l8 15 -15 7 7 -22zm-22 -7l0 0 14 29 0 0 -22 -7 7 -22zm-7 22l-8 -15 15 -7 -7 22zm62 147l-32 -2 0 0 0 -5 0 -5 0 -5 0 -5 0 -5 0 -5 0 -5 0 -5 0 -5 0 -5 -1 -5 -1 -5 -1 -5 -1 -5 -1 -5 -1 -5 -1 -5 -1 -4 -1 -5 -1 -4 -1 -5 -1 -4 -1 -4 -2 -4 -2 -5 -2 -4 -2 -4 -2 -4 -2 -4 -2 -4 -2 -4 -2 -4 29 -15 2 5 2 5 2 5 2 5 2 5 2 5 2 5 2 5 2 5 2 5 1 5 2 5 1 5 1 5 1 5 1 5 1 5 1 5 1 5 1 5 1 5 1 5 1 5 0 5 0 5 0 5 0 6 0 5 0 5 0 5 0 5 0 5 0 0zm-32 -2l0 0 0 0 0 0zm-292 284l2 -32 0 0 14 1 14 0 14 -1 14 -1 13 -2 13 -3 13 -3 13 -4 12 -5 12 -5 12 -6 12 -6 11 -7 11 -7 11 -8 10 -8 10 -9 9 -9 9 -10 8 -10 8 -11 7 -11 7 -11 6 -12 6 -12 5 -12 5 -13 4 -13 3 -13 3 -13 2 -14 1 -14 32 2 -2 16 -2 15 -3 15 -4 15 -4 14 -5 14 -6 14 -6 13 -7 13 -8 13 -8 12 -9 12 -9 11 -10 11 -10 10 -11 10 -11 9 -12 9 -12 8 -13 8 -13 7 -13 7 -14 6 -14 5 -14 4 -14 4 -15 3 -15 3 -15 2 -15 1 -15 0 -16 -1 0 0zm-2618 -218l2621 186 -2 32 -2621 -186 -4 -1 6 -32zm-6 32l-130 -41 136 10 -6 32zm3658 1155l-3658 -1155 10 -31 3658 1155 10 21 -20 10zm10 -31l16 5 -5 16 -10 -21zm-20 11l0 -1 31 10 0 1 -20 10 -10 -21zm10 21l-16 -5 5 -16 10 21zm148 60l-24 21 0 0 -3 -4 -3 -4 -3 -4 -3 -4 -3 -3 -4 -3 -3 -3 -4 -3 -4 -3 -4 -3 -4 -3 -4 -3 -4 -3 -4 -3 -4 -3 -4 -3 -4 -3 -4 -2 -4 -3 -4 -2 -4 -2 -4 -2 -4 -2 -4 -2 -4 -2 -4 -2 -4 -2 -4 -2 -4 -2 -4 -2 -4 -2 -4 -1 10 -31 5 2 5 2 5 2 5 2 5 2 5 2 5 2 5 2 5 2 5 2 5 2 5 2 5 3 4 3 5 3 4 3 4 3 4 3 4 3 4 3 4 3 4 3 4 3 4 3 4 4 4 4 4 4 4 4 4 4 4 4 4 4 4 4 0 0zm-31 428l-21 -24 0 0 10 -9 10 -10 9 -10 9 -11 8 -11 7 -11 7 -11 6 -12 6 -12 5 -12 4 -12 4 -13 3 -13 2 -13 2 -13 1 -13 1 -13 0 -13 -1 -13 -1 -13 -2 -13 -3 -13 -3 -13 -4 -13 -5 -13 -5 -12 -6 -12 -6 -12 -7 -12 -8 -11 -8 -11 -9 -11 24 -21 10 12 9 12 8 13 8 13 7 13 6 14 6 14 5 14 4 14 4 14 3 14 2 15 1 15 1 15 0 15 -1 14 -1 15 -2 14 -3 14 -4 14 -4 14 -5 14 -6 14 -6 13 -7 13 -8 13 -8 13 -9 12 -10 12 -10 11 -11 11 -12 11 0 0zm-21 -24l0 0 -32 28 32 -28zm-1986 1723l1986 -1723 21 24 -1986 1723 -3 2 -18 -27zm18 27l-121 63 103 -90 18 27zm3405 -1771l-3405 1771 -15 -29 3405 -1771 22 7 -7 22zm-15 -29l15 -8 7 15 -22 -7zm-7 22l0 0 29 -14 0 0 -7 22 -22 -7zm22 7l-15 8 -7 -15 22 7zm147 -62l-2 32 0 0 -5 0 -5 0 -5 0 -5 0 -5 0 -5 0 -5 0 -5 0 -5 0 -5 0 -5 1 -5 1 -5 1 -5 1 -5 1 -5 1 -5 1 -4 1 -5 1 -4 1 -5 1 -4 1 -4 1 -4 2 -5 2 -4 2 -4 2 -4 2 -4 2 -4 2 -4 2 -4 2 -15 -29 5 -2 5 -2 5 -2 5 -2 5 -2 5 -2 5 -2 5 -2 5 -2 5 -2 5 -1 5 -2 5 -1 5 -1 5 -1 5 -1 5 -1 5 -1 5 -1 5 -1 5 -1 5 -1 5 -1 5 0 5 0 5 0 6 0 5 0 5 0 5 0 5 0 5 0 0 0zm282 325l-32 -2 0 0 1 -14 0 -14 -1 -14 -1 -14 -2 -13 -3 -13 -3 -13 -4 -13 -5 -12 -5 -12 -6 -12 -6 -12 -7 -11 -7 -11 -8 -10 -8 -10 -9 -10 -9 -9 -10 -9 -10 -8 -11 -8 -11 -7 -11 -7 -12 -6 -12 -6 -12 -5 -13 -5 -13 -4 -13 -3 -14 -3 -14 -2 -14 -1 2 -32 16 2 15 2 15 3 15 4 14 4 14 5 14 6 13 6 13 7 13 8 12 8 12 9 11 9 11 10 10 10 10 11 9 11 9 12 8 12 8 13 7 13 7 13 6 14 5 14 4 14 4 14 3 15 3 15 2 15 1 15 0 15 -1 16 0 0zm-218 2618l186 -2621 32 2 -186 2621 -1 4 -32 -6zm32 6l-41 130 10 -136 32 6zm1155 -3658l-1155 3658 -31 -10 1155 -3658 21 -10 10 20zm-31 -10l5 -16 16 5 -21 10zm11 20l-1 0 10 -31 1 0 10 20 -21 10zm21 -10l-5 16 -16 -5 21 -10zm60 -148l21 24 0 0 -4 3 -4 3 -4 3 -4 3 -3 3 -3 4 -3 3 -3 4 -3 4 -3 4 -3 4 -3 4 -3 4 -3 4 -3 4 -3 4 -3 4 -2 4 -3 4 -2 4 -2 4 -2 4 -2 4 -2 4 -2 4 -2 4 -2 4 -2 4 -2 4 -2 4 -2 4 -1 4 -31 -10 2 -5 2 -5 2 -5 2 -5 2 -5 2 -5 2 -5 2 -5 2 -5 2 -5 2 -5 2 -5 3 -5 3 -4 3 -5 3 -4 3 -4 3 -4 3 -4 3 -4 3 -4 3 -4 3 -4 3 -4 4 -4 4 -4 4 -4 4 -4 4 -4 4 -4 4 -4 4 -4 0 0zm428 31l-24 21 0 0 -9 -10 -10 -10 -10 -9 -11 -9 -11 -8 -11 -7 -11 -7 -12 -6 -12 -6 -12 -5 -12 -4 -13 -4 -13 -3 -13 -2 -13 -2 -13 -1 -13 -1 -13 0 -13 1 -13 1 -13 2 -13 3 -13 3 -13 4 -13 4 -12 5 -12 6 -12 6 -12 7 -11 8 -11 8 -11 9 -21 -24 12 -10 12 -9 13 -9 13 -8 13 -7 14 -6 14 -6 14 -5 14 -4 14 -3 14 -3 15 -2 15 -2 15 -1 15 0 15 1 15 1 14 2 14 3 14 3 14 4 14 5 14 6 13 6 13 7 13 8 13 8 12 9 12 10 11 10 11 11 11 12 0 0zm-24 21l0 0 28 32 -28 -32zm1723 1986l-1723 -1986 24 -21 1723 1986 2 3 -27 18zm27 -18l63 121 -90 -103 27 -18zm-1771 -3405l1771 3405 -29 15 -1771 -3405 7 -22 22 7zm-29 15l-8 -15 15 -7 -7 22zm22 7l0 0 -14 -29 0 0 22 7 -7 22zm7 -22l8 15 -15 7 7 -22zm-62 -147l32 2 0 0 0 5 0 5 0 5 0 5 0 5 0 5 0 5 0 5 0 5 0 5 1 5 1 5 1 5 1 5 1 5 1 5 1 5 1 4 1 5 1 4 1 5 1 4 1 4 2 5 2 4 2 4 2 4 2 4 2 4 2 4 2 4 2 4 -29 15 -2 -5 -2 -5 -2 -5 -2 -5 -2 -5 -2 -5 -2 -5 -2 -5 -2 -5 -2 -5 -1 -5 -2 -5 -1 -5 -1 -5 -1 -5 -1 -5 -1 -5 -1 -5 -1 -5 -1 -5 -1 -5 -1 -5 -1 -5 0 -5 0 -5 0 -6 0 -5 0 -5 0 -5 0 -5 0 -5 0 -5 0 0zm325 -282l-2 32 0 0 -14 -1 -14 0 -14 1 -14 1 -13 2 -13 3 -13 3 -13 4 -12 5 -12 5 -12 6 -12 6 -11 7 -11 7 -10 8 -10 8 -10 9 -9 9 -9 10 -8 10 -8 11 -7 11 -7 11 -6 12 -6 12 -5 12 -5 13 -4 13 -3 13 -3 14 -2 14 -1 14 -32 -2 2 -16 2 -15 3 -15 4 -15 4 -14 5 -14 6 -14 6 -13 7 -13 8 -13 8 -12 9 -12 9 -11 10 -11 10 -10 11 -10 11 -9 12 -9 12 -8 13 -8 13 -7 13 -7 14 -6 14 -5 14 -4 14 -4 15 -3 15 -3 15 -2 15 -1 15 0 16 1 0 0zm2618 218l-2621 -186 2 -32 2621 186 4 1 -6 32zm6 -32l131 41 -137 -10 6 -32zm-3658 -1155l3658 1155 -10 31 -3658 -1155 -11 -20 20 -11zm-10 31l-15 -5 4 -15 11 20zm21 -12l0 1 -31 -9 0 -1 20 -11 11 20zm-11 -20l15 5 -4 15 -11 -20zm-148 -60l24 -21 0 0 3 4 3 4 3 4 3 4 3 3 4 3 4 3 4 3 3 3 4 3 4 3 4 3 4 3 4 3 4 3 4 3 4 2 4 3 4 2 4 2 4 2 4 2 4 2 4 2 4 2 4 2 4 2 4 2 4 2 4 2 4 2 4 1 -10 31 -5 -2 -5 -2 -5 -2 -5 -2 -5 -2 -5 -2 -5 -2 -5 -2 -5 -2 -5 -2 -5 -2 -4 -2 -5 -3 -5 -3 -4 -3 -4 -3 -5 -3 -4 -3 -4 -3 -4 -3 -4 -3 -4 -3 -4 -3 -4 -4 -4 -4 -4 -4 -4 -4 -4 -4 -4 -4 -4 -4 -4 -4 -4 -4 0 0zm31 -428l21 24 0 0 -10 9 -10 10 -9 10 -9 11 -8 11 -7 11 -7 11 -6 12 -6 12 -5 12 -4 13 -4 13 -3 13 -2 13 -2 13 -1 13 -1 13 0 13 1 13 1 13 2 13 3 13 3 13 4 13 5 13 5 12 6 12 6 12 7 12 8 11 8 11 9 11 -24 21 -10 -12 -9 -12 -8 -13 -8 -13 -7 -13 -6 -14 -6 -14 -5 -14 -4 -14 -4 -14 -3 -14 -2 -15 -1 -15 -1 -15 0 -15 1 -15 1 -15 2 -15 3 -14 4 -14 4 -14 5 -14 6 -14 6 -13 7 -13 8 -13 8 -13 9 -12 10 -12 10 -11 11 -11 12 -11 0 0zm21 24l0 0 32 -28 -32 28zm1986 -1723l-1986 1723 -21 -24 1986 -1723 3 -2 18 27zm-18 -27l121 -63 -103 90 -18 -27zm-3405 1771l3405 -1771 15 29 -3405 1771 -22 -7 7 -22zm15 29l-15 8 -7 -15 22 7zm7 -22l0 0 -29 14 0 0 7 -22 22 7zm-22 -7l15 -8 7 15 -22 -7zm-147 62l2 -32 0 0 5 0 5 0 5 0 5 0 5 0 5 0 5 0 5 0 5 0 5 0 5 -1 5 -1 5 -1 5 -1 5 -1 5 -1 5 -1 4 -1 5 -1 4 -1 5 -1 4 -1 4 -1 5 -2 4 -2 4 -2 4 -2 4 -2 4 -2 4 -2 4 -2 4 -2 15 29 -5 2 -5 2 -5 2 -5 2 -5 2 -5 2 -5 2 -5 2 -5 2 -5 2 -5 1 -5 2 -5 1 -5 1 -5 1 -5 1 -5 1 -5 1 -5 1 -5 1 -5 1 -5 1 -5 1 -5 0 -5 0 -6 0 -5 0 -5 0 -5 0 -5 0 -5 0 -5 0 0 0zm-282 -325l32 2 0 0 -1 14 0 14 1 14 1 14 2 13 3 13 3 13 4 13 5 12 5 12 6 12 6 12 7 11 7 11 8 11 8 10 9 10 9 9 10 9 10 8 11 8 11 7 11 7 12 6 12 6 12 5 13 5 13 4 13 3 13 3 14 2 14 1 -2 32 -16 -2 -15 -2 -15 -3 -15 -4 -14 -4 -14 -5 -14 -6 -13 -6 -13 -7 -13 -8 -12 -8 -12 -9 -11 -9 -11 -10 -10 -10 -10 -11 -9 -11 -9 -12 -8 -12 -8 -13 -7 -13 -7 -13 -6 -14 -5 -14 -4 -14 -4 -14 -3 -15 -3 -15 -2 -15 -1 -15 0 -15 1 -16 0 0z"/>
   </g>
  </g>
 </g>
</svg>
