<?xml version="1.0" encoding="utf-8"?>
<!-- Svg Vector Icons : http://www.onlinewebfonts.com/icon -->
<!DOCTYPE svg PUBLIC "-//W3C//DTD SVG 1.1//EN" "http://www.w3.org/Graphics/SVG/1.1/DTD/svg11.dtd">
<svg version="1.1" xmlns="http://www.w3.org/2000/svg" xmlns:xlink="http://www.w3.org/1999/xlink" x="0px" y="0px" viewBox="0 0 1000 1000" enable-background="new 0 0 1000 1000" xml:space="preserve">
<metadata> Svg Vector Icons : http://www.onlinewebfonts.com/icon </metadata>
<g><g transform="translate(0.000000,512.000000) scale(0.100000,-0.100000)"><path d="M2758.6,3770.1C810.1,2658,565.1,2512.6,536.4,2453.2C503.9,2392,502,2240.8,502,120c0-2120.8,1.9-2272,34.4-2333.2c28.7-59.3,273.7-204.8,2222.2-1316.9C4182.7-4343.6,4965.5-4780,5000-4780s817.3,436.4,2241.4,1249.9C9189.9-2418,9434.9-2272.6,9463.6-2213.2c32.5,61.3,34.5,212.5,34.5,2333.2c0,2120.8-1.9,2272-34.5,2333.2c-28.7,59.3-273.7,204.8-2222.2,1316.9C5817.3,4583.6,5034.5,5020,5000,5020S4182.7,4583.6,2758.6,3770.1z M7046.1,3412.2l2028.9-1158V120v-2134.2L7038.5-3177.9L5000-4339.8L2961.5-3177.9L925-2014.2V120v2134.2L2957.7,3416c1117.8,639.3,2038.5,1159.9,2046.1,1158C5011.5,4572.1,5930.2,4049.6,7046.1,3412.2z"/></g></g>
</svg>