<?xml version="1.0" encoding="UTF-8"?>
<!DOCTYPE svg PUBLIC "-//W3C//DTD SVG 1.1//EN" "http://www.w3.org/Graphics/SVG/1.1/DTD/svg11.dtd">
<!-- Creator: CorelDRAW X5 -->
<svg xmlns="http://www.w3.org/2000/svg" xml:space="preserve" width="34.611mm" height="39.964mm" style="shape-rendering:geometricPrecision; text-rendering:geometricPrecision; image-rendering:optimizeQuality; fill-rule:evenodd; clip-rule:evenodd"
viewBox="0 0 34611 39964"
 xmlns:xlink="http://www.w3.org/1999/xlink">
 <defs>
  <style type="text/css">
   <![CDATA[
    .fil0 {fill:#9E9E9D}
    .fil1 {fill:#2A2A29;fill-rule:nonzero}
    .fil2 {fill:#FEFEFE;fill-rule:nonzero}
   ]]>
  </style>
 </defs>
 <g id="Слой_x0020_1">
  <metadata id="CorelCorpID_0Corel-Layer"/>
  <g id="_126646368">
   <polygon class="fil0" points="17306,288 8778,5212 250,10135 250,19982 250,29829 8778,34752 17306,39676 25833,34752 34361,29829 34361,19982 34361,10135 25833,5212 "/>
   <path class="fil1" d="M17306 576l-8403 4851 -8403 4851 0 9703 0 9704 8402 4851 1 0 8403 4851 8403 -4851 1 0 8402 -4851 0 -9704 0 -9703 -8403 -4851 -8403 -4851zm-8653 4420l8528 -4924 125 -72 125 72 8528 4924 8528 4924 125 72 0 144 0 9847 0 9847 0 143 -126 73 -8527 4923 0 0 -8528 4924 -125 72 -125 -72 -8528 -4924 0 0 -8527 -4923 -126 -73 0 -143 0 -9847 0 -9847 0 -144 125 -72 8528 -4924z"/>
   <path class="fil2" d="M1203 21619c-86,107 -243,124 -351,38 -107,-86 -124,-243 -38,-351l1313 -1623 -153 -547 -35 -126 84 -101 580 -693 -199 -549 -53 -146 107 -112 1822 -1903 79 -82 114 6 1139 59 463 -1239 34 -91 86 -44 631 -323 2250 -3591 73 -117 138 -1 486 -2 748 -1401 50 -94 102 -29 474 -135 243 -855 35 -124 123 -43 743 -261 1129 -1916 184 -312 225 281 3011 3759 226 -381 203 -342 220 331 4147 6234 1348 457 84 29 47 76 1820 2917 3078 1437 45 21 33 36 819 888 3285 1424c126,54 184,201 130,327 -54,126 -201,184 -327,130l-3335 -1446 -50 -22 -35 -38 -821 -890 -3100 -1447 -68 -32 -39 -62 -1812 -2903 -1344 -455 -81 -27 -47 -71 -3974 -5974 -207 349 -184 311 -225 -281 -3011 -3759 -992 1683 -47 79 -86 30 -706 248 -246 865 -38 134 -135 38 -507 144 -768 1439 -70 131 -150 0 -498 2 -2214 3533 -37 59 -61 31 -605 310 -493 1319 -64 172 -182 -9 -1207 -62 -1636 1709 195 538 49 135 -92 110 -588 703 152 544 35 123 -80 99 -1393 1723z"/>
   <path class="fil2" d="M13387 5379c-16,-137 83,-261 220,-276 137,-16 261,83 276,220l309 2639 1826 1647 74 67 8 100 129 1686 1777 1479 62 51 21 76 976 3613 741 8 202 2 40 198 191 951 725 272 113 43 37 113 505 1531 2062 1159 109 61 16 125 180 1391c17,136 -79,261 -216,278 -136,17 -261,-79 -278,-216l-164 -1266 -2038 -1146 -85 -48 -30 -92 -498 -1510 -742 -278 -130 -49 -27 -136 -178 -889 -729 -8 -190 -2 -49 -183 -1005 -3720 -1797 -1496 -82 -68 -8 -105 -129 -1691 -1822 -1643 -70 -63 -11 -94 -320 -2733z"/>
   <path class="fil2" d="M9825 10561c-127,-54 -186,-201 -132,-327 54,-127 201,-186 327,-132l1233 529 144 62 7 157 97 2062 1478 1431 62 60 12 86 420 3060 217 1580 -689 -1439 -710 -1483 -415 -19 -207 -10 -30 -204 -126 -871 -1771 -1379 -100 -78 4 -126 60 -1772 -391 -77 -188 -37 -14 -192 -76 -1092c-9,-138 95,-257 232,-266 138,-9 257,95 266,232l63 900 411 81 208 41 -7 212 -63 1858 1751 1363 80 62 14 99 111 766 358 17 150 7 64 135 85 178 -192 -1395 -1487 -1440 -71 -68 -5 -100 -94 -2005 -1089 -467z"/>
   <path class="fil2" d="M5672 15972c-124,-60 -176,-210 -115,-334 60,-124 210,-176 334,-115l1647 804 83 41 37 85 1968 4560 334 773 -701 -466 -3842 -2556 -114 -76 3 -137 13 -599 -1288 -508 -166 -65 7 -177 52 -1235c5,-138 121,-245 259,-239 138,5 245,121 239,259l-44 1058 1284 506 162 64 -4 173 -14 636 3027 2013 -1598 -3702 -1564 -763z"/>
   <path class="fil2" d="M12251 7483c-76,-115 -45,-270 70,-346 115,-76 270,-45 346,70l655 985 51 77 -12 93 -268 2111 -155 1222 -332 -1186 -388 -1384 -936 -259c-133,-37 -210,-174 -174,-307 37,-133 174,-210 307,-174l1072 296 136 38 38 135 93 333 101 -796 -604 -908z"/>
   <path class="fil2" d="M18833 11055c-118,71 -271,32 -342,-86 -71,-118 -32,-271 86,-342l477 -287 53 -32 62 -3 594 -32 302 -690 50 -115 122 -28 439 -102 894 -1654 173 -319 237 275 3601 4192 643 103 88 14 59 67 2020 2287 572 -183 169 -54 107 141 4565 6026c83,110 61,267 -49,350 -110,83 -267,61 -350,-49l-4458 -5886 -559 179 -155 50 -108 -122 -2069 -2342 -646 -104 -91 -15 -60 -70 -3424 -3986 -775 1434 -54 100 -109 25 -427 100 -313 716 -62 141 -154 8 -686 36 -424 255z"/>
   <path class="fil2" d="M21545 7846c-25,-135 65,-265 200,-290 135,-25 265,65 290,200l548 2985 927 383 118 49 30 124 446 1856 1547 680 109 48 32 113 467 1657 912 413 96 43 36 100 540 1503 1005 644 35 22 26 33 2770 3478c86,108 68,265 -40,351 -108,86 -265,68 -351,-40l-2744 -3446 -1041 -667 -71 -45 -29 -81 -533 -1483 -923 -417 -106 -48 -32 -112 -467 -1656 -1552 -682 -114 -50 -29 -121 -445 -1853 -935 -386 -126 -52 -25 -134 -572 -3118z"/>
   <path class="fil2" d="M19909 10335c-97,-98 -97,-256 1,-353 98,-97 256,-97 353,1l1400 1410 46 46 18 63 703 2520 366 1314 -808 -1100 -1373 -1869 -575 -168 -100 -29 -50 -90 -778 -1412c-66,-121 -22,-273 99,-339 121,-66 273,-22 339,99l729 1322 557 163 82 24 50 68 615 837 -319 -1143 -1355 -1364z"/>
   <path class="fil2" d="M3105 23402c-125,58 -273,3 -331,-122 -58,-125 -3,-273 122,-331l5652 -2605 147 -68 122 106 1823 1586 979 -226 100 -23 87 53 2202 1355 2355 -976 79 -33 82 22 2268 609 1415 -1461 108 -112 147 49 3295 1084 3304 -569 59 -10 59 19 3544 1134 2094 -1220c119,-69 272,-28 341,91 69,119 28,272 -91,341l-2189 1275 -95 55 -106 -34 -3591 -1149 -3306 569 -61 10 -58 -19 -3207 -1054 -1409 1454 -102 105 -141 -38 -2328 -625 -2395 993 -118 49 -108 -67 -2224 -1369 -1003 232 -124 29 -96 -83 -1797 -1564 -5505 2538z"/>
   <path class="fil2" d="M10605 10755l-1216 702 -250 -432 1216 -702 250 432zm6227 -1388l-956 552 -250 -432 956 -552 250 432zm-5488 3169l-1363 787 -250 -432 1363 -787 250 432zm-5953 3437l-1111 641 -248 -432 1111 -641 248 432zm10869 -7379l-1190 687 -248 -432 1190 -687 248 432zm-628 -741l-1234 713 -250 -432 1234 -713 250 432zm-2475 1428l-531 306 -248 -432 531 -306 248 432zm1922 -2213l-1047 605 -248 -432 1047 -605 248 432zm-2038 1177l-1212 700 -250 -432 1212 -700 250 432zm1331 -1872l-399 230 -250 -432 399 -230 250 432zm17622 11896l-2385 1377 -250 -432 2385 -1377 250 432zm-3718 2147l-3853 2224 -250 -432 3853 -2224 250 432zm3149 -2921l-2424 1400 -250 -432 2424 -1400 250 432zm-4042 2334l-3632 2097 -250 -432 3632 -2097 250 432zm3459 -3101l-2759 1593 -248 -432 2759 -1593 248 432zm-4524 2612l-3108 1794 -248 -432 3108 -1794 248 432zm3939 -3377l-2693 1555 -250 -432 2693 -1555 250 432zm-4944 2854l-3028 1748 -250 -432 3028 -1748 250 432zm4367 -3625l-2471 1421 -248 -432 2471 -1421 248 432zm-5050 2939l-3196 1845 -250 -432 3196 -1845 250 432zm3887 -3371l-2155 1244 -248 -432 2155 -1244 248 432zm-4403 2543l-2967 1713 -250 -432 2967 -1713 250 432zm3688 -3234l-1829 1056 -248 -432 1829 -1056 248 432zm-4275 2468l-3012 1739 -248 -432 3012 -1739 248 432zm3657 -3214l-1628 940 -250 -432 1628 -940 250 432zm-4212 2432l-2955 1706 -250 -432 2955 -1706 250 432zm3563 -3161l-1967 1136 -250 -432 1967 -1136 250 432zm-4715 2722l-2814 1624 -250 -432 2814 -1624 250 432zm3624 -3196l-1586 916 -250 -432 1586 -916 250 432zm-4287 2475l-2443 1411 -250 -432 2443 -1411 250 432zm3692 -3235l-1222 706 -250 -432 1222 -706 250 432zm-2850 1645l-551 318 -248 -432 551 -318 248 432zm-1351 780l-2189 1264 -248 -432 2189 -1264 248 432zm-11414 6590l-643 371 -248 -432 643 -371 248 432zm14954 -9737l-1148 663 -250 -432 1148 -663 250 432zm-2421 1398l-772 446 -250 -432 772 -446 250 432zm-1653 954l-576 333 -1345 777 -250 -432 1345 -777 576 -333 250 432zm-11356 6557l-1048 605 -250 -432 1048 -605 250 432zm14849 -9677l-1215 702 -250 -432 1215 -702 250 432zm-2421 1398l-1098 634 -250 -432 1098 -634 250 432zm-1619 935l-1741 1005 -199 115 -250 -432 199 -115 1741 -1005 250 432zm-6395 3691l-581 335 -248 -432 581 -335 248 432zm-4782 2761l-1557 899 -248 -432 1557 -899 248 432zm14521 -9488l-642 370 -248 -432 642 -370 248 432zm-2403 1388l-861 497 -250 -432 861 -497 250 432zm-1431 826l-2039 1178 -250 -432 2039 -1178 250 432zm-6194 3589l-949 548 -248 -432 949 -548 248 432zm-4852 2802l-2118 1223 -250 -432 2118 -1223 250 432zm10479 -7167l-2233 1289 -250 -432 2233 -1289 250 432zm-6130 3540l-1036 598 -250 -432 1036 -598 250 432zm-4753 2744l-2061 1190 -248 -432 2061 -1190 248 432zm10374 -7093l-1938 1119 -250 -432 1938 -1119 250 432zm-6108 3527l-1420 820 -248 -432 1420 -820 248 432zm-5171 2986l-2202 1271 -248 -432 2202 -1271 248 432zm4606 -4866l-1268 732 -250 -432 1268 -732 250 432z"/>
   <path class="fil2" d="M32568 19041l-2409 1391 -250 -432 2409 -1391 250 432zm-3538 2042l-1920 1108 -248 -432 1920 -1108 248 432z"/>
   <path class="fil2" d="M33183 19832l-2342 1352 -250 -432 2342 -1352 250 432zm-3041 1713l-1772 1022 -248 -432 1772 -1022 248 432z"/>
   <polygon class="fil2" points="33772,20552 29650,22932 29402,22500 33524,20120 "/>
   <path class="fil2" d="M2267 24298c-127,-53 -187,-200 -134,-327 53,-127 200,-187 327,-134l5221 2192 2798 -1555 114 -63 116 56 5181 2511 4747 -1995 71 -30 75 15 5874 1201 5066 -2658c122,-64 272,-16 336,106 64,122 16,272 -106,336l-5144 2699 -78 41 -87 -18 -5885 -1203 -4780 2009 -104 44 -101 -49 -5165 -2504 -2791 1551 -107 59 -111 -47 -5332 -2238z"/>
   <path class="fil2" d="M5275 28701c-138,2 -250,-109 -252,-246 -2,-138 109,-250 246,-252l5329 -71 59 -1 52 25 5213 2527 6210 -888 4743 -1431c132,-39 271,36 311,168 39,132 -36,271 -168,311l-4759 1436 -17 5 -19 3 -6305 901 -75 11 -69 -33 -5229 -2535 -5269 70z"/>
  </g>
 </g>
</svg>
