<?xml version="1.0" encoding="UTF-8"?>
<!DOCTYPE svg PUBLIC "-//W3C//DTD SVG 1.1//EN" "http://www.w3.org/Graphics/SVG/1.1/DTD/svg11.dtd">
<!-- Creator: CorelDRAW X5 -->
<svg xmlns="http://www.w3.org/2000/svg" xml:space="preserve" width="34.611mm" height="39.964mm" style="shape-rendering:geometricPrecision; text-rendering:geometricPrecision; image-rendering:optimizeQuality; fill-rule:evenodd; clip-rule:evenodd"
viewBox="0 0 34611 39964"
 xmlns:xlink="http://www.w3.org/1999/xlink">
 <defs>
  <style type="text/css">
   <![CDATA[
    .fil0 {fill:#5AA8B4}
    .fil1 {fill:#2A2A29;fill-rule:nonzero}
    .fil2 {fill:#FEFEFE;fill-rule:nonzero}
   ]]>
  </style>
 </defs>
 <g id="Слой_x0020_1">
  <metadata id="CorelCorpID_0Corel-Layer"/>
  <g id="_126645864">
   <polygon class="fil0" points="17306,288 8778,5212 250,10135 250,19982 250,29829 8778,34752 17306,39676 25833,34752 34361,29829 34361,19982 34361,10135 25833,5212 "/>
   <path class="fil1" d="M17306 576l-8403 4851 -8403 4851 0 9703 0 9704 8402 4851 1 0 8403 4851 8403 -4851 1 0 8402 -4851 0 -9704 0 -9703 -8403 -4851 -8403 -4851zm-8653 4420l8528 -4924 125 -72 125 72 8528 4924 8528 4924 125 72 0 144 0 9847 0 9847 0 143 -126 73 -8527 4923 0 0 -8528 4924 -125 72 -125 -72 -8528 -4924 0 0 -8527 -4923 -126 -73 0 -143 0 -9847 0 -9847 0 -144 125 -72 8528 -4924z"/>
   <g>
    <path class="fil2" d="M22232 5849c82,111 59,267 -52,349 -111,82 -267,59 -349,-52 -371,-499 -939,-919 -1637,-1214 -683,-288 -1489,-455 -2354,-455 -690,0 -1342,106 -1925,296 -601,195 -1127,479 -1543,826 -106,88 -263,75 -352,-31 -88,-106 -75,-263 31,-352 464,-388 1047,-703 1709,-918 632,-206 1337,-321 2079,-321 930,0 1802,181 2547,496 779,329 1420,806 1844,1376zm-967 62c99,95 102,253 7,353 -95,99 -253,102 -353,7 -331,-320 -784,-585 -1318,-770 -521,-180 -1120,-282 -1759,-282 -436,0 -853,47 -1237,134 -398,90 -765,222 -1087,388 -122,63 -273,15 -336,-107 -63,-122 -15,-273 107,-336 358,-185 765,-332 1206,-431 424,-96 877,-148 1347,-148 692,0 1346,113 1922,311 604,208 1120,512 1502,881zm-1045 175c119,70 158,222 89,341 -70,119 -222,158 -341,89 -265,-155 -592,-282 -960,-370 -357,-85 -752,-132 -1167,-132 -179,0 -349,8 -508,23 -164,16 -328,40 -489,72 -135,26 -267,-62 -293,-197 -26,-135 62,-267 197,-293 169,-33 349,-60 538,-78 186,-18 372,-27 555,-27 455,0 888,52 1283,146 413,98 785,244 1096,426z"/>
    <path class="fil2" d="M24040 8497c122,63 171,214 107,336 -63,122 -214,171 -336,107 -192,-99 -444,-181 -737,-239 -288,-56 -613,-88 -958,-88 -163,0 -322,7 -474,21 -159,14 -309,34 -446,60 -135,25 -266,-64 -291,-199 -25,-135 64,-266 199,-291 160,-30 326,-53 494,-68 167,-15 340,-23 517,-23 376,0 735,35 1054,98 338,66 635,164 870,285zm974 -225c97,98 97,256 -1,353 -98,97 -256,97 -353,-1 -241,-242 -603,-447 -1044,-592 -437,-143 -950,-226 -1500,-226 -422,0 -820,48 -1177,134 -367,88 -695,218 -963,377 -119,70 -272,31 -342,-88 -70,-119 -31,-272 88,-342 308,-183 683,-331 1102,-431 399,-96 837,-149 1292,-149 602,0 1167,92 1654,251 516,169 947,416 1243,715zm1801 -123c59,125 6,274 -118,333 -125,59 -274,6 -333,-118 -290,-608 -858,-1133 -1604,-1506 -740,-370 -1653,-588 -2644,-588 -649,0 -1264,93 -1818,261 -573,174 -1082,427 -1498,740 -110,83 -266,60 -349,-50 -83,-110 -60,-266 50,-349 461,-347 1023,-627 1652,-818 603,-183 1268,-285 1963,-285 1067,0 2058,239 2867,643 845,423 1494,1028 1832,1736zm-898 3c76,115 45,270 -70,346 -115,76 -270,45 -346,-70 -275,-415 -743,-771 -1334,-1022 -586,-249 -1291,-394 -2051,-394 -555,0 -1080,77 -1550,216 -485,143 -912,350 -1253,603 -111,82 -267,59 -349,-52 -82,-111 -59,-267 52,-349 388,-289 868,-522 1409,-682 517,-152 1090,-237 1691,-237 827,0 1600,160 2246,435 680,289 1225,708 1554,1206z"/>
    <path class="fil2" d="M19592 7970c58,125 4,273 -120,331 -125,58 -273,4 -331,-120 -338,-721 -1007,-1344 -1886,-1786l-1 0c-871,-438 -1946,-696 -3112,-696 -1230,0 -2359,288 -3255,771 -898,484 -1557,1162 -1838,1938 -47,129 -190,196 -319,149 -129,-47 -196,-190 -149,-319 324,-893 1066,-1665 2070,-2207 966,-521 2178,-832 3491,-832 1244,0 2397,279 3336,751l0 0c979,492 1728,1197 2114,2020zm-3231 403c122,63 171,213 108,335 -63,122 -213,171 -335,108 -227,-117 -524,-213 -870,-281 -337,-66 -719,-103 -1123,-103 -367,0 -715,31 -1029,86 -323,57 -607,138 -836,238 -126,55 -273,-3 -328,-129 -55,-126 3,-273 129,-328 268,-116 590,-210 949,-273 342,-60 720,-94 1115,-94 435,0 849,41 1219,113 388,76 730,189 1001,328zm1092 -306c99,95 102,253 7,353 -95,99 -253,102 -353,7 -291,-280 -717,-515 -1232,-680 -507,-163 -1099,-256 -1733,-256 -646,0 -1248,97 -1763,266 -521,171 -948,414 -1234,701 -97,98 -255,98 -353,1 -98,-97 -98,-255 -1,-353 341,-344 838,-629 1433,-824 564,-185 1219,-291 1917,-291 684,0 1328,102 1886,281 587,188 1081,464 1426,796zm1031 -188c80,112 54,268 -59,348 -112,80 -268,54 -348,-59 -338,-474 -889,-878 -1577,-1162 -678,-280 -1488,-443 -2359,-443 -932,0 -1794,187 -2501,504 -711,320 -1261,770 -1559,1293 -68,120 -220,162 -340,94 -120,-68 -162,-220 -94,-340 351,-616 981,-1139 1787,-1502 769,-346 1702,-549 2706,-549 936,0 1811,177 2548,482 774,320 1401,783 1794,1334z"/>
    <path class="fil2" d="M12624 11168c75,115 44,269 -71,345 -115,75 -269,44 -345,-71 -80,-121 -351,-258 -727,-372 -382,-116 -855,-197 -1343,-207 -522,-11 -997,61 -1365,184 -347,116 -586,266 -655,420 -56,126 -204,182 -329,126 -126,-56 -182,-204 -126,-329 127,-284 473,-530 951,-689 419,-140 952,-221 1533,-209 536,11 1057,101 1478,229 483,147 854,358 998,576zm760 -159c56,126 0,273 -126,329 -126,56 -273,0 -329,-126 -144,-321 -494,-606 -975,-814 -496,-215 -1124,-343 -1811,-343 -582,0 -1123,92 -1576,251 -454,159 -817,384 -1042,646 -90,105 -247,117 -352,27 -105,-90 -117,-247 -27,-352 282,-329 720,-604 1257,-793 506,-178 1103,-280 1740,-280 753,0 1450,144 2008,386 595,258 1037,631 1233,1068zm1285 -924c74,116 39,271 -77,345 -116,74 -271,39 -345,-77 -344,-542 -916,-1004 -1634,-1328 -708,-320 -1556,-506 -2470,-506 -828,0 -1602,153 -2266,419 -679,273 -1243,664 -1630,1131 -88,106 -245,121 -352,33 -106,-88 -121,-245 -33,-352 439,-530 1072,-971 1830,-1275 723,-290 1561,-456 2452,-456 985,0 1904,203 2675,551 807,365 1455,892 1851,1516zm-476 817c44,131 -26,272 -156,316 -131,44 -272,-26 -316,-156 -173,-507 -624,-955 -1249,-1278 -635,-328 -1444,-525 -2328,-525 -702,0 -1356,123 -1912,338 -567,219 -1031,530 -1339,899 -88,106 -245,120 -351,32 -106,-88 -120,-245 -32,-351 362,-435 897,-797 1542,-1045 614,-237 1330,-373 2092,-373 964,0 1854,218 2557,581 739,382 1277,929 1493,1561z"/>
    <path class="fil2" d="M22726 9115c104,90 115,248 25,352 -90,104 -248,115 -352,25 -416,-360 -947,-654 -1556,-857 -591,-197 -1256,-307 -1961,-307 -1149,0 -2196,295 -2988,780 -780,477 -1310,1137 -1440,1874 -24,136 -153,227 -289,203 -136,-24 -227,-153 -203,-289 156,-884 772,-1662 1673,-2214 868,-531 2006,-854 3248,-854 756,0 1474,120 2117,334 673,224 1263,551 1726,953zm-1141 1041c108,86 126,243 40,351 -86,108 -243,126 -351,40 -261,-207 -614,-379 -1027,-499 -405,-117 -869,-184 -1365,-184 -719,0 -1375,141 -1882,375 -485,224 -825,528 -936,864 -43,131 -183,203 -314,160 -131,-43 -203,-183 -160,-314 156,-474 592,-881 1201,-1163 570,-263 1299,-422 2091,-422 539,0 1051,74 1503,205 477,138 888,340 1199,587zm519 -574c107,87 123,244 36,351 -87,107 -244,123 -351,36 -340,-277 -777,-504 -1281,-661 -490,-153 -1041,-239 -1626,-239 -925,0 -1769,215 -2416,572 -632,348 -1071,827 -1200,1363 -32,134 -167,216 -301,184 -134,-32 -216,-167 -184,-301 164,-677 692,-1268 1445,-1683 718,-395 1646,-634 2656,-634 634,0 1236,94 1774,262 564,176 1058,434 1447,751zm-935 1224c99,95 102,253 7,353 -95,99 -253,102 -353,7 -144,-139 -403,-260 -736,-349l-1 0c-342,-91 -756,-145 -1203,-145 -561,0 -1068,83 -1447,219 -332,120 -550,266 -588,413 -35,133 -171,213 -304,179 -133,-35 -213,-171 -179,-304 82,-316 415,-581 902,-757 432,-156 999,-251 1615,-251 490,0 949,60 1332,162l0 0c414,111 749,275 954,472z"/>
    <path class="fil2" d="M28514 11250c128,51 190,196 140,323 -51,128 -196,190 -323,140 -239,-96 -529,-173 -852,-227 -313,-52 -658,-80 -1024,-80 -579,0 -1113,73 -1547,197 -422,121 -740,284 -898,467 -90,105 -247,117 -352,27 -105,-90 -117,-247 -27,-352 223,-260 626,-477 1140,-623 477,-136 1059,-216 1684,-216 388,0 761,31 1104,88 357,59 682,147 955,256zm1008 -514c114,77 144,232 67,346 -77,114 -232,144 -346,67 -329,-223 -751,-407 -1234,-534 -469,-123 -996,-192 -1554,-192 -815,0 -1565,148 -2166,397 -593,246 -1036,587 -1241,974 -64,122 -215,169 -337,105 -122,-64 -169,-215 -105,-337 261,-493 792,-913 1491,-1202 660,-274 1477,-436 2358,-436 599,0 1169,75 1681,210 536,141 1009,348 1386,604zm1238 -165c92,102 83,260 -20,352 -102,92 -260,83 -352,-20 -391,-436 -961,-801 -1647,-1057 -670,-249 -1451,-392 -2287,-392 -1080,0 -2069,239 -2847,638 -772,396 -1332,948 -1554,1576 -46,130 -188,198 -318,152 -130,-46 -198,-188 -152,-318 265,-750 913,-1398 1798,-1853 847,-435 1916,-695 3074,-695 893,0 1734,155 2461,425 761,283 1399,695 1844,1192zm1168 -14c73,116 38,270 -78,344 -116,73 -270,38 -344,-78 -422,-672 -1127,-1244 -2013,-1646 -871,-395 -1915,-625 -3038,-625 -1350,0 -2584,331 -3541,882 -953,549 -1628,1313 -1858,2178 -35,133 -172,213 -305,178 -133,-35 -213,-172 -178,-305 265,-997 1025,-1868 2092,-2483 1031,-593 2352,-950 3789,-950 1195,0 2310,247 3243,670 975,442 1755,1080 2230,1835z"/>
    <path class="fil2" d="M7360 11818c78,114 48,269 -66,347 -114,78 -269,48 -347,-66 -304,-443 -792,-826 -1404,-1111 -612,-284 -1344,-469 -2139,-518 -138,-8 -242,-126 -234,-264 8,-138 126,-242 264,-234 860,52 1654,253 2319,562 694,323 1253,765 1607,1283zm1032 -47c62,123 13,273 -110,335 -123,62 -273,13 -335,-110 -266,-524 -709,-993 -1280,-1376 -579,-388 -1289,-685 -2082,-857 -135,-29 -221,-162 -191,-297 29,-135 162,-221 297,-191 853,186 1622,509 2254,931 642,430 1143,964 1448,1565zm-3098 543c120,68 162,220 94,340 -68,120 -220,162 -340,94 -223,-127 -527,-233 -883,-307 -349,-73 -750,-114 -1177,-114 -112,0 -211,2 -298,6 -101,5 -198,12 -291,20 -137,12 -258,-89 -271,-226 -12,-137 89,-258 226,-271 105,-10 210,-17 314,-22 115,-5 222,-8 319,-8 458,0 893,45 1279,126 407,85 759,209 1027,362zm1040 -317c97,98 97,256 -1,353 -98,97 -256,97 -353,-1 -286,-287 -713,-528 -1234,-699 -514,-168 -1115,-265 -1760,-265 -109,0 -208,2 -295,6l-1 0c-101,5 -199,12 -293,20 -137,12 -258,-89 -271,-226 -12,-137 89,-258 226,-271 106,-10 212,-18 315,-22 115,-5 221,-8 318,-8 696,0 1351,106 1914,290 595,195 1091,479 1433,822z"/>
    <path class="fil2" d="M32272 12865c136,20 230,148 210,284 -20,136 -148,230 -284,210 -124,-19 -252,-34 -381,-43 -126,-9 -258,-14 -397,-14 -204,0 -397,11 -578,30 -185,20 -363,51 -529,90 -134,32 -269,-51 -301,-186 -32,-134 51,-269 186,-301 180,-43 379,-77 591,-100 204,-22 416,-34 631,-34 144,0 289,6 432,16 147,11 288,27 420,47zm0 -808c136,20 230,148 210,284 -20,136 -148,230 -284,210 -127,-19 -256,-34 -384,-43 -126,-9 -257,-14 -394,-14 -383,0 -749,40 -1083,113 -344,75 -655,184 -917,320 -122,63 -273,15 -336,-107 -63,-122 -15,-273 107,-336 302,-156 654,-280 1040,-365 369,-80 770,-125 1188,-125 142,0 286,6 429,16 147,11 288,27 423,47zm-4 -800c136,18 232,144 214,280 -18,136 -144,232 -280,214 -125,-17 -255,-31 -388,-40 -125,-8 -257,-13 -394,-13 -612,0 -1189,94 -1696,262 -520,171 -967,418 -1303,717 -103,92 -261,83 -353,-21 -92,-103 -83,-261 21,-353 387,-344 894,-626 1479,-819 557,-183 1187,-287 1852,-287 140,0 283,5 427,15 141,10 282,24 422,43zm-4 -749c137,16 235,140 219,277 -16,137 -140,235 -277,219 -132,-16 -263,-28 -391,-36 -124,-7 -256,-11 -395,-11 -544,0 -1064,66 -1544,186 -497,125 -953,308 -1348,536 -201,116 -386,243 -552,380 -164,135 -312,280 -442,435 -88,106 -246,120 -352,31 -106,-88 -120,-246 -31,-352 147,-176 318,-343 508,-500 189,-155 397,-298 619,-427 436,-252 936,-453 1477,-589 521,-131 1082,-202 1665,-202 137,0 278,5 424,13 146,9 286,21 420,38z"/>
    <path class="fil2" d="M16948 13749c92,102 83,260 -20,352 -102,92 -260,83 -352,-20 -128,-143 -383,-271 -721,-367 -350,-99 -781,-157 -1249,-157 -344,0 -667,31 -953,87 -290,56 -540,138 -734,236 -123,63 -274,14 -336,-109 -63,-123 -14,-274 109,-336 233,-119 529,-215 867,-281 318,-62 674,-97 1047,-97 512,0 989,65 1383,176 427,120 765,300 957,515zm404 -672c106,88 120,245 32,351 -88,106 -245,120 -351,32 -257,-214 -612,-392 -1033,-517 -413,-123 -888,-192 -1394,-192 -465,0 -903,59 -1291,164 -397,107 -741,262 -1007,449 -113,79 -268,52 -348,-61 -79,-113 -52,-268 61,-348 313,-221 712,-401 1165,-523 430,-116 913,-181 1420,-181 552,0 1075,77 1534,214 484,144 901,355 1210,613zm524 -570c105,89 118,246 29,352 -89,105 -246,118 -352,29 -339,-287 -781,-523 -1290,-685 -496,-158 -1059,-248 -1656,-248 -612,0 -1188,94 -1695,261 -520,171 -966,417 -1302,716 -103,91 -260,82 -352,-22 -91,-103 -82,-260 22,-352 387,-344 894,-625 1478,-817 557,-183 1185,-286 1849,-286 646,0 1260,98 1807,273 574,183 1074,451 1462,779zm641 -447c102,92 110,250 18,352 -92,102 -250,110 -352,18 -413,-374 -950,-681 -1571,-893 -603,-206 -1283,-322 -2005,-322 -761,0 -1477,129 -2103,357 -644,234 -1193,572 -1600,981 -97,98 -255,98 -353,1 -98,-97 -98,-255 -1,-353 458,-460 1071,-838 1784,-1098 681,-248 1455,-388 2273,-388 776,0 1511,126 2165,350 684,234 1281,577 1745,997z"/>
    <path class="fil2" d="M10936 15291c64,122 16,272 -106,336 -122,64 -272,16 -336,-106 -92,-176 -367,-341 -758,-468 -419,-136 -958,-218 -1548,-218 -563,0 -1078,74 -1487,198 -390,118 -674,276 -795,450 -79,113 -235,141 -348,63 -113,-79 -141,-235 -63,-348 185,-267 564,-491 1061,-641 457,-139 1023,-221 1632,-221 641,0 1234,91 1703,243 513,167 890,416 1045,712zm976 45c29,135 -58,267 -192,296 -135,29 -267,-58 -296,-192 -87,-407 -464,-777 -1021,-1052 -585,-288 -1360,-463 -2214,-463 -785,0 -1504,148 -2070,396 -551,241 -951,573 -1110,945 -54,127 -201,186 -327,132 -127,-54 -186,-201 -132,-327 211,-492 703,-915 1370,-1207 627,-275 1416,-439 2269,-439 930,0 1783,195 2435,516 694,341 1168,832 1289,1395zm923 79c13,137 -88,259 -225,271 -137,13 -259,-88 -271,-225 -64,-661 -538,-1262 -1264,-1701 -751,-454 -1766,-733 -2886,-733 -1026,0 -1963,233 -2689,620 -717,382 -1225,912 -1401,1508 -39,132 -178,208 -310,169 -132,-39 -208,-178 -169,-310 215,-729 811,-1363 1645,-1807 798,-425 1817,-681 2924,-681 1212,0 2319,306 3144,805 860,520 1422,1254 1503,2082zm901 -102c15,137 -85,260 -222,274 -137,15 -260,-85 -274,-222 -95,-874 -683,-1663 -1575,-2235 -909,-583 -2131,-939 -3476,-939 -1284,0 -2455,324 -3349,860 -886,531 -1497,1266 -1667,2092 -28,135 -159,222 -294,194 -135,-28 -222,-159 -194,-294 200,-968 896,-1819 1900,-2420 970,-581 2230,-932 3605,-932 1443,0 2759,387 3746,1019 1018,652 1689,1569 1802,2602z"/>
    <path class="fil2" d="M22926 13896c130,45 199,187 153,317 -45,130 -187,199 -317,153 -189,-66 -411,-119 -657,-156l0 0c-237,-36 -496,-55 -766,-55 -549,0 -1046,80 -1422,211 -335,117 -559,262 -609,411 -44,131 -186,200 -316,156 -131,-44 -200,-186 -156,-316 102,-301 438,-554 918,-721 428,-149 983,-240 1586,-240 294,0 577,22 840,61l1 0c273,41 525,102 746,180zm604 -578c123,61 173,211 111,334 -61,123 -211,173 -334,111 -261,-130 -567,-236 -906,-308 -328,-70 -686,-108 -1062,-108 -721,0 -1379,142 -1887,377 -485,225 -825,530 -933,867 -42,131 -183,203 -314,161 -131,-42 -203,-183 -161,-314 153,-475 588,-885 1199,-1168 570,-265 1302,-424 2096,-424 409,0 802,43 1165,120 378,81 725,200 1025,351zm719 -479c115,75 148,229 73,345 -75,115 -229,148 -345,73 -338,-220 -746,-398 -1201,-521 -441,-119 -927,-184 -1437,-184 -918,0 -1756,212 -2400,562 -631,344 -1072,817 -1210,1348 -35,133 -171,213 -304,179 -133,-35 -213,-171 -179,-304 174,-669 704,-1252 1455,-1660 716,-390 1637,-625 2638,-625 554,0 1083,72 1566,202 505,136 961,336 1344,585zm851 -310c106,87 122,244 34,351 -87,106 -244,122 -351,34 -416,-342 -940,-621 -1537,-813 -578,-186 -1224,-290 -1908,-290 -1144,0 -2186,292 -2978,773l-1 0c-779,474 -1312,1129 -1448,1863 -25,135 -155,225 -290,200 -135,-25 -225,-155 -200,-290 163,-878 780,-1651 1679,-2198l0 0c867,-527 2000,-847 3237,-847 734,0 1432,113 2061,315 656,211 1236,521 1701,903z"/>
    <path class="fil2" d="M6172 18135c50,128 -14,273 -143,322 -128,50 -273,-14 -322,-143 -57,-149 -285,-293 -621,-408 -375,-128 -866,-206 -1407,-206 -228,0 -447,14 -652,40 -213,27 -410,65 -584,114 -133,37 -270,-41 -307,-174 -37,-133 41,-270 174,-307 202,-56 423,-100 656,-129 226,-28 466,-44 713,-44 595,0 1143,88 1568,234 475,163 813,409 926,701zm718 -352c63,123 14,274 -109,336 -123,63 -274,14 -336,-109 -159,-312 -513,-588 -992,-789 -491,-206 -1106,-328 -1775,-328 -220,0 -434,13 -638,38 -214,26 -416,64 -603,112 -133,34 -269,-47 -303,-180 -34,-133 47,-269 180,-303 215,-55 438,-98 667,-125 226,-28 459,-42 697,-42 736,0 1419,137 1968,367 587,246 1030,604 1244,1023zm420 -771c88,106 75,263 -31,352 -106,88 -263,75 -352,-31 -309,-369 -773,-680 -1339,-898 -556,-214 -1209,-337 -1910,-337 -219,0 -431,12 -634,34 -212,23 -417,58 -614,103 -134,30 -268,-54 -298,-189 -30,-134 54,-268 189,-298 216,-49 440,-87 668,-112 227,-25 457,-38 689,-38 761,0 1476,136 2090,372 645,248 1180,609 1542,1042zm540 -551c93,102 85,260 -17,353 -102,93 -260,85 -353,-17 -398,-437 -956,-801 -1618,-1054 -646,-247 -1391,-388 -2185,-388 -222,0 -434,10 -636,30 -207,20 -414,51 -619,92 -135,26 -267,-62 -293,-197 -26,-135 62,-267 197,-293 212,-42 435,-75 668,-98 229,-22 457,-34 683,-34 855,0 1661,153 2362,421 735,281 1359,690 1809,1185z"/>
    <path class="fil2" d="M29461 15269c74,116 40,270 -76,344 -116,74 -270,40 -344,-76 -95,-149 -339,-287 -679,-392 -364,-113 -825,-180 -1329,-180 -485,0 -930,62 -1287,168 -340,100 -590,233 -703,380 -84,109 -241,129 -350,45 -109,-84 -129,-241 -45,-350 178,-231 518,-425 957,-554 402,-119 896,-189 1427,-189 552,0 1065,76 1475,204 452,140 793,350 952,601zm829 -125c53,127 -8,273 -135,326 -127,53 -273,-8 -326,-135 -135,-325 -483,-615 -966,-827 -499,-220 -1135,-351 -1829,-351 -689,0 -1320,129 -1817,346 -482,210 -832,497 -972,819 -55,126 -202,184 -328,129 -126,-55 -184,-202 -129,-328 193,-441 634,-817 1230,-1077 559,-243 1259,-389 2016,-389 764,0 1470,148 2030,394 599,264 1040,646 1226,1093zm828 -30c37,133 -41,270 -174,307 -133,37 -270,-41 -307,-174 -146,-525 -590,-993 -1220,-1332 -642,-346 -1473,-554 -2384,-554 -893,0 -1709,200 -2345,533 -627,328 -1075,782 -1241,1295 -42,131 -183,203 -314,161 -131,-42 -203,-183 -161,-314 207,-641 744,-1196 1485,-1584 706,-370 1603,-592 2576,-592 993,0 1907,231 2620,615 748,403 1280,977 1464,1638zm834 63c24,135 -66,265 -201,289 -135,24 -265,-66 -289,-201 -132,-735 -664,-1393 -1444,-1869 -792,-483 -1836,-777 -2984,-777 -1121,0 -2143,280 -2928,744 -777,459 -1317,1094 -1480,1808 -30,134 -164,219 -298,189 -134,-30 -219,-164 -189,-298 195,-854 820,-1601 1713,-2128 860,-508 1971,-814 3182,-814 1240,0 2376,321 3243,851 900,549 1516,1325 1675,2207z"/>
    <path class="fil2" d="M32295 17444c134,33 215,169 182,303 -33,134 -169,215 -303,182 -168,-42 -353,-75 -549,-98 -189,-22 -391,-33 -602,-33 -460,0 -884,56 -1230,151l-1 0c-335,92 -592,218 -727,360 -95,100 -253,104 -353,9 -100,-95 -104,-253 -9,-353 198,-207 534,-380 957,-496l0 0c391,-108 861,-171 1363,-171 226,0 447,13 659,37 218,25 425,62 614,109zm-4 -811c134,31 218,166 187,300 -31,134 -166,218 -300,187 -181,-42 -369,-75 -563,-97 -188,-21 -386,-32 -592,-32 -684,0 -1311,128 -1807,342 -481,208 -831,492 -977,811 -57,126 -205,181 -331,124 -126,-57 -181,-205 -124,-331 198,-435 641,-807 1235,-1063 556,-240 1252,-383 2004,-383 219,0 435,13 647,36 217,24 425,61 622,107zm-6 -808c135,28 221,160 193,295 -28,135 -160,221 -295,193 -186,-39 -377,-69 -571,-89l-1 0c-187,-19 -384,-29 -589,-29 -705,0 -1363,125 -1921,341 -568,220 -1033,534 -1339,906 -87,106 -244,122 -351,34 -106,-87 -122,-244 -34,-351 361,-438 897,-803 1544,-1055 616,-239 1335,-377 2101,-377 213,0 427,11 640,33l0 0c215,22 423,55 623,97zm-6 -757c135,25 225,155 200,290 -25,135 -155,225 -290,200 -190,-35 -382,-61 -576,-79l-1 0c-186,-17 -383,-25 -590,-25 -779,0 -1509,135 -2144,372 -653,244 -1207,595 -1610,1018 -95,100 -253,104 -353,9 -100,-95 -104,-253 -9,-353 454,-477 1073,-871 1797,-1141 692,-258 1482,-405 2318,-405 208,0 420,10 635,29l0 0c214,19 422,48 622,85z"/>
    <path class="fil2" d="M20516 15252c111,83 133,239 51,350 -83,111 -239,133 -350,51 -415,-310 -923,-561 -1495,-734 -554,-167 -1166,-260 -1811,-260 -691,0 -1345,106 -1928,297 -601,196 -1128,481 -1544,829 -106,88 -263,75 -352,-31 -88,-106 -75,-263 31,-352 464,-389 1048,-705 1710,-921 633,-207 1339,-322 2082,-322 695,0 1356,101 1955,282 627,189 1187,468 1649,812zm-2537 1348c135,26 224,158 197,293 -26,135 -158,224 -293,197 -151,-29 -307,-52 -467,-66 -161,-15 -330,-22 -504,-22 -185,0 -365,9 -537,26 -173,17 -339,42 -494,75 -135,28 -267,-59 -295,-193 -28,-135 59,-267 193,-295 170,-36 354,-64 549,-83 185,-18 381,-28 584,-28 190,0 373,8 549,24 186,17 360,41 518,72zm871 -550c127,52 188,198 136,325 -52,127 -198,188 -325,136 -247,-101 -524,-181 -822,-236 -288,-52 -599,-81 -926,-81 -333,0 -650,30 -943,84 -301,56 -582,140 -833,245 -127,53 -274,-7 -327,-134 -53,-127 7,-274 134,-327 279,-117 595,-210 937,-274 327,-61 675,-94 1033,-94 350,0 692,32 1014,91 334,61 646,151 923,265zm827 -454c119,70 158,223 88,342 -70,119 -223,158 -342,88 -333,-197 -725,-355 -1157,-463 -418,-105 -875,-162 -1354,-162 -519,0 -1010,67 -1454,188 -458,125 -869,307 -1209,533 -115,76 -270,45 -346,-70 -76,-115 -45,-270 70,-346 382,-254 842,-458 1354,-598 490,-134 1026,-207 1584,-207 519,0 1016,63 1475,178 479,120 915,297 1290,518z"/>
    <path class="fil2" d="M13920 18280c112,80 138,236 59,348 -80,112 -236,138 -348,59 -192,-136 -480,-253 -834,-336 -353,-83 -764,-130 -1200,-129 -411,1 -800,44 -1141,118 -341,75 -627,180 -830,304 -118,72 -271,35 -343,-83 -72,-118 -35,-271 83,-343 250,-154 589,-280 984,-367 369,-80 793,-127 1246,-128 479,-1 928,50 1313,140 415,97 765,242 1010,416zm952 -251c88,106 73,264 -33,352 -106,88 -264,73 -352,-33 -243,-294 -643,-546 -1145,-724 -501,-178 -1100,-282 -1745,-282 -646,0 -1246,104 -1749,284 -504,180 -905,433 -1146,728 -87,106 -244,122 -351,34 -106,-87 -122,-244 -34,-351 300,-366 776,-672 1363,-882 554,-198 1213,-313 1917,-313 702,0 1358,114 1911,311 587,209 1064,513 1364,877zm966 -90c66,121 21,272 -100,338 -121,66 -272,21 -338,-100 -270,-494 -781,-921 -1447,-1224 -663,-302 -1476,-480 -2357,-480 -903,0 -1736,187 -2408,504 -673,317 -1182,762 -1433,1272 -60,123 -210,175 -333,114 -123,-60 -175,-210 -114,-333 302,-615 894,-1140 1668,-1505 738,-348 1644,-553 2621,-553 952,0 1836,195 2564,527 763,348 1355,850 1678,1439zm945 -22c53,127 -8,273 -135,326 -127,53 -273,-8 -326,-135 -285,-683 -914,-1296 -1756,-1737 -828,-435 -1858,-701 -2970,-709 -1153,-8 -2212,264 -3050,720 -843,459 -1460,1104 -1713,1836 -45,130 -187,199 -317,154 -130,-45 -199,-187 -154,-317 296,-852 995,-1593 1946,-2111 909,-495 2051,-789 3290,-781 1194,8 2304,296 3198,765 945,496 1656,1196 1987,1987z"/>
    <path class="fil2" d="M25229 18376c98,97 98,255 1,353 -97,98 -255,98 -353,1 -169,-168 -476,-315 -873,-422 -405,-109 -896,-173 -1426,-173 -578,0 -1109,76 -1534,204l-1 0c-405,122 -701,285 -829,465 -80,112 -236,138 -348,59 -112,-80 -138,-236 -59,-348 193,-272 583,-501 1092,-655l0 0c469,-142 1050,-226 1678,-226 574,0 1109,70 1555,191 479,129 864,321 1096,551zm956 -257c76,115 45,270 -70,346 -115,76 -270,45 -346,-70 -230,-346 -657,-645 -1212,-860 -558,-216 -1240,-342 -1978,-342 -758,0 -1457,133 -2023,360 -561,224 -987,536 -1200,893 -71,118 -224,157 -342,86 -118,-71 -157,-224 -86,-342 271,-452 782,-836 1442,-1100 624,-250 1387,-397 2208,-397 799,0 1543,140 2158,377 651,252 1162,617 1449,1049zm1005 -66c55,126 -3,273 -129,328 -126,55 -273,-3 -328,-129 -248,-568 -791,-1064 -1520,-1420 -730,-356 -1643,-568 -2635,-568 -988,0 -1898,210 -2626,563 -728,353 -1271,846 -1523,1411 -56,126 -204,182 -329,126 -126,-56 -182,-204 -126,-329 301,-675 929,-1254 1761,-1657 794,-385 1779,-614 2843,-614 1069,0 2058,230 2854,618 834,407 1461,990 1758,1670zm976 -36c43,131 -28,271 -158,314 -131,43 -271,-28 -314,-158 -263,-790 -918,-1483 -1821,-1980 -902,-496 -2047,-793 -3295,-793 -1229,0 -2357,287 -3252,770 -898,484 -1557,1161 -1839,1935 -47,129 -190,196 -319,149 -129,-47 -196,-190 -149,-319 325,-892 1068,-1663 2071,-2204 966,-520 2177,-830 3489,-830 1333,0 2562,320 3535,855 1011,556 1749,1348 2053,2262z"/>
    <path class="fil2" d="M10174 21570c95,99 91,257 -8,352 -99,95 -257,91 -352,-8 -172,-179 -493,-337 -912,-452 -426,-117 -946,-186 -1512,-186 -738,0 -1402,118 -1877,308 -407,163 -659,361 -659,557 0,17 1,31 4,44 3,15 8,31 15,47 54,127 -5,273 -132,327 -127,54 -273,-5 -327,-132 -19,-45 -34,-92 -45,-141 -10,-50 -16,-99 -16,-146 0,-420 372,-779 973,-1019 533,-213 1263,-345 2063,-345 605,0 1172,76 1642,205 504,139 906,344 1140,589zm1669 -2254c108,85 128,241 43,350 -85,108 -241,128 -350,43 -511,-400 -1146,-726 -1864,-950 -694,-217 -1466,-337 -2281,-337 -1027,0 -1988,192 -2811,528 -843,343 -1539,836 -2010,1422 -86,107 -243,124 -351,38 -107,-86 -124,-243 -38,-351 525,-653 1291,-1197 2211,-1572 881,-359 1906,-565 2998,-565 864,0 1687,129 2429,361 774,242 1463,596 2022,1034zm-792 556c112,79 139,235 60,347 -79,112 -235,139 -347,60 -419,-296 -936,-538 -1521,-704 -565,-161 -1191,-250 -1852,-250 -1224,0 -2332,307 -3147,807 -789,484 -1298,1146 -1354,1874 -10,138 -130,241 -268,230 -138,-10 -241,-130 -230,-268 69,-898 667,-1695 1592,-2263 890,-546 2090,-881 3407,-881 706,0 1379,97 1988,270 635,181 1204,448 1671,778zm-559 756c113,79 141,235 63,348 -79,113 -235,141 -348,63 -330,-229 -753,-418 -1240,-548 -475,-127 -1009,-198 -1575,-198 -1002,0 -1904,223 -2553,582 -605,335 -979,784 -979,1266 0,138 -112,250 -250,250 -138,0 -250,-112 -250,-250 0,-677 473,-1277 1236,-1701 720,-399 1709,-647 2795,-647 609,0 1187,78 1704,216 543,145 1020,359 1397,620z"/>
    <path class="fil2" d="M30870 22074c0,138 -112,250 -250,250 -138,0 -250,-112 -250,-250 0,-195 -252,-394 -659,-557 -475,-190 -1139,-308 -1877,-308 -695,0 -1325,105 -1793,276 -420,153 -694,345 -738,542 -30,134 -163,219 -297,190 -134,-30 -219,-163 -190,-297 84,-374 475,-691 1055,-903 522,-191 1211,-307 1963,-307 800,0 1530,132 2063,345 601,241 973,599 973,1019zm1524 -2737c106,88 121,245 33,352 -88,106 -245,121 -352,33 -513,-424 -1158,-770 -1892,-1008 -712,-230 -1508,-359 -2350,-359 -1115,0 -2150,226 -3016,615 -882,396 -1586,960 -2014,1623 -74,116 -229,150 -345,75 -116,-74 -150,-229 -75,-345 480,-745 1260,-1373 2230,-1808 929,-417 2035,-660 3219,-660 892,0 1740,138 2502,384 797,258 1499,635 2058,1098zm51 1440c74,116 40,270 -76,344 -116,74 -270,40 -344,-76 -334,-525 -911,-973 -1645,-1291 -725,-313 -1601,-496 -2546,-496 -1056,0 -2026,229 -2796,613 -768,383 -1333,917 -1577,1527 -51,128 -197,190 -324,139 -128,-51 -190,-197 -139,-324 291,-726 942,-1352 1817,-1788 837,-418 1885,-666 3019,-666 1012,0 1956,199 2744,539 825,357 1480,871 1868,1480zm-580 1297c0,138 -112,250 -250,250 -138,0 -250,-112 -250,-250 0,-482 -374,-930 -979,-1266 -648,-360 -1551,-582 -2553,-582 -908,0 -1735,183 -2364,485 -606,291 -1023,686 -1137,1123 -35,133 -171,213 -304,179 -133,-35 -213,-171 -179,-304 153,-585 667,-1093 1404,-1447 696,-334 1598,-536 2579,-536 1086,0 2075,247 2795,647 764,424 1236,1024 1236,1701z"/>
    <path class="fil2" d="M5500 25642c72,117 36,271 -81,343 -117,72 -271,36 -343,-81 -119,-193 -425,-369 -852,-503 -449,-141 -1019,-225 -1641,-225 -88,0 -155,1 -200,2 -138,4 -252,-105 -256,-242 -4,-138 105,-252 242,-256 91,-3 162,-4 213,-4 672,0 1293,93 1789,248 539,169 944,420 1127,718zm1209 -2661c114,77 145,231 68,346 -77,114 -231,145 -346,68 -503,-337 -1102,-609 -1767,-795 -641,-179 -1344,-278 -2082,-278l0 -1 -100 1 -103 2c-138,2 -251,-108 -253,-245 -2,-138 108,-251 245,-253l103 -2 3 0 104 -1 1 -1c782,0 1531,106 2217,298 714,200 1361,495 1909,861zm-606 697c115,75 148,229 73,345 -75,115 -229,148 -345,73 -417,-272 -919,-493 -1480,-644 -543,-146 -1140,-227 -1768,-227l0 -1 -99 1 -103 2c-138,3 -251,-107 -254,-244 -3,-138 107,-251 244,-254l103 -2 4 0 104 -1 1 -1c671,0 1312,87 1897,245 611,165 1161,407 1623,708zm-441 837c114,78 143,233 66,347 -78,114 -233,143 -347,66 -330,-226 -752,-411 -1236,-539 -471,-125 -1001,-194 -1562,-194l0 -1 -99 1 -103 2c-138,3 -251,-107 -254,-244 -3,-138 107,-251 244,-254l103 -2 4 0 104 -1 1 -1c602,0 1175,76 1689,212 539,143 1014,352 1390,609z"/>
    <path class="fil2" d="M23575 21666c43,131 -29,272 -160,314 -131,43 -272,-29 -314,-160 -329,-1008 -1158,-1892 -2301,-2523 -1139,-629 -2586,-1005 -4162,-1005 -1589,0 -3045,382 -4187,1019 -1145,639 -1972,1534 -2289,2552 -41,132 -181,205 -313,164 -132,-41 -205,-181 -164,-313 356,-1144 1267,-2138 2524,-2840 1214,-678 2755,-1083 4430,-1083 1662,0 3193,400 4402,1068 1253,692 2166,1675 2535,2807zm-1239 2c57,126 1,273 -125,330 -126,57 -273,1 -330,-125 -324,-720 -1014,-1346 -1936,-1792 -919,-445 -2064,-708 -3307,-708 -1221,0 -2346,254 -3256,683 -916,433 -1610,1041 -1953,1741 -60,123 -210,175 -333,114 -123,-60 -175,-210 -114,-333 394,-805 1171,-1494 2188,-1974 975,-460 2174,-732 3469,-732 1319,0 2540,282 3524,759 1027,497 1802,1208 2174,2036zm-1240 121c76,115 45,270 -70,346 -115,76 -270,45 -346,-70 -294,-443 -840,-826 -1546,-1099 -705,-272 -1565,-432 -2497,-432 -891,0 -1718,147 -2405,398 -694,254 -1241,612 -1563,1029 -84,109 -241,129 -350,45 -109,-84 -129,-241 -45,-350 380,-493 1006,-908 1786,-1193 741,-271 1628,-430 2577,-430 991,0 1914,173 2676,467 802,310 1431,759 1783,1288zm-1265 259c104,90 115,248 25,352 -90,104 -248,115 -352,25 -239,-207 -635,-385 -1133,-512 -499,-128 -1094,-202 -1735,-202 -601,0 -1161,65 -1640,178 -482,114 -877,276 -1139,466 -112,81 -268,56 -349,-56 -81,-112 -56,-268 56,-349 315,-229 772,-419 1319,-548 515,-122 1115,-192 1753,-192 682,0 1320,80 1858,217 572,146 1038,362 1337,620z"/>
    <path class="fil2" d="M32318 22208c130,46 198,188 152,318 -46,130 -188,198 -318,152 -313,-110 -645,-196 -993,-253 -337,-56 -692,-85 -1059,-85 -550,0 -1077,68 -1564,191 -504,128 -964,316 -1361,550 -119,70 -271,30 -341,-89 -70,-119 -30,-271 89,-341 440,-259 944,-465 1490,-604 526,-134 1095,-207 1687,-207 389,0 771,32 1139,93 379,63 741,156 1079,275zm14 803c127,53 186,200 133,326 -53,127 -200,186 -326,133 -295,-124 -621,-223 -971,-290 -336,-64 -695,-99 -1067,-99 -414,0 -811,43 -1181,122 -382,82 -736,202 -1050,354 -124,60 -273,8 -333,-116 -60,-124 -8,-273 116,-333 350,-169 742,-303 1163,-393 405,-87 837,-134 1285,-134 402,0 792,38 1161,109 381,73 741,182 1070,321zm83 1836c95,99 92,257 -7,353 -99,95 -257,92 -353,-7 -137,-142 -393,-266 -729,-358 -345,-95 -767,-150 -1226,-150 -219,0 -429,13 -626,36 -204,24 -394,60 -565,105 -133,35 -270,-45 -305,-178 -35,-133 45,-270 178,-305 195,-51 409,-92 633,-118 218,-26 448,-40 684,-40 499,0 967,63 1357,170 422,116 758,287 957,493zm-64 -969c122,64 169,215 105,337 -64,122 -215,169 -337,105 -265,-139 -578,-251 -924,-328 -335,-74 -705,-115 -1095,-115 -304,0 -596,25 -869,71 -283,48 -546,118 -783,207 -129,48 -272,-18 -320,-147 -48,-129 18,-272 147,-320 268,-101 562,-180 875,-233 303,-51 622,-79 951,-79 421,0 827,46 1202,128 391,86 747,214 1049,373z"/>
    <path class="fil2" d="M16812 24443c54,127 -4,274 -131,328 -127,54 -274,-4 -328,-131 -335,-774 -1032,-1446 -1960,-1924 -920,-474 -2064,-754 -3306,-754 -1532,0 -2916,427 -3914,1118 -971,672 -1571,1592 -1571,2601 0,69 3,135 7,198 6,71 13,137 22,196 21,136 -72,263 -208,284 -136,21 -263,-72 -284,-208 -13,-83 -22,-162 -28,-235 -6,-80 -9,-159 -9,-235 0,-1183 683,-2247 1788,-3012 1078,-746 2562,-1207 4197,-1207 1322,0 2545,302 3535,811 1029,530 1809,1288 2190,2170zm-2689 1238c0,138 -112,250 -250,250 -138,0 -250,-112 -250,-250 0,-195 -252,-394 -659,-557 -475,-190 -1139,-308 -1877,-308 -738,0 -1402,118 -1877,308 -407,163 -659,361 -659,557 0,138 -112,250 -250,250 -138,0 -250,-112 -250,-250 0,-420 372,-779 973,-1019 533,-213 1263,-345 2063,-345 800,0 1530,132 2063,345 601,240 973,599 973,1019zm910 -490c46,130 -22,273 -152,318 -130,46 -273,-22 -318,-152 -149,-420 -576,-797 -1180,-1072 -621,-283 -1420,-453 -2295,-453 -1002,0 -1904,223 -2553,582 -605,335 -979,784 -979,1266 0,26 1,50 2,72l0 0c2,22 5,46 9,72 21,136 -73,264 -209,285 -136,21 -264,-73 -285,-209 -5,-34 -9,-70 -12,-109l0 -1c-3,-39 -5,-75 -5,-110 0,-677 473,-1277 1236,-1701 720,-399 1709,-647 2795,-647 946,0 1818,188 2502,500 725,331 1248,807 1443,1359zm951 -204c42,131 -31,271 -162,313 -131,42 -271,-31 -313,-162 -203,-640 -759,-1206 -1536,-1614 -784,-412 -1788,-659 -2886,-659 -1265,0 -2406,328 -3228,858 -789,509 -1278,1202 -1278,1958 0,41 1,77 3,105 2,32 5,67 10,105 16,137 -82,261 -219,277 -137,16 -261,-82 -277,-219 -5,-41 -9,-86 -12,-135 -3,-51 -5,-96 -5,-134 0,-937 576,-1777 1508,-2378 899,-579 2136,-938 3497,-938 1179,0 2265,269 3118,717 891,468 1533,1136 1778,1905z"/>
    <path class="fil2" d="M29329 25027c50,128 -14,273 -143,322 -128,50 -273,-14 -322,-143 -361,-928 -1168,-1736 -2254,-2312 -1079,-571 -2431,-911 -3900,-911 -1440,0 -2766,326 -3833,876 -1078,556 -1889,1339 -2277,2241 -54,127 -201,185 -328,131 -127,-54 -185,-201 -131,-328 435,-1011 1328,-1879 2508,-2488 1136,-586 2542,-933 4062,-933 1552,0 2985,362 4133,970 1192,631 2081,1531 2487,2574zm-3738 407c115,75 148,230 72,346 -75,115 -230,148 -346,72 -263,-173 -640,-317 -1092,-419 -445,-100 -963,-157 -1517,-157 -542,0 -1051,55 -1491,152 -448,98 -822,238 -1088,404 -116,73 -270,38 -344,-78 -73,-116 -38,-270 78,-344 315,-198 745,-360 1248,-471 475,-104 1020,-164 1597,-164 588,0 1143,62 1626,171 511,115 945,283 1256,487zm1224 -350c91,103 82,260 -22,352 -103,91 -260,82 -352,-22 -332,-376 -857,-696 -1508,-921 -642,-222 -1405,-351 -2225,-351 -819,0 -1579,128 -2221,349 -650,225 -1175,543 -1508,918 -91,103 -249,113 -352,22 -103,-91 -113,-249 -22,-352 390,-439 988,-806 1719,-1059 695,-240 1512,-379 2383,-379 873,0 1691,139 2387,380 732,253 1330,622 1719,1062zm1287 -68c66,121 21,272 -100,338 -121,66 -272,21 -338,-100 -355,-649 -1024,-1208 -1895,-1605 -862,-393 -1918,-624 -3061,-624 -1116,0 -2149,221 -3001,598 -861,381 -1532,920 -1907,1547 -71,118 -224,157 -342,86 -118,-71 -157,-224 -86,-342 428,-718 1179,-1326 2133,-1749 913,-404 2016,-641 3202,-641 1214,0 2341,248 3268,671 967,441 1718,1075 2125,1820z"/>
    <path class="fil2" d="M32371 25984c115,75 148,229 73,345 -75,115 -229,148 -345,73 -503,-328 -1095,-592 -1749,-772 -632,-174 -1323,-269 -2050,-269 -1369,0 -2619,341 -3581,905 -957,561 -1626,1342 -1835,2223 -32,134 -167,217 -301,186 -134,-32 -217,-167 -186,-301 242,-1017 996,-1907 2069,-2537 1037,-609 2375,-976 3833,-976 767,0 1504,102 2181,289 706,194 1346,479 1889,834zm36 1193c100,95 104,253 9,353 -95,100 -253,104 -353,9 -410,-388 -966,-710 -1620,-933 -638,-218 -1367,-341 -2143,-341 -1125,0 -2151,259 -2942,689 -781,424 -1328,1010 -1504,1670 -35,133 -172,213 -305,178 -133,-35 -213,-172 -178,-305 212,-797 848,-1492 1748,-1980 863,-469 1973,-751 3181,-751 830,0 1614,133 2303,369 722,247 1342,607 1804,1045zm-388 983c80,112 55,268 -58,349 -112,80 -268,55 -349,-58 -253,-353 -703,-658 -1280,-875 -577,-217 -1276,-344 -2032,-344 -908,0 -1733,183 -2363,484 -606,290 -1023,685 -1138,1122 -35,133 -172,213 -305,178 -133,-35 -213,-172 -178,-305 154,-584 668,-1091 1405,-1444 696,-333 1597,-535 2577,-535 815,0 1576,139 2208,377 669,252 1200,617 1510,1051zm-827 482c78,113 50,269 -64,347 -113,78 -269,50 -347,-64 -132,-192 -442,-365 -868,-494 -444,-135 -1003,-216 -1614,-216 -738,0 -1402,118 -1877,308 -407,163 -659,361 -659,557 0,138 -112,250 -250,250 -138,0 -250,-112 -250,-250 0,-420 372,-779 973,-1019 533,-213 1263,-345 2063,-345 657,0 1266,89 1758,239 532,162 937,403 1133,688z"/>
    <path class="fil2" d="M19859 28654c63,123 14,274 -109,336 -123,63 -274,14 -336,-109 -100,-196 -398,-378 -824,-517 -455,-149 -1041,-238 -1683,-238 -662,0 -1265,95 -1726,252 -425,145 -716,331 -794,527 -51,128 -196,190 -323,140 -128,-51 -190,-196 -140,-323 135,-339 535,-625 1096,-816 511,-174 1170,-280 1886,-280 693,0 1333,99 1837,263 551,180 954,448 1116,765zm2956 -339c30,134 -54,268 -189,298 -134,30 -268,-54 -298,-189 -201,-886 -868,-1672 -1827,-2239 -965,-570 -2220,-914 -3595,-914 -109,0 -201,1 -275,4 -83,3 -175,8 -274,14 -959,65 -1846,299 -2597,657 -760,363 -1379,852 -1789,1422 -80,112 -236,137 -348,57 -112,-80 -137,-236 -57,-348 460,-639 1144,-1184 1978,-1582 805,-384 1754,-635 2779,-704 88,-6 185,-11 291,-14 113,-4 210,-6 290,-6 1466,0 2811,371 3849,985 1075,635 1826,1534 2059,2559zm-1008 -7c41,132 -33,272 -164,313 -132,41 -272,-33 -313,-164 -201,-642 -755,-1211 -1532,-1620 -785,-414 -1792,-662 -2892,-662 -978,0 -1882,196 -2623,531 -745,337 -1321,811 -1631,1361 -67,120 -220,163 -340,96 -120,-67 -163,-220 -96,-340 363,-644 1020,-1191 1861,-1571 803,-363 1778,-576 2828,-576 1182,0 2270,270 3124,721 892,470 1535,1141 1776,1913zm-977 135c51,128 -12,273 -140,323 -128,51 -273,-12 -323,-140 -164,-412 -597,-779 -1199,-1046 -616,-274 -1402,-438 -2262,-438 -910,0 -1737,183 -2367,486 -606,292 -1023,687 -1135,1125 -34,133 -170,214 -303,180 -133,-34 -214,-170 -180,-303 151,-587 664,-1096 1402,-1451 696,-335 1599,-537 2582,-537 929,0 1786,181 2465,483 718,320 1244,781 1458,1318z"/>
    <path class="fil2" d="M13084 28587c55,126 -3,273 -129,328 -126,55 -273,-3 -328,-129 -336,-773 -1035,-1443 -1962,-1919l0 0c-919,-472 -2061,-752 -3301,-752 -1054,0 -2038,203 -2875,554 -857,360 -1557,874 -2016,1484 -83,110 -239,132 -349,50 -110,-83 -132,-239 -50,-349 513,-683 1285,-1253 2221,-1646 896,-377 1947,-593 3069,-593 1319,0 2540,301 3529,809l1 0c1028,528 1807,1284 2191,2164zm-1059 30c70,119 31,272 -88,342 -119,70 -272,31 -342,-88 -320,-541 -896,-1007 -1636,-1335 -734,-326 -1628,-517 -2595,-517 -889,0 -1717,162 -2415,442 -711,285 -1287,691 -1654,1171 -84,109 -240,130 -350,47 -109,-84 -130,-240 -47,-350 422,-551 1071,-1012 1864,-1331 757,-304 1649,-479 2601,-479 1035,0 1998,208 2796,562 836,372 1493,907 1865,1536zm-1121 82c94,100 89,258 -12,352 -100,94 -258,89 -352,-12 -292,-312 -741,-576 -1294,-762 -546,-184 -1191,-290 -1883,-290 -722,0 -1393,116 -1955,316 -564,201 -1015,484 -1290,816 -88,106 -245,121 -352,33 -106,-88 -121,-245 -33,-352 333,-401 859,-737 1509,-968 614,-218 1342,-345 2121,-345 744,0 1443,116 2041,318 630,213 1151,523 1499,895zm-1068 319c117,72 153,226 81,343 -72,117 -226,153 -343,81 -228,-141 -549,-259 -932,-343 -378,-82 -814,-129 -1278,-129 -566,0 -1087,69 -1513,187 -419,116 -740,274 -911,454 -95,100 -253,104 -353,9 -100,-95 -104,-253 -9,-353 233,-246 635,-452 1140,-591 471,-130 1039,-206 1646,-206 499,0 971,51 1384,141 437,95 812,236 1089,407z"/>
    <path class="fil2" d="M27587 30683c72,118 36,272 -82,344 -118,72 -272,36 -344,-82 -382,-621 -1005,-1158 -1789,-1556 -779,-396 -1715,-654 -2734,-722 -98,-7 -188,-11 -270,-14 -73,-2 -164,-4 -273,-4 -973,0 -1887,173 -2680,476 -815,311 -1501,760 -1991,1298 -93,102 -251,109 -353,17 -102,-93 -109,-251 -17,-353 543,-597 1295,-1090 2183,-1429 848,-324 1823,-509 2858,-509 79,0 176,2 288,6 105,3 201,8 288,14 1086,73 2088,350 2925,774 867,440 1560,1041 1990,1740zm-822 482c69,119 28,272 -91,341 -119,69 -272,28 -341,-91 -316,-543 -893,-1011 -1635,-1342 -736,-329 -1632,-521 -2602,-521 -885,0 -1710,160 -2406,438 -709,283 -1284,685 -1653,1161 -84,109 -241,129 -350,45 -109,-84 -129,-241 -45,-350 424,-546 1072,-1004 1864,-1319 755,-301 1643,-475 2589,-475 1039,0 2006,209 2805,566 837,374 1494,913 1863,1547zm-825 485c65,121 20,273 -102,338 -121,65 -273,20 -338,-102 -208,-387 -650,-727 -1243,-972 -600,-248 -1348,-395 -2162,-395 -762,0 -1467,129 -2048,350 -579,220 -1029,529 -1277,886 -79,113 -235,141 -348,63 -113,-79 -141,-235 -63,-348 306,-440 837,-812 1509,-1067 635,-242 1402,-383 2225,-383 878,0 1692,162 2352,434 699,289 1230,707 1493,1196zm-829 552c32,134 -51,268 -185,300 -134,32 -268,-51 -300,-185 -47,-197 -324,-388 -744,-541 -468,-170 -1094,-273 -1787,-273 -522,0 -1006,59 -1414,161 -407,102 -733,244 -933,408 -106,87 -263,72 -351,-34 -87,-106 -72,-263 34,-351 259,-212 652,-389 1129,-508 448,-112 974,-177 1535,-177 749,0 1435,115 1957,305 578,210 970,524 1059,895z"/>
    <path class="fil2" d="M14886 31739c123,62 172,212 110,335 -62,123 -212,172 -335,110 -240,-121 -550,-221 -908,-290 -350,-68 -746,-106 -1166,-106 -626,0 -1198,85 -1650,228 -427,135 -732,312 -846,506 -70,119 -223,158 -342,88 -119,-70 -158,-223 -88,-342 179,-302 584,-557 1125,-728 498,-157 1123,-251 1800,-251 449,0 877,42 1260,116 403,78 758,194 1039,335zm3461 -240c51,128 -11,273 -139,324 -128,51 -273,-11 -324,-139 -345,-862 -1049,-1502 -1893,-1946 -1054,-555 -2324,-805 -3403,-805 -1094,0 -2112,218 -2968,594 -873,383 -1576,930 -2016,1576 -78,114 -233,143 -347,66 -114,-78 -143,-233 -66,-347 492,-723 1270,-1331 2229,-1752 918,-403 2005,-637 3167,-637 1148,0 2504,268 3635,863 942,496 1730,1218 2124,2202zm-1101 -68c70,119 31,272 -88,342 -119,70 -272,31 -342,-88 -320,-539 -896,-1003 -1637,-1331 -735,-326 -1628,-517 -2592,-517 -931,0 -1794,177 -2512,482 -728,308 -1305,746 -1648,1258 -77,114 -231,145 -346,68 -114,-77 -145,-231 -68,-346 398,-593 1052,-1094 1869,-1440 779,-330 1709,-523 2705,-523 1035,0 1997,207 2793,560 835,370 1492,905 1865,1534zm-1138 66c95,99 92,257 -7,353 -99,95 -257,92 -353,-7 -295,-308 -745,-569 -1295,-752 -542,-181 -1181,-285 -1866,-285 -769,0 -1480,131 -2061,354 -581,223 -1030,535 -1274,896 -77,114 -232,144 -346,67 -114,-77 -144,-232 -67,-346 301,-445 833,-822 1508,-1081 639,-246 1411,-390 2239,-390 737,0 1430,114 2025,312 626,209 1145,513 1496,879z"/>
    <path class="fil2" d="M20135 34997c90,105 77,262 -27,352 -105,90 -262,77 -352,-27 -158,-184 -476,-347 -898,-467 -434,-124 -968,-197 -1547,-197 -581,0 -1117,73 -1552,198 -422,121 -740,285 -896,469 -89,105 -246,118 -352,29 -105,-89 -118,-246 -29,-352 222,-261 625,-480 1140,-627 478,-137 1061,-217 1688,-217 625,0 1207,80 1684,216 514,147 917,364 1140,623zm2493 -1418c81,111 57,267 -54,349 -111,81 -267,57 -349,-54 -455,-620 -1156,-1142 -2016,-1508 -841,-357 -1834,-564 -2898,-564 -1066,0 -2059,207 -2901,565 -861,366 -1562,890 -2016,1511 -81,111 -238,135 -349,54 -111,-81 -135,-238 -54,-349 507,-693 1280,-1273 2223,-1675 903,-384 1964,-606 3097,-606 1132,0 2191,221 3094,605 943,400 1715,980 2223,1672zm-824 474c82,111 59,267 -52,349 -111,82 -267,59 -349,-52 -361,-487 -938,-901 -1653,-1192 -704,-286 -1541,-452 -2440,-452 -900,0 -1738,166 -2443,453 -716,292 -1293,706 -1653,1195 -82,111 -238,134 -349,52 -111,-82 -134,-238 -52,-349 415,-563 1066,-1035 1866,-1361 763,-311 1665,-491 2630,-491 964,0 1865,180 2627,490 799,325 1450,796 1866,1358zm-834 473c85,108 67,264 -41,350 -108,85 -264,67 -350,-41 -268,-339 -719,-629 -1288,-836 -567,-205 -1247,-325 -1981,-325 -735,0 -1417,120 -1984,326 -569,207 -1020,498 -1287,839 -85,108 -242,127 -351,42 -108,-85 -127,-242 -42,-351 325,-413 853,-760 1510,-999 622,-226 1362,-357 2154,-357 791,0 1530,131 2151,356 655,238 1183,584 1509,996z"/>
   </g>
  </g>
 </g>
</svg>
