<?xml version="1.0" encoding="UTF-8"?>
<!DOCTYPE svg PUBLIC "-//W3C//DTD SVG 1.1//EN" "http://www.w3.org/Graphics/SVG/1.1/DTD/svg11.dtd">
<!-- Creator: CorelDRAW X5 -->
<svg xmlns="http://www.w3.org/2000/svg" xml:space="preserve" width="34.611mm" height="39.964mm" style="shape-rendering:geometricPrecision; text-rendering:geometricPrecision; image-rendering:optimizeQuality; fill-rule:evenodd; clip-rule:evenodd"
viewBox="0 0 34611 39964"
 xmlns:xlink="http://www.w3.org/1999/xlink">
 <defs>
  <style type="text/css">
   <![CDATA[
    .fil0 {fill:#EA566F}
    .fil1 {fill:#2A2A29;fill-rule:nonzero}
    .fil2 {fill:#FEFEFE;fill-rule:nonzero}
   ]]>
  </style>
 </defs>
 <g id="Слой_x0020_1">
  <metadata id="CorelCorpID_0Corel-Layer"/>
  <g id="_126639240">
   <polygon class="fil0" points="17306,288 8778,5212 250,10135 250,19982 250,29829 8778,34752 17306,39676 25833,34752 34361,29829 34361,19982 34361,10135 25833,5212 "/>
   <path class="fil1" d="M17306 576l-8403 4851 -8403 4851 0 9703 0 9704 8402 4851 1 0 8403 4851 8403 -4851 1 0 8402 -4851 0 -9704 0 -9703 -8403 -4851 -8403 -4851zm-8653 4420l8528 -4924 125 -72 125 72 8528 4924 8528 4924 125 72 0 144 0 9847 0 9847 0 143 -126 73 -8527 4923 0 0 -8528 4924 -125 72 -125 -72 -8528 -4924 0 0 -8527 -4923 -126 -73 0 -143 0 -9847 0 -9847 0 -144 125 -72 8528 -4924z"/>
   <path class="fil2" d="M17233 9248c2964,-20 5656,1163 7611,3092 1956,1929 3176,4605 3196,7570 20,2964 -1163,5656 -3092,7611 -1929,1956 -4605,3176 -7570,3196 -2964,20 -5656,-1163 -7611,-3092 -1956,-1929 -3176,-4605 -3196,-7570 -20,-2964 1163,-5656 3092,-7611 1929,-1956 4605,-3176 7570,-3196zm7262 3447c-1865,-1840 -4433,-2968 -7260,-2949 -2826,19 -5377,1183 -7217,3048 -1840,1865 -2968,4433 -2949,7260 19,2826 1183,5377 3048,7217 1865,1840 4433,2968 7260,2949 2826,-19 5377,-1183 7217,-3048 1840,-1865 2968,-4433 2949,-7260 -19,-2826 -1183,-5377 -3048,-7217z"/>
   <path class="fil2" d="M17461 6412l-799 10004 10054 -6320c116,-73 270,-38 344,78 67,106 44,243 -49,322l0 0 -7639 6509 11577 2640c134,30 219,164 189,298 -28,123 -141,204 -263,194l0 1 -10004 -799 6320 10054c73,116 38,270 -78,344 -106,67 -243,44 -322,-49l0 0 -6509 -7639 -2640 11577c-30,134 -164,219 -298,189 -123,-28 -204,-141 -194,-263l-1 0 799 -10004 -10054 6320c-116,73 -270,38 -344,-78 -67,-106 -44,-243 49,-322l0 0 7639 -6509 -11577 -2640c-134,-30 -219,-164 -189,-298 28,-123 141,-204 263,-194l0 -1 10004 799 -6320 -10054c-73,-116 -38,-270 78,-344 106,-67 243,-44 322,49l0 0 6509 7639 2640 -11577c30,-134 164,-219 298,-189 123,28 204,141 194,263l1 0zm-1336 10460l564 -7064 -1983 8697c-11,53 -38,103 -82,141 -105,90 -262,77 -352,-27l-4599 -5397 4744 7547c33,46 51,104 46,166 -11,138 -131,240 -269,230l-7064 -564 8697 1983c53,11 103,38 141,82 90,105 77,262 -27,352l-5397 4599 7547 -4744c46,-33 104,-51 166,-46 138,11 240,131 230,269l-564 7064 1983 -8697c11,-53 38,-103 82,-141 105,-90 262,-77 352,27l4599 5397 -4744 -7547c-33,-46 -51,-104 -46,-166 11,-138 131,-240 269,-230l7064 564 -8697 -1983c-53,-11 -103,-38 -141,-82 -90,-105 -77,-262 27,-352l5397 -4599 -7547 4744c-46,33 -104,51 -166,46 -138,-11 -240,-131 -230,-269z"/>
  </g>
 </g>
</svg>
