<?xml version="1.0" encoding="UTF-8"?>
<!DOCTYPE svg PUBLIC "-//W3C//DTD SVG 1.1//EN" "http://www.w3.org/Graphics/SVG/1.1/DTD/svg11.dtd">
<!-- Creator: CorelDRAW X5 -->
<svg xmlns="http://www.w3.org/2000/svg" xml:space="preserve" width="34.611mm" height="39.964mm" style="shape-rendering:geometricPrecision; text-rendering:geometricPrecision; image-rendering:optimizeQuality; fill-rule:evenodd; clip-rule:evenodd"
viewBox="0 0 34611 39964"
 xmlns:xlink="http://www.w3.org/1999/xlink">
 <defs>
  <style type="text/css">
   <![CDATA[
    .fil0 {fill:#FECC00}
    .fil1 {fill:#2A2A29;fill-rule:nonzero}
   ]]>
  </style>
 </defs>
 <g id="Слой_x0020_1">
  <metadata id="CorelCorpID_0Corel-Layer"/>
  <g id="_126651144">
   <polygon class="fil0" points="17306,288 8778,5212 250,10135 250,19982 250,29829 8778,34752 17306,39676 25833,34752 34361,29829 34361,19982 34361,10135 25833,5212 "/>
   <path class="fil1" d="M17306 576l-8403 4851 -8403 4851 0 9703 0 9704 8402 4851 1 0 8403 4851 8403 -4851 1 0 8402 -4851 0 -9704 0 -9703 -8403 -4851 -8403 -4851zm-8653 4420l8528 -4924 125 -72 125 72 8528 4924 8528 4924 125 72 0 144 0 9847 0 9847 0 143 -126 73 -8527 4923 0 0 -8528 4924 -125 72 -125 -72 -8528 -4924 0 0 -8527 -4923 -126 -73 0 -143 0 -9847 0 -9847 0 -144 125 -72 8528 -4924z"/>
   <path class="fil1" d="M10338 8287c624,1629 1611,3002 2831,3956 1172,917 2562,1448 4051,1448 1489,0 2879,-531 4051,-1448 1220,-954 2207,-2327 2831,-3956 49,-129 193,-194 322,-145 97,37 158,128 161,226 27,275 48,553 62,834 14,292 22,577 22,855 0,3090 -821,5892 -2149,7924 -1348,2063 -3221,3339 -5299,3339 -2078,0 -3951,-1276 -5299,-3339 -1328,-2032 -2149,-4834 -2149,-7924 0,-278 8,-564 22,-856 14,-286 36,-569 64,-850 13,-137 136,-237 272,-224 97,10 176,74 209,159l1 0zm2524 4348c-1048,-820 -1933,-1927 -2579,-3230 -8,210 -12,428 -12,652 0,2992 790,5696 2067,7651 1257,1923 2983,3112 4881,3112 1898,0 3624,-1189 4881,-3112 1277,-1954 2067,-4659 2067,-7651 0,-225 -4,-442 -12,-652 -647,1303 -1531,2410 -2579,3230 -1259,985 -2754,1555 -4358,1555 -1603,0 -3098,-571 -4357,-1555z"/>
   <path class="fil1" d="M24499 7843c859,1119 1549,2436 2020,3890 455,1405 705,2936 705,4537 0,2589 -652,4992 -1765,6972 -1150,2046 -2793,3642 -4718,4530 -83,38 -177,27 -247,-22l0 0 -2737 -1908 -3422 2088c-71,43 -154,47 -225,17 -450,-181 -885,-398 -1301,-650 -423,-256 -830,-547 -1217,-872 -49,-41 -78,-97 -87,-155l-165 -882 -280 236c-101,85 -251,76 -341,-19l0 0c-1093,-1148 -1982,-2582 -2591,-4208 -585,-1562 -911,-3299 -911,-5129 0,-1601 250,-3133 705,-4537 473,-1461 1167,-2783 2031,-3905 84,-109 241,-129 350,-45 72,56 105,143 95,228l1 0c-42,338 -74,678 -95,1016 -21,333 -31,677 -31,1030 0,2992 790,5696 2067,7651 1257,1923 2983,3112 4881,3112 1898,0 3624,-1189 4881,-3112 1277,-1954 2067,-4659 2067,-7651 0,-353 -11,-697 -31,-1030 -21,-339 -53,-678 -95,-1016 -17,-137 81,-262 218,-278 97,-12 188,34 239,111zm1545 4043c-352,-1088 -832,-2097 -1416,-2996l7 108c22,355 33,708 33,1059 0,3090 -821,5892 -2149,7924 -1348,2063 -3221,3339 -5299,3339 -2078,0 -3951,-1276 -5299,-3339 -1328,-2032 -2149,-4834 -2149,-7924 0,-351 11,-705 33,-1059l7 -108c-584,900 -1064,1908 -1416,2996 -438,1354 -679,2834 -679,4385 0,1772 315,3450 878,4955 555,1481 1351,2796 2326,3867l413 -347c34,-33 77,-56 127,-65 135,-25 266,64 291,199l229 1222c346,285 709,542 1086,770 361,218 734,409 1117,569l3441 -2100c83,-58 197,-61 285,0l2752 1918c1774,-855 3290,-2352 4363,-4260 1072,-1908 1701,-4226 1701,-6728 0,-1551 -241,-3031 -679,-4385z"/>
   <path class="fil1" d="M30330 28255c138,5 245,120 240,258 -5,138 -120,245 -258,240l-8767 -318c-50,-2 -96,-18 -134,-44l0 1 -3656 -2548 -5641 3442c-55,34 -118,43 -177,32l0 0 -5137 -998 -1064 1909c-67,120 -219,164 -339,97 -120,-67 -164,-219 -97,-339l1146 -2055c48,-99 158,-158 272,-137l5220 1014 5686 -3469c83,-58 197,-61 285,0l3730 2600 8692 315z"/>
   <path class="fil1" d="M12921 28384c70,119 29,272 -90,342 -119,70 -272,29 -342,-90l-778 -1333c-18,-30 -28,-63 -32,-96l-340 -1818 -2453 2062c-50,42 -112,61 -173,58l0 1 -3866 -202 -2113 812c-128,49 -272,-15 -321,-144 -49,-128 15,-272 144,-321l2148 -825c35,-16 75,-24 117,-22l3820 200 2692 -2263c34,-33 77,-56 127,-65 135,-25 266,64 291,199l413 2209 757 1297z"/>
   <path class="fil1" d="M23581 25721c-128,50 -273,-13 -323,-142 -50,-128 13,-273 142,-323l1786 -704c105,-41 221,-6 287,78l1056 1237 2827 151c42,2 81,14 114,34l0 0 3664 2176c119,70 158,223 88,342 -70,119 -223,158 -342,88l-3612 -2145 -2871 -154c-66,-3 -131,-33 -178,-87l-1017 -1191 -1621 639z"/>
   <path class="fil1" d="M8689 21959c138,7 243,124 236,262 -7,138 -124,243 -262,236l-3866 -202 -2113 812c-128,49 -272,-15 -321,-144 -49,-128 15,-272 144,-321l2148 -825c35,-16 75,-25 117,-22l3917 205z"/>
   <path class="fil1" d="M30781 23104c110,83 132,239 50,349 -83,110 -239,132 -349,50l-2438 -1830 -2188 584c-133,35 -270,-45 -305,-178 -35,-133 45,-270 178,-305l2304 -614 0 0c71,-19 150,-6 213,42l2535 1903z"/>
   <polygon class="fil1" points="10619,9483 10154,9751 9904,9320 10369,9051 "/>
   <polygon class="fil1" points="11196,10504 10165,11099 9917,10667 10948,10072 "/>
   <polygon class="fil1" points="11899,11453 10279,12388 10029,11957 11649,11021 "/>
   <polygon class="fil1" points="12742,12321 10486,13624 10236,13192 12492,11890 "/>
   <polygon class="fil1" points="13757,13089 10783,14807 10533,14375 13507,12658 "/>
   <polygon class="fil1" points="15010,13721 11171,15937 10921,15506 14760,13289 "/>
   <path class="fil1" d="M24528 9579l-734 423 -248 -432 734 -423 248 432zm-7864 4541l-5012 2894 -250 -432 5012 -2894 250 432z"/>
   <path class="fil1" d="M24529 10934l-2985 1723 -248 -432 2985 -1723 248 432zm-4783 2761l-7511 4336 -248 -432 7511 -4336 248 432z"/>
   <polygon class="fil1" points="24413,12355 12937,18981 12689,18549 24165,11923 "/>
   <polygon class="fil1" points="24151,13861 13784,19846 13536,19415 23903,13429 "/>
   <polygon class="fil1" points="23688,15484 14833,20596 14583,20164 23438,15052 "/>
   <polygon class="fil1" points="22886,17301 16218,21151 15970,20719 22638,16869 "/>
   <polygon class="fil1" points="21049,19716 18641,21107 18391,20675 20799,19285 "/>
  </g>
 </g>
</svg>
