<?xml version="1.0" encoding="UTF-8"?>
<!DOCTYPE svg PUBLIC "-//W3C//DTD SVG 1.1//EN" "http://www.w3.org/Graphics/SVG/1.1/DTD/svg11.dtd">
<!-- Creator: CorelDRAW X5 -->
<svg xmlns="http://www.w3.org/2000/svg" xml:space="preserve" width="34.611mm" height="39.964mm" style="shape-rendering:geometricPrecision; text-rendering:geometricPrecision; image-rendering:optimizeQuality; fill-rule:evenodd; clip-rule:evenodd"
viewBox="0 0 34611 39964"
 xmlns:xlink="http://www.w3.org/1999/xlink">
 <defs>
  <style type="text/css">
   <![CDATA[
    .fil0 {fill:#63A375}
    .fil1 {fill:#2A2A29;fill-rule:nonzero}
    .fil2 {fill:#FEFEFE;fill-rule:nonzero}
   ]]>
  </style>
 </defs>
 <g id="Слой_x0020_1">
  <metadata id="CorelCorpID_0Corel-Layer"/>
  <g id="_399838952">
   <polygon class="fil0" points="17306,288 8778,5212 250,10135 250,19982 250,29829 8778,34752 17306,39676 25833,34752 34361,29829 34361,19982 34361,10135 25833,5212 "/>
   <path class="fil1" d="M17306 576l-8403 4851 -8403 4851 0 9703 0 9704 8402 4851 1 0 8403 4851 8403 -4851 1 0 8402 -4851 0 -9704 0 -9703 -8403 -4851 -8403 -4851zm-8653 4420l8528 -4924 125 -72 125 72 8528 4924 8528 4924 125 72 0 144 0 9847 0 9847 0 143 -126 73 -8527 4923 0 0 -8528 4924 -125 72 -125 -72 -8528 -4924 0 0 -8527 -4923 -126 -73 0 -143 0 -9847 0 -9847 0 -144 125 -72 8528 -4924z"/>
   <g>
    <path class="fil2" d="M25194 32759c0,138 -112,250 -250,250 -138,0 -250,-112 -250,-250l0 -10693c0,-138 112,-250 250,-250 138,0 250,112 250,250l0 10693z"/>
    <path class="fil2" d="M24944 21816c821,0 1557,477 2084,1249 508,744 822,1766 822,2891 0,1125 -314,2148 -822,2891 -527,772 -1263,1249 -2084,1249 -821,0 -1557,-477 -2084,-1249 -508,-744 -822,-1766 -822,-2891 0,-1125 314,-2148 822,-2891 527,-772 1263,-1249 2084,-1249zm1672 1530c-434,-636 -1026,-1030 -1672,-1030 -646,0 -1238,394 -1672,1030 -453,664 -734,1587 -734,2610 0,1023 281,1946 734,2610 434,636 1026,1030 1672,1030 646,0 1238,-394 1672,-1030 453,-664 734,-1587 734,-2610 0,-1023 -281,-1946 -734,-2610z"/>
    <polygon class="fil2" points="23334,28801 26553,28801 26553,29301 23334,29301 "/>
    <polygon class="fil2" points="22700,27788 27187,27788 27187,28288 22700,28288 "/>
    <polygon class="fil2" points="22389,26776 27498,26776 27498,27276 22389,27276 "/>
    <polygon class="fil2" points="22288,25763 27599,25763 27599,26263 22288,26263 "/>
    <polygon class="fil2" points="22369,24751 27519,24751 27519,25251 22369,25251 "/>
    <polygon class="fil2" points="22652,23738 27235,23738 27235,24238 22652,24238 "/>
    <polygon class="fil2" points="23237,22726 26650,22726 26650,23226 23237,23226 "/>
    <path class="fil2" d="M17556 23032c0,138 -112,250 -250,250 -138,0 -250,-112 -250,-250l0 -10717c0,-138 112,-250 250,-250 138,0 250,112 250,250l0 10717z"/>
    <path class="fil2" d="M15184 20574c-119,-69 -160,-222 -91,-341 69,-119 222,-160 341,-91l1911 1104 85 49 -10 18c58,78 67,185 16,274 -52,89 -150,134 -245,123l-10 17 -85 -49 -1911 -1104z"/>
    <path class="fil2" d="M15430 19561c-119,-69 -160,-222 -91,-341 69,-119 222,-160 341,-91l1750 1011c119,69 160,222 91,341 -69,119 -222,160 -341,91l-1750 -1011z"/>
    <path class="fil2" d="M15677 18549c-119,-69 -160,-222 -91,-341 69,-119 222,-160 341,-91l1504 868c119,69 160,222 91,341 -69,119 -222,160 -341,91l-1504 -868z"/>
    <path class="fil2" d="M15923 17536c-119,-69 -160,-222 -91,-341 69,-119 222,-160 341,-91l1258 726c119,69 160,222 91,341 -69,119 -222,160 -341,91l-1258 -726z"/>
    <path class="fil2" d="M16169 16524c-119,-69 -160,-222 -91,-341 69,-119 222,-160 341,-91l1011 584c119,69 160,222 91,341 -69,119 -222,160 -341,91l-1011 -584z"/>
    <path class="fil2" d="M16416 15511c-119,-69 -160,-222 -91,-341 69,-119 222,-160 341,-91l765 442c119,69 160,222 91,341 -69,119 -222,160 -341,91l-765 -442z"/>
    <path class="fil2" d="M16662 14499c-119,-69 -160,-222 -91,-341 69,-119 222,-160 341,-91l519 300c119,69 160,222 91,341 -69,119 -222,160 -341,91l-519 -300z"/>
    <path class="fil2" d="M16918 13491c-119,-68 -160,-221 -92,-340 68,-119 221,-160 340,-92l263 152c119,68 160,221 92,340 -68,119 -221,160 -340,92l-263 -152z"/>
    <path class="fil2" d="M17306 13205l-896 3684 -1063 4371 1960 0 1960 0 -1063 -4371 -896 -3684zm-1381 3567l1139 -4680c21,-88 90,-161 184,-184 134,-32 269,50 301,184l1139 4680 1133 4659c8,25 13,52 13,80 0,138 -112,250 -250,250l-2277 0 -2277 0 0 -1c-19,0 -39,-2 -59,-7 -134,-32 -216,-167 -184,-301l1139 -4680z"/>
    <path class="fil2" d="M29914 24278c0,138 -112,250 -250,250 -138,0 -250,-112 -250,-250l0 -10693c0,-138 112,-250 250,-250 138,0 250,112 250,250l0 10693z"/>
    <path class="fil2" d="M26815 13263l5731 0 250 0 0 250 0 7021 0 250 -250 0 -5731 0 -250 0 0 -250 0 -7021 0 -250 250 0zm5481 500l-5231 0 0 6521 5231 0 0 -6521z"/>
    <polygon class="fil2" points="29743,13297 29805,13333 29557,13765 29495,13729 "/>
    <polygon class="fil2" points="27743,13297 29805,14488 29557,14919 27495,13729 "/>
    <polygon class="fil2" points="26940,13988 29806,15642 29556,16074 26690,14420 "/>
    <polygon class="fil2" points="26940,15143 29806,16797 29556,17229 26690,15574 "/>
    <polygon class="fil2" points="26940,16297 29806,17952 29556,18383 26690,16729 "/>
    <polygon class="fil2" points="26940,17452 29806,19107 29556,19538 26690,17884 "/>
    <polygon class="fil2" points="26940,18607 29806,20261 29556,20693 26690,19039 "/>
    <polygon class="fil2" points="26940,19762 27905,20318 27655,20750 26690,20193 "/>
    <path class="fil2" d="M22583 16175c0,138 -112,250 -250,250 -138,0 -250,-112 -250,-250l0 -10169c0,-138 112,-250 250,-250 138,0 250,112 250,250l0 10169z"/>
    <path class="fil2" d="M22333 5756c1067,0 2033,433 2732,1132 699,699 1132,1665 1132,2732 0,1067 -433,2033 -1132,2732 -699,699 -1665,1132 -2732,1132 -1067,0 -2033,-433 -2732,-1132 -699,-699 -1132,-1665 -1132,-2732 0,-1067 433,-2033 1132,-2732 699,-699 1665,-1132 2732,-1132zm2379 1485c-609,-609 -1450,-985 -2379,-985 -929,0 -1770,377 -2379,985 -609,609 -985,1450 -985,2379 0,929 377,1770 985,2379 609,609 1450,985 2379,985 929,0 1770,-377 2379,-985 609,-609 985,-1450 985,-2379 0,-929 -377,-1770 -985,-2379z"/>
    <polygon class="fil2" points="24121,6617 22393,7614 22145,7182 23873,6185 "/>
    <polygon class="fil2" points="25012,7257 22394,8769 22144,8337 24762,6826 "/>
    <polygon class="fil2" points="25556,8098 22394,9923 22144,9492 25306,7666 "/>
    <polygon class="fil2" points="25904,9051 22393,11078 22145,10647 25656,8620 "/>
    <polygon class="fil2" points="26124,10079 22394,12233 22144,11801 25874,9648 "/>
    <polygon class="fil2" points="25614,11528 22394,13388 22144,12956 25364,11097 "/>
    <polygon class="fil2" points="21500,5942 22576,6563 22328,6995 21252,6373 "/>
    <polygon class="fil2" points="20376,6442 22602,7728 22352,8159 20126,6874 "/>
    <polygon class="fil2" points="19677,7198 22577,8872 22327,9304 19427,7630 "/>
    <polygon class="fil2" points="19091,8015 22576,10027 22328,10459 18843,8447 "/>
    <polygon class="fil2" points="18865,9038 22577,11182 22327,11613 18615,9470 "/>
    <polygon class="fil2" points="18955,10245 22577,12337 22327,12768 18705,10677 "/>
    <path class="fil2" d="M5080 23980c0,138 -112,250 -250,250 -138,0 -250,-112 -250,-250l0 -10169c0,-138 112,-250 250,-250 138,0 250,112 250,250l0 10169z"/>
    <path class="fil2" d="M4830 13561c1067,0 2033,433 2732,1132 699,699 1132,1665 1132,2732 0,1067 -433,2033 -1132,2732 -699,699 -1665,1132 -2732,1132 -1067,0 -2033,-433 -2732,-1132 -699,-699 -1132,-1665 -1132,-2732 0,-1067 433,-2033 1132,-2732 699,-699 1665,-1132 2732,-1132zm2379 1485c-609,-609 -1450,-985 -2379,-985 -929,0 -1770,377 -2379,985 -609,609 -985,1450 -985,2379 0,929 377,1770 985,2379 609,609 1450,985 2379,985 929,0 1770,-377 2379,-985 609,-609 985,-1450 985,-2379 0,-929 -377,-1770 -985,-2379z"/>
    <polygon class="fil2" points="6618,14422 4891,15419 4643,14988 6370,13990 "/>
    <polygon class="fil2" points="7510,15062 4892,16574 4642,16142 7260,14631 "/>
    <polygon class="fil2" points="8054,15903 4892,17729 4642,17297 7804,15471 "/>
    <polygon class="fil2" points="8401,16857 4891,18883 4643,18452 8153,16425 "/>
    <polygon class="fil2" points="8622,17885 4892,20038 4642,19607 8372,17453 "/>
    <polygon class="fil2" points="8112,19334 4892,21193 4642,20761 7862,18902 "/>
    <polygon class="fil2" points="3998,13747 5074,14368 4826,14800 3750,14179 "/>
    <polygon class="fil2" points="2874,14248 5100,15533 4850,15964 2624,14679 "/>
    <polygon class="fil2" points="2175,15004 5075,16678 4825,17109 1925,15435 "/>
    <polygon class="fil2" points="1589,15821 5074,17832 4826,18264 1341,16252 "/>
    <polygon class="fil2" points="1362,16844 5075,18987 4825,19419 1112,17275 "/>
    <polygon class="fil2" points="1452,18050 5075,20142 4825,20573 1202,18482 "/>
    <path class="fil2" d="M17529 36813c0,138 -112,250 -250,250 -138,0 -250,-112 -250,-250l0 -10169c0,-138 112,-250 250,-250 138,0 250,112 250,250l0 10169z"/>
    <path class="fil2" d="M17279 26394c1067,0 2033,433 2732,1132 699,699 1132,1665 1132,2732 0,1067 -433,2033 -1132,2732 -699,699 -1665,1132 -2732,1132 -1067,0 -2033,-433 -2732,-1132 -699,-699 -1132,-1665 -1132,-2732 0,-1067 433,-2033 1132,-2732 699,-699 1665,-1132 2732,-1132zm2379 1485c-609,-609 -1450,-985 -2379,-985 -929,0 -1770,377 -2379,985 -609,609 -985,1450 -985,2379 0,929 377,1770 985,2379 609,609 1450,985 2379,985 929,0 1770,-377 2379,-985 609,-609 985,-1450 985,-2379 0,-929 -377,-1770 -985,-2379z"/>
    <polygon class="fil2" points="19067,27254 17340,28252 17092,27820 18819,26823 "/>
    <polygon class="fil2" points="19959,27895 17341,29406 17091,28975 19709,27463 "/>
    <polygon class="fil2" points="20503,28735 17341,30561 17091,30129 20253,28304 "/>
    <polygon class="fil2" points="20850,29689 17340,31716 17092,31284 20602,29257 "/>
    <polygon class="fil2" points="21071,30717 17341,32871 17091,32439 20821,30285 "/>
    <polygon class="fil2" points="20561,32166 17341,34025 17091,33594 20311,31734 "/>
    <polygon class="fil2" points="16447,26579 17523,27201 17275,27632 16199,27011 "/>
    <polygon class="fil2" points="15323,27080 17549,28365 17299,28797 15073,27512 "/>
    <polygon class="fil2" points="14624,27836 17524,29510 17274,29942 14374,28268 "/>
    <polygon class="fil2" points="14038,28653 17523,30665 17275,31096 13790,29085 "/>
    <polygon class="fil2" points="13811,29676 17524,31819 17274,32251 13561,30108 "/>
    <polygon class="fil2" points="13901,30883 17524,32974 17274,33406 13651,31314 "/>
    <path class="fil2" d="M9831 32795c0,138 -112,250 -250,250 -138,0 -250,-112 -250,-250l0 -10693c0,-138 112,-250 250,-250 138,0 250,112 250,250l0 10693z"/>
    <path class="fil2" d="M12180 22280l-5231 0 0 6521 5231 0 0 -6521zm-5481 -500l5731 0 250 0 0 250 0 7021 0 250 -250 0 -5731 0 -250 0 0 -250 0 -7021 0 -250 250 0z"/>
    <polygon class="fil2" points="9751,22246 9689,22281 9441,21850 9503,21814 "/>
    <polygon class="fil2" points="11751,22246 9689,23436 9441,23004 11503,21814 "/>
    <polygon class="fil2" points="12555,22936 9690,24591 9440,24159 12305,22505 "/>
    <polygon class="fil2" points="12555,24091 9690,25745 9440,25314 12305,23659 "/>
    <polygon class="fil2" points="12555,25246 9690,26900 9440,26469 12305,24814 "/>
    <polygon class="fil2" points="12555,26401 9690,28055 9440,27623 12305,25969 "/>
    <polygon class="fil2" points="12555,27555 9690,29210 9440,28778 12305,27124 "/>
    <polygon class="fil2" points="12555,28710 11591,29267 11341,28835 12305,28278 "/>
    <path class="fil2" d="M11415 16437c0,138 -112,250 -250,250 -138,0 -250,-112 -250,-250l0 -10693c0,-138 112,-250 250,-250 138,0 250,112 250,250l0 10693z"/>
    <path class="fil2" d="M11165 5494c821,0 1557,477 2084,1249 508,744 822,1766 822,2891 0,1125 -314,2148 -822,2891 -527,772 -1263,1249 -2084,1249 -821,0 -1557,-477 -2084,-1249 -508,-744 -822,-1766 -822,-2891 0,-1125 314,-2148 822,-2891 527,-772 1263,-1249 2084,-1249zm1672 1530c-434,-636 -1026,-1030 -1672,-1030 -646,0 -1238,394 -1672,1030 -453,664 -734,1587 -734,2610 0,1023 281,1946 734,2610 434,636 1026,1030 1672,1030 646,0 1238,-394 1672,-1030 453,-664 734,-1587 734,-2610 0,-1023 -281,-1946 -734,-2610z"/>
    <polygon class="fil2" points="9556,12479 12774,12479 12774,12979 9556,12979 "/>
    <polygon class="fil2" points="8921,11466 13409,11466 13409,11966 8921,11966 "/>
    <polygon class="fil2" points="8611,10454 13719,10454 13719,10954 8611,10954 "/>
    <polygon class="fil2" points="8510,9441 13820,9441 13820,9941 8510,9941 "/>
    <polygon class="fil2" points="8590,8429 13740,8429 13740,8929 8590,8929 "/>
    <polygon class="fil2" points="8874,7416 13456,7416 13456,7916 8874,7916 "/>
    <polygon class="fil2" points="9458,6404 12872,6404 12872,6904 9458,6904 "/>
   </g>
  </g>
 </g>
</svg>
