<?xml version="1.0" encoding="UTF-8"?>
<!DOCTYPE svg PUBLIC "-//W3C//DTD SVG 1.1//EN" "http://www.w3.org/Graphics/SVG/1.1/DTD/svg11.dtd">
<!-- Creator: CorelDRAW X5 -->
<svg xmlns="http://www.w3.org/2000/svg" xml:space="preserve" width="34.611mm" height="39.964mm" style="shape-rendering:geometricPrecision; text-rendering:geometricPrecision; image-rendering:optimizeQuality; fill-rule:evenodd; clip-rule:evenodd"
viewBox="0 0 34611 39964"
 xmlns:xlink="http://www.w3.org/1999/xlink">
 <defs>
  <style type="text/css">
   <![CDATA[
    .fil0 {fill:#D7B56D}
    .fil1 {fill:#2A2A29;fill-rule:nonzero}
    .fil2 {fill:#FEFEFE;fill-rule:nonzero}
   ]]>
  </style>
 </defs>
 <g id="Слой_x0020_1">
  <metadata id="CorelCorpID_0Corel-Layer"/>
  <g id="_126643992">
   <polygon class="fil0" points="17306,288 8778,5212 250,10135 250,19982 250,29829 8778,34752 17306,39676 25833,34752 34361,29829 34361,19982 34361,10135 25833,5212 "/>
   <path class="fil1" d="M17306 576l-8403 4851 -8403 4851 0 9703 0 9704 8402 4851 1 0 8403 4851 8403 -4851 1 0 8402 -4851 0 -9704 0 -9703 -8403 -4851 -8403 -4851zm-8653 4420l8528 -4924 125 -72 125 72 8528 4924 8528 4924 125 72 0 144 0 9847 0 9847 0 143 -126 73 -8527 4923 0 0 -8528 4924 -125 72 -125 -72 -8528 -4924 0 0 -8527 -4923 -126 -73 0 -143 0 -9847 0 -9847 0 -144 125 -72 8528 -4924z"/>
   <path class="fil2" d="M1585 23211c-129,49 -273,-17 -321,-146 -49,-129 17,-273 146,-321l6215 -2351c9,-3 17,-6 26,-8l6447 -1705c38,-10 77,-11 113,-3l19115 3035c136,22 229,149 207,285 -22,136 -149,229 -285,207l-19073 -3029 -6386 1689 -6203 2346z"/>
   <path class="fil2" d="M24757 26699c118,72 155,225 83,343 -72,118 -225,155 -343,83l-6087 -3730 -7123 -3519c-123,-61 -174,-211 -113,-334 61,-123 211,-174 334,-113l7128 3522c8,4 16,8 24,13l6096 3735z"/>
   <path class="fil2" d="M13702 26675c123,61 174,211 113,334 -61,123 -211,174 -334,113l-2026 -1000 -1803 -630 -1532 1556c-97,98 -254,99 -353,3 -98,-97 -99,-254 -3,-353l1639 -1665c65,-70 168,-98 264,-65l1961 686c12,4 23,8 35,14l2039 1006z"/>
   <path class="fil2" d="M30825 18464c129,46 197,189 150,318 -46,129 -189,197 -318,150l-7967 -2874 -9617 -132 -3884 1378 -3832 2325c-118,71 -271,34 -342,-84 -71,-118 -34,-271 84,-342l3840 -2330c19,-14 40,-25 63,-33l3946 -1399 0 1c27,-10 56,-14 86,-14l9705 134c27,0 54,5 81,15l8006 2888z"/>
   <path class="fil2" d="M22490 15764c26,-135 157,-224 292,-198 135,26 224,157 198,292l-435 2238c-19,101 -98,177 -192,197l0 0 -5739 1255c-135,29 -268,-57 -297,-191 -29,-135 57,-268 191,-297l5578 -1220 404 -2076z"/>
   <path class="fil2" d="M7498 20957c-102,93 -260,85 -353,-17 -93,-102 -85,-260 17,-353l3018 -2741c37,-33 81,-54 126,-61l0 0 2949 -503 -465 -1533c-40,-132 35,-272 167,-312 132,-40 272,35 312,167l547 1804 0 0c3,10 5,20 7,30 23,136 -68,265 -204,288l-3157 538 -2964 2692z"/>
  </g>
 </g>
</svg>
