<?xml version="1.0" encoding="UTF-8"?>
<!DOCTYPE svg PUBLIC "-//W3C//DTD SVG 1.1//EN" "http://www.w3.org/Graphics/SVG/1.1/DTD/svg11.dtd">
<!-- Creator: CorelDRAW X5 -->
<svg xmlns="http://www.w3.org/2000/svg" xml:space="preserve" width="34.611mm" height="39.964mm" style="shape-rendering:geometricPrecision; text-rendering:geometricPrecision; image-rendering:optimizeQuality; fill-rule:evenodd; clip-rule:evenodd"
viewBox="0 0 34611 39964"
 xmlns:xlink="http://www.w3.org/1999/xlink">
 <defs>
  <style type="text/css">
   <![CDATA[
    .fil0 {fill:#2A2A29}
    .fil3 {fill:#FEFEFE}
    .fil1 {fill:#2A2A29;fill-rule:nonzero}
    .fil2 {fill:#FEFEFE;fill-rule:nonzero}
   ]]>
  </style>
 </defs>
 <g id="Слой_x0020_1">
  <metadata id="CorelCorpID_0Corel-Layer"/>
  <g id="_399851216">
   <polygon class="fil0" points="17306,288 8778,5212 250,10135 250,19982 250,29829 8778,34752 17306,39676 25833,34752 34361,29829 34361,19982 34361,10135 25833,5212 "/>
   <path class="fil1" d="M17306 576l-8403 4851 -8403 4851 0 9703 0 9704 8402 4851 1 0 8403 4851 8403 -4851 1 0 8402 -4851 0 -9704 0 -9703 -8403 -4851 -8403 -4851zm-8653 4420l8528 -4924 125 -72 125 72 8528 4924 8528 4924 125 72 0 144 0 9847 0 9847 0 143 -126 73 -8527 4923 0 0 -8528 4924 -125 72 -125 -72 -8528 -4924 0 0 -8527 -4923 -126 -73 0 -143 0 -9847 0 -9847 0 -144 125 -72 8528 -4924z"/>
   <path class="fil2" d="M8043 22671c0,138 -112,250 -250,250 -138,0 -250,-112 -250,-250l0 -8100 0 -46 18 -45 1862 -4730c50,-128 195,-192 323,-142 128,50 192,195 142,323l-1844 4685 0 8054z"/>
   <path class="fil2" d="M8935 18412c119,-69 272,-28 341,91 69,119 28,272 -91,341l-1267 732c-119,69 -272,28 -341,-91 -69,-119 -28,-272 91,-341l1267 -732z"/>
   <path class="fil2" d="M9528 16641c119,-69 272,-28 341,91 69,119 28,272 -91,341l-1860 1074c-119,69 -272,28 -341,-91 -69,-119 -28,-272 91,-341l1860 -1074z"/>
   <path class="fil2" d="M9471 14723c94,100 90,258 -11,353 -100,94 -258,90 -353,-11l-281 -299 -909 525c-119,69 -272,28 -341,-91 -69,-119 -28,-272 91,-341l1080 -624 172 -99 135 144 417 443z"/>
   <path class="fil2" d="M9018 12739c119,-69 272,-28 341,91 69,119 28,272 -91,341l-947 547c-119,69 -272,28 -341,-91 -69,-119 -28,-272 91,-341l947 -547z"/>
   <path class="fil2" d="M9774 10953c132,38 208,177 170,309 -38,132 -177,208 -309,170l-361 -106c-132,-38 -208,-177 -170,-309 38,-132 177,-208 309,-170l361 106z"/>
   <path class="fil2" d="M6225 20171c-119,-69 -160,-222 -91,-341 69,-119 222,-160 341,-91l1337 772c119,69 160,222 91,341 -69,119 -222,160 -341,91l-1337 -772z"/>
   <path class="fil2" d="M5116 18563c-138,6 -254,-101 -260,-238 -6,-138 101,-254 238,-260l813 -36 73 -3 63 36 1874 1082c119,69 160,222 91,341 -69,119 -222,160 -341,91l-1811 -1046 -741 33z"/>
   <path class="fil2" d="M5808 17073c-119,-68 -160,-221 -92,-340 68,-119 221,-160 340,-92l1861 1074c119,68 160,221 92,340 -68,119 -221,160 -340,92l-1861 -1074z"/>
   <path class="fil2" d="M5901 15060c-27,-135 61,-266 195,-293 135,-27 266,61 293,195l93 460 1440 867c118,71 156,225 85,343 -71,118 -225,156 -343,85l-1533 -923 -93 -56 -22 -109 -115 -569z"/>
   <path class="fil2" d="M6653 12702c-46,-129 21,-272 150,-318 129,-46 272,21 318,150l198 551 597 345c119,68 160,221 92,340 -68,119 -221,160 -340,92l-677 -391 -80 -46 -31 -86 -229 -637z"/>
   <path class="fil2" d="M7967 11694c-119,-69 -160,-222 -91,-341 69,-119 222,-160 341,-91l642 371c119,69 160,222 91,341 -69,119 -222,160 -341,91l-642 -370z"/>
   <path class="fil2" d="M5283 26881c-116,74 -270,41 -345,-75 -74,-116 -41,-270 75,-345l2315 -1484 1616 -1918 43 -51 60 -23 2602 -987 2050 -3959 -133 -427 -38 -123 79 -103 3218 -4172 46 -60 71 -24 2299 -786 155 -53 110 121 3662 4037 35 39 17 49 307 902 2086 1897 3195 2604 65 53 20 79 314 1231 2293 2454c94,101 88,259 -13,353 -101,94 -259,88 -353,-13l-2337 -2501 -44 -47 -16 -61 -309 -1214 -3141 -2560 -11 -9 -2133 -1940 -47 -43 -21 -62 -311 -913 -3518 -3877 -2073 708 -3093 4009 125 401 31 98 -47 91 -2141 4135 -44 85 -90 34 -2631 998 -1600 1898 -26 31 -30 19 -2345 1503z"/>
   <path class="fil2" d="M2623 26821c-104,90 -262,79 -352,-25 -90,-104 -79,-262 25,-352l3987 -3452 34 -29 42 -16 2675 -1015 3745 -2021c121,-65 273,-20 338,102 65,121 20,273 -102,338l-3759 2028 -14 7 -17 6 -2650 1005 -3953 3422z"/>
   <path class="fil2" d="M14642 26414c111,82 134,238 52,349 -82,111 -238,134 -349,52l-1269 -938 -221 -163 184 -204 1434 -1592 4 -5 14 -13 2406 -2182 -92 -2858 -4 -123 94 -78 2704 -2234 142 -117 154 101 1985 1306 77 51 26 86 455 1524 3145 2564 65 53 20 79 314 1231 2293 2454c94,101 88,259 -13,353 -101,94 -259,88 -353,-13l-2337 -2501 -44 -47 -16 -61 -309 -1214 -3141 -2560 -60 -49 -22 -73 -451 -1511 -1754 -1154 -2469 2039 92 2849 4 115 -86 78 -2477 2246 -1246 1384 1048 774z"/>
   <polygon class="fil3" points="23341,26705 15929,26702 17151,21825 17055,18853 18047,18011 20032,19316 20508,20913 22571,22926 24043,24819 "/>
   <path class="fil2" d="M23341 26954l-7412 -2 -320 0 78 -309 1214 -4845 -95 -2936 -4 -120 92 -78 992 -842 142 -120 156 103 1985 1306 77 51 26 86 458 1536 2016 1967 16 15 8 10 1472 1893 85 109 -49 131 -702 1886 -60 162 -173 0zm-7093 -500l6920 2 593 -1593 -1379 -1773 -2048 -1998 -47 -46 -18 -61 -451 -1511 -1752 -1152 -759 644 92 2852 1 36 -8 32 -1145 4568z"/>
   <path class="fil2" d="M11954 22413c-118,71 -271,32 -342,-86 -71,-118 -32,-271 86,-342l3697 -2213 955 -2589 8 -22 10 -18 2735 -4687c70,-119 223,-159 342,-90 119,70 159,223 90,342l-2725 4669 -977 2649 -30 82 -76 46 -3773 2258z"/>
   <path class="fil2" d="M21321 21653c-80,112 -236,138 -348,59 -112,-80 -138,-236 -59,-348l1271 -1779 243 -1215 -859 -2976c-38,-132 39,-270 171,-308 132,-38 270,39 308,171l876 3036 17 60 -11 57 -265 1324 -10 51 -32 44 -1303 1823z"/>
   <path class="fil2" d="M24179 25028c-115,75 -270,42 -345,-73 -75,-115 -42,-270 73,-345l1756 -1142 -69 -2277 -600 -1784c-44,-131 27,-272 157,-315 131,-44 272,27 315,157l612 1818 12 34 1 38 74 2455 4 139 -118 77 -1874 1218z"/>
   <path class="fil2" d="M17343 21667c87,106 72,263 -34,351 -106,87 -263,72 -351,-34l-1551 -1884c-87,-106 -72,-263 34,-351 106,-87 263,-72 351,34l1551 1884z"/>
   <path class="fil2" d="M13235 25428c138,5 245,121 239,259 -5,138 -121,245 -259,239l-1065 -44 -116 -5 -71 -92 -1275 -1643 -1649 -692c-127,-53 -187,-200 -134,-327 53,-127 200,-187 327,-134l1708 716 59 25 41 53 1245 1604 949 40z"/>
   <path class="fil2" d="M14047 17603c-120,68 -272,27 -341,-93 -68,-120 -27,-272 93,-341l3898 -2233c120,-68 272,-27 341,93 68,120 27,272 -93,341l-3898 2233z"/>
   <path class="fil2" d="M16068 15054c-120,68 -272,27 -341,-93 -68,-120 -27,-272 93,-341l2846 -1631c120,-68 272,-27 341,93 68,120 27,272 -93,341l-2846 1631z"/>
   <path class="fil2" d="M13630 19214c-120,68 -272,27 -341,-93 -68,-120 -27,-272 93,-341l2981 -1708c120,-68 272,-27 341,93 68,120 27,272 -93,341l-2981 1708z"/>
   <path class="fil2" d="M12698 21075c-120,68 -272,26 -340,-94 -68,-120 -26,-272 94,-340l3360 -1915c120,-68 272,-26 340,94 68,120 26,272 -94,340l-3360 1915z"/>
   <path class="fil2" d="M31914 27612c99,95 102,253 7,353 -95,99 -253,102 -353,7l-1103 -1066 -2377 -717 -7163 1925c-133,36 -270,-44 -306,-177 -36,-133 44,-270 177,-306l7232 -1944 68 -19 67 20 2503 755 58 18 44 42 1147 1108z"/>
   <path class="fil2" d="M12700 27828c123,61 174,211 113,334 -61,123 -211,174 -334,113l-1860 -918 -1643 -575 -1399 1421c-97,98 -254,99 -353,3 -98,-97 -99,-254 -3,-353l1510 -1533 111 -113 149 52 1807 632 16 5 13 7 1873 925z"/>
  </g>
 </g>
</svg>
