<?xml version="1.0" encoding="UTF-8"?>
<!DOCTYPE svg PUBLIC "-//W3C//DTD SVG 1.1//EN" "http://www.w3.org/Graphics/SVG/1.1/DTD/svg11.dtd">
<!-- Creator: CorelDRAW X5 -->
<svg xmlns="http://www.w3.org/2000/svg" xml:space="preserve" width="34.611mm" height="39.964mm" style="shape-rendering:geometricPrecision; text-rendering:geometricPrecision; image-rendering:optimizeQuality; fill-rule:evenodd; clip-rule:evenodd"
viewBox="0 0 34611 39964"
 xmlns:xlink="http://www.w3.org/1999/xlink">
 <defs>
  <style type="text/css">
   <![CDATA[
    .fil0 {fill:#CC713B}
    .fil1 {fill:#2A2A29;fill-rule:nonzero}
    .fil2 {fill:#FEFEFE;fill-rule:nonzero}
   ]]>
  </style>
 </defs>
 <g id="Слой_x0020_1">
  <metadata id="CorelCorpID_0Corel-Layer"/>
  <g id="_126649872">
   <polygon class="fil0" points="17306,288 8778,5212 250,10135 250,19982 250,29829 8778,34752 17306,39676 25833,34752 34361,29829 34361,19982 34361,10135 25833,5212 "/>
   <path class="fil1" d="M17306 576l-8403 4851 -8403 4851 0 9703 0 9704 8402 4851 1 0 8403 4851 8403 -4851 1 0 8402 -4851 0 -9704 0 -9703 -8403 -4851 -8403 -4851zm-8653 4420l8528 -4924 125 -72 125 72 8528 4924 8528 4924 125 72 0 144 0 9847 0 9847 0 143 -126 73 -8527 4923 0 0 -8528 4924 -125 72 -125 -72 -8528 -4924 0 0 -8527 -4923 -126 -73 0 -143 0 -9847 0 -9847 0 -144 125 -72 8528 -4924z"/>
   <g>
    <path class="fil2" d="M4762 25692c-8,138 -126,242 -264,234 -138,-8 -242,-126 -234,-264 136,-2241 639,-4213 1539,-5623 842,-1318 2026,-2148 3576,-2260 138,-10 257,94 267,231 6,90 -35,171 -103,220 -81,61 -176,122 -286,192 -886,567 -2761,1769 -3167,7338 -10,138 -129,241 -267,231 -138,-10 -241,-129 -231,-267 331,-4535 1630,-6321 2638,-7178 -817,331 -1484,940 -2007,1759 -853,1335 -1330,3225 -1461,5384z"/>
    <path class="fil2" d="M7381 25748c-8,138 -126,242 -264,234 -138,-8 -242,-126 -234,-264 137,-2254 642,-4283 1549,-5738 838,-1344 2015,-2203 3557,-2313 138,-10 257,94 267,231 7,95 -40,181 -115,228 -76,56 -161,112 -257,174 -879,573 -2762,1801 -3155,7489 -9,138 -128,242 -266,232 -138,-9 -242,-128 -232,-266 319,-4620 1616,-6444 2622,-7317 -812,340 -1475,967 -1997,1803 -862,1382 -1343,3329 -1475,5504z"/>
    <path class="fil2" d="M10085 25748c-8,138 -126,242 -264,234 -138,-8 -242,-126 -234,-264 137,-2268 624,-4331 1521,-5809 816,-1346 1968,-2211 3500,-2321 138,-10 257,94 267,231 6,89 -35,170 -101,219 -69,52 -146,104 -233,162 -854,576 -2710,1830 -3108,7590 -9,138 -128,242 -266,232 -138,-9 -242,-128 -232,-266 323,-4680 1606,-6530 2590,-7412 -816,336 -1476,972 -1991,1822 -852,1405 -1316,3388 -1448,5581z"/>
    <path class="fil2" d="M13330 25748c-8,138 -126,242 -264,234 -138,-8 -242,-126 -234,-264 138,-2273 634,-4373 1542,-5882 823,-1368 1979,-2256 3508,-2366 138,-10 257,94 267,231 6,90 -35,171 -103,220 -54,41 -126,90 -206,145 -848,585 -2762,1907 -3163,7723 -9,138 -128,242 -266,232 -138,-9 -242,-128 -232,-266 327,-4731 1650,-6630 2646,-7534 -828,341 -1499,996 -2024,1869 -864,1437 -1338,3458 -1472,5655z"/>
    <path class="fil2" d="M16761 25748c-8,138 -126,242 -264,234 -137,-8 -242,-126 -234,-264 129,-2129 418,-4130 1066,-5635 672,-1560 1725,-2595 3370,-2713 138,-10 257,94 267,231 1,12 1,24 0,36l-15 8350c0,138 -112,249 -249,249 -138,0 -249,-112 -249,-249l14 -8089c-1275,192 -2119,1081 -2679,2382 -623,1445 -902,3391 -1027,5467z"/>
    <path class="fil2" d="M7171 18353c-138,5 -253,-103 -258,-240 -5,-138 103,-253 240,-258l13555 -484c138,-5 253,103 258,240 5,138 -103,253 -240,258l-13555 484z"/>
    <path class="fil2" d="M3604 25692c-8,138 -126,242 -264,234 -138,-8 -242,-126 -234,-264 114,-1873 536,-3617 1230,-4998 668,-1329 1589,-2327 2733,-2793 128,-52 273,10 325,138 52,128 -10,273 -138,325 -1026,418 -1861,1331 -2475,2553 -664,1320 -1068,2996 -1178,4804z"/>
    <path class="fil2" d="M7542 18071c-8,138 -126,242 -264,234 -138,-8 -242,-126 -234,-264 41,-668 210,-1308 479,-1847 271,-542 645,-985 1093,-1259 468,-285 774,-11 963,702 138,523 218,1340 261,2370 5,138 -102,253 -239,259 -138,5 -253,-102 -259,-239 -42,-994 -117,-1775 -245,-2262 -79,-297 -152,-445 -221,-404 -367,224 -678,596 -907,1055 -239,479 -390,1052 -427,1654z"/>
    <path class="fil2" d="M9260 15130c-8,138 -126,242 -264,234 -138,-8 -242,-126 -234,-264 8,-130 7,-274 6,-421 -5,-663 -11,-1402 628,-1499l7430 -1118c39,-6 77,-2 112,9l1391 343c134,33 216,168 183,302 -10,42 -30,78 -57,108l-27 35 599 -227c49,-18 100,-21 148,-9l1033 255c79,20 140,75 170,145l0 0 656 1537c14,33 21,68 20,102l54 1537 896 98c82,9 151,57 189,123l1020 1752 5 10 1656 2818 3782 2385c75,47 116,127 116,209l105 3055c4,138 -104,253 -241,257 -138,4 -253,-104 -257,-241l-100 -2928 -3721 -2347 0 0c-33,-21 -61,-49 -82,-85l-1687 -2870 -8 -13 -956 -1642 -985 -108 0 0c-122,-13 -219,-114 -223,-240l-60 -1718 -589 -1381 -837 -206 -759 288 -169 952c-16,105 -99,193 -210,209 -136,20 -264,-74 -284,-210l-161 -1069 1 0c-10,-66 6,-135 51,-191l236 -298 -981 -242 -7382 1110c-212,32 -208,544 -204,1002 1,162 2,319 -6,453z"/>
    <path class="fil2" d="M16883 12560c-138,11 -258,-91 -270,-229 -11,-138 91,-258 229,-270l4509 -377c110,-9 208,54 250,150l1281 2521c24,48 31,100 24,149l-74 757 1860 1341c53,38 86,93 99,152l0 0 458 2231 2929 2571 2681 1647c45,28 78,67 98,112l1661 3227c63,122 15,273 -107,336 -122,63 -273,15 -336,-107l-1635 -3178 -2637 -1620 0 -1c-12,-7 -23,-16 -34,-25l-3011 -2643c-40,-35 -69,-82 -80,-138l-456 -2218 -1892 -1364c-73,-50 -117,-136 -108,-230l82 -839 -1179 -2320 -4342 363z"/>
    <path class="fil2" d="M31647 25207c119,-69 272,-28 341,91 69,119 28,272 -91,341l-2796 1614c-119,69 -272,28 -341,-91 -69,-119 -28,-272 91,-341l2796 -1614zm-471 -882c119,-68 271,-27 340,92 68,119 27,271 -92,340l-2695 1556c-119,68 -271,27 -340,-92 -68,-119 -27,-271 92,-340l2695 -1556zm-458 -890c119,-68 271,-27 340,92 68,119 27,271 -92,340l-2254 1301c-119,68 -271,27 -340,-92 -68,-119 -27,-271 92,-340l2254 -1301zm-854 -663c119,-69 272,-28 341,91 69,119 28,272 -91,341l-1425 823c-119,69 -272,28 -341,-91 -69,-119 -28,-272 91,-341l1425 -823zm-941 -611c119,-68 271,-27 340,92 68,119 27,271 -92,340l-1256 725c-119,68 -271,27 -340,-92 -68,-119 -27,-271 92,-340l1256 -725zm-956 -603c119,-68 271,-27 340,92 68,119 27,271 -92,340l-1231 711c-119,68 -271,27 -340,-92 -68,-119 -27,-271 92,-340l1231 -711zm-861 -658c119,-68 271,-27 340,92 68,119 27,271 -92,340l-1363 787c-119,68 -271,27 -340,-92 -68,-119 -27,-271 92,-340l1363 -787zm-6566 3790c119,-69 272,-28 341,91 69,119 28,272 -91,341l-1838 1061c-119,69 -272,28 -341,-91 -69,-119 -28,-272 91,-341l1838 -1061zm5821 -4515c119,-68 271,-27 340,92 68,119 27,271 -92,340l-1574 909c-119,68 -271,27 -340,-92 -68,-119 -27,-271 92,-340l1574 -909zm-5891 3401c119,-69 272,-28 341,91 69,119 28,272 -91,341l-3865 2231c-119,69 -272,28 -341,-91 -69,-119 -28,-272 91,-341l3865 -2231zm5053 -4072c119,-69 272,-28 341,91 69,119 28,272 -91,341l-1335 771c-119,69 -272,28 -341,-91 -69,-119 -28,-272 91,-341l1335 -771zm-5027 2888c119,-69 272,-28 341,91 69,119 28,272 -91,341l-4028 2339c-119,69 -272,28 -341,-91 -69,-119 -28,-272 91,-341l4028 -2339zm4371 -3665c120,-68 272,-26 340,94 68,120 26,272 -94,340l-1106 626c-120,68 -272,26 -340,-94 -68,-120 -26,-272 94,-340l1106 -626zm-4363 2487c119,-69 272,-28 341,91 69,119 28,272 -91,341l-3875 2237c-119,69 -272,28 -341,-91 -69,-119 -28,-272 91,-341l3875 -2237zm-6177 3599c119,-68 271,-27 340,92 68,119 27,271 -92,340l-1336 771c-119,68 -271,27 -340,-92 -68,-119 -27,-271 92,-340l1336 -771zm10321 -7113c119,-68 271,-27 340,92 68,119 27,271 -92,340l-1484 857c-119,68 -271,27 -340,-92 -68,-119 -27,-271 92,-340l1484 -857zm-4086 2358c119,-69 272,-28 341,91 69,119 28,272 -91,341l-3773 2178c-119,69 -272,28 -341,-91 -69,-119 -28,-272 91,-341l3773 -2178zm-6084 3513c119,-68 271,-27 340,92 68,119 27,271 -92,340l-1376 794c-119,68 -271,27 -340,-92 -68,-119 -27,-271 92,-340l1376 -794zm9927 -6886c119,-68 271,-27 340,92 68,119 27,271 -92,340l-1736 1002c-119,68 -271,27 -340,-92 -68,-119 -27,-271 92,-340l1736 -1002zm-3877 2278c119,-69 272,-28 341,91 69,119 28,272 -91,341l-3287 1898c-119,69 -272,28 -341,-91 -69,-119 -28,-272 91,-341l3287 -1898zm-5777 3335c121,-66 273,-22 339,99 66,121 22,273 -99,339l-1419 780c-121,66 -273,22 -339,-99 -66,-121 -22,-273 99,-339l1419 -780zm-3632 2057c119,-69 272,-28 341,91 69,119 28,272 -91,341l-1321 763c-119,69 -272,28 -341,-91 -69,-119 -28,-272 91,-341l1321 -763zm12487 -8363c119,-68 271,-27 340,92 68,119 27,271 -92,340l-1376 795c-119,68 -271,27 -340,-92 -68,-119 -27,-271 92,-340l1376 -795zm-3017 1741c119,-70 272,-31 342,88 70,119 31,272 -88,342l-2806 1660c-119,70 -272,31 -342,-88 -70,-119 -31,-272 88,-342l2806 -1660zm-5444 3143c119,-69 272,-28 341,91 69,119 28,272 -91,341l-1487 859c-119,69 -272,28 -341,-91 -69,-119 -28,-272 91,-341l1487 -859zm-3803 2196c119,-69 272,-28 341,91 69,119 28,272 -91,341l-1457 841c-119,69 -272,28 -341,-91 -69,-119 -28,-272 91,-341l1457 -841zm-3002 1734c119,-68 271,-27 340,92 68,119 27,271 -92,340l-1281 740c-119,68 -271,27 -340,-92 -68,-119 -27,-271 92,-340l1281 -740zm14391 -9463c119,-68 271,-27 340,92 68,119 27,271 -92,340l-1537 887c-119,68 -271,27 -340,-92 -68,-119 -27,-271 92,-340l1537 -887zm-6905 3986c119,-69 272,-28 341,91 69,119 28,272 -91,341l-1559 900c-119,69 -272,28 -341,-91 -69,-119 -28,-272 91,-341l1559 -900zm-4216 2434c119,-69 272,-28 341,91 69,119 28,272 -91,341l-1454 840c-119,69 -272,28 -341,-91 -69,-119 -28,-272 91,-341l1454 -840zm-3084 1781c119,-68 271,-27 340,92 68,119 27,271 -92,340l-1433 827c-119,68 -271,27 -340,-92 -68,-119 -27,-271 92,-340l1433 -827zm-2832 1635c119,-68 271,-27 340,92 68,119 27,271 -92,340l-898 518c-119,68 -271,27 -340,-92 -68,-119 -27,-271 92,-340l898 -518zm16803 -10857c119,-69 272,-28 341,91 69,119 28,272 -91,341l-1763 1018c-119,69 -272,28 -341,-91 -69,-119 -28,-272 91,-341l1763 -1018zm-10438 6026c119,-69 272,-28 341,91 69,119 28,272 -91,341l-1542 890c-119,69 -272,28 -341,-91 -69,-119 -28,-272 91,-341l1542 -890zm-3276 1892c119,-68 271,-27 340,92 68,119 27,271 -92,340l-1476 852c-119,68 -271,27 -340,-92 -68,-119 -27,-271 92,-340l1476 -852zm-2924 1688c119,-69 272,-28 341,91 69,119 28,272 -91,341l-1445 834c-119,69 -272,28 -341,-91 -69,-119 -28,-272 91,-341l1445 -834zm16198 -10507c119,-69 272,-28 341,91 69,119 28,272 -91,341l-1442 833c-119,69 -272,28 -341,-91 -69,-119 -28,-272 91,-341l1442 -833zm-8605 4968c119,-69 272,-28 341,91 69,119 28,272 -91,341l-1912 1104c-119,69 -272,28 -341,-91 -69,-119 -28,-272 91,-341l1912 -1104zm-4248 2453c119,-69 272,-28 341,91 69,119 28,272 -91,341l-1393 804c-119,69 -272,28 -341,-91 -69,-119 -28,-272 91,-341l1393 -804zm-3126 1805c119,-69 272,-28 341,91 69,119 28,272 -91,341l-1383 799c-119,69 -272,28 -341,-91 -69,-119 -28,-272 91,-341l1383 -799zm15553 -10134c119,-68 271,-27 340,92 68,119 27,271 -92,340l-1318 761c-119,68 -271,27 -340,-92 -68,-119 -27,-271 92,-340l1318 -761zm-11618 6707c119,-69 272,-28 341,91 69,119 28,272 -91,341l-1726 997c-119,69 -272,28 -341,-91 -69,-119 -28,-272 91,-341l1726 -997zm-3506 2025c119,-68 271,-27 340,92 68,119 27,271 -92,340l-1575 909c-119,68 -271,27 -340,-92 -68,-119 -27,-271 92,-340l1575 -909zm14441 -9493c119,-69 272,-28 341,91 69,119 28,272 -91,341l-1499 865c-119,69 -272,28 -341,-91 -69,-119 -28,-272 91,-341l1499 -865zm-13728 7926c119,-69 272,-28 341,91 69,119 28,272 -91,341l-1722 994c-119,69 -272,28 -341,-91 -69,-119 -28,-272 91,-341l1722 -994z"/>
    <path class="fil2" d="M4490 27500c-134,33 -269,-48 -303,-182 -33,-134 48,-269 182,-303l4038 -1010c35,-9 70,-10 104,-4l0 0 2799 492c57,10 105,38 141,77l553 507 2190 -683c65,-20 132,-13 188,16l2053 970 3818 -799 2924 -1154c44,-17 90,-21 133,-14l0 0 3592 612c136,23 227,152 204,288 -23,136 -152,227 -288,204l-3524 -601 -2878 1135 0 0c-13,5 -26,9 -40,12l-3917 819 -2209 -985 -2233 696 0 -1c-82,25 -174,8 -242,-54l-620 -568 -2677 -471 -3986 997z"/>
   </g>
  </g>
 </g>
</svg>
