<?xml version="1.0" encoding="UTF-8" standalone="no"?>
<svg
   xmlns:dc="http://purl.org/dc/elements/1.1/"
   xmlns:cc="http://creativecommons.org/ns#"
   xmlns:rdf="http://www.w3.org/1999/02/22-rdf-syntax-ns#"
   xmlns:svg="http://www.w3.org/2000/svg"
   xmlns="http://www.w3.org/2000/svg"
   id="svg8"
   version="1.1"
   viewBox="0 0 135.46666 135.46666"
   height="135.46666mm"
   width="135.46666mm">
  <defs
     id="defs2" />
  <metadata
     id="metadata5">
    <rdf:RDF>
      <cc:Work
         rdf:about="">
        <dc:format>image/svg+xml</dc:format>
        <dc:type
           rdf:resource="http://purl.org/dc/dcmitype/StillImage" />
        <dc:title></dc:title>
      </cc:Work>
    </rdf:RDF>
  </metadata>
  <g
     transform="translate(354.99524,-65.225003)"
     id="layer1">
    <g
       transform="translate(5.4428477,-93.889273)"
       id="layer1-5">
      <g
         transform="translate(76.653572,7.2571361)"
         id="layer1-2">
        <g
           transform="matrix(0.26458333,0,0,0.26458333,-437.09166,151.85714)"
           id="g993">
          <path
             style="fill:#8a2be2;fill-opacity:1"
             d="M 0,0 H 512 V 512 H 0 Z"
             id="path976" />
          <g
             transform="matrix(0.41666666,0,0,0.41666666,149.33334,149.33333)"
             class=""
             id="g980">
            <path
               style="fill:#ffffff;fill-opacity:1"
               d="m 153.08929,203.20001 c -0.97,-0.005 -2.006,0.112 -3.063,0.313 v -0.032 c -18.297,3.436 -45.264,34.743 -33.375,46.626 L 233.156,365.69058 c 44.46429,-42.45957 44.46429,-42.45957 44.46429,-42.45957 l 153.16008,-137.3697 c 14.63,-14.625 -29.275,-58.50001 -43.906,-43.87501 l -153.16008,137.37071 -73.156,-73.125 c -2.06,-2.046 -4.56,-3.015 -7.47,-3.03 z"
               id="path978" />
          </g>
        </g>
      </g>
    </g>
  </g>
</svg>
