<?xml version="1.0" encoding="UTF-8" standalone="no"?>
<!-- Created with Inkscape (http://www.inkscape.org/) -->

<svg
   xmlns:dc="http://purl.org/dc/elements/1.1/"
   xmlns:cc="http://creativecommons.org/ns#"
   xmlns:rdf="http://www.w3.org/1999/02/22-rdf-syntax-ns#"
   xmlns:svg="http://www.w3.org/2000/svg"
   xmlns="http://www.w3.org/2000/svg"
   xmlns:sodipodi="http://sodipodi.sourceforge.net/DTD/sodipodi-0.dtd"
   xmlns:inkscape="http://www.inkscape.org/namespaces/inkscape"
   version="1.1"
   id="svg2"
   xml:space="preserve"
   width="80"
   height="80"
   viewBox="0 0 79.999997 80"
   sodipodi:docname="spinner-white.svg"
   inkscape:version="0.92.3 (2405546, 2018-03-11)"><metadata
     id="metadata8"><rdf:RDF><cc:Work
         rdf:about=""><dc:format>image/svg+xml</dc:format><dc:type
           rdf:resource="http://purl.org/dc/dcmitype/StillImage" /><dc:title></dc:title></cc:Work></rdf:RDF></metadata><defs
     id="defs6" /><sodipodi:namedview
     pagecolor="#ffffff"
     bordercolor="#666666"
     borderopacity="1"
     objecttolerance="10"
     gridtolerance="10"
     guidetolerance="10"
     inkscape:pageopacity="0"
     inkscape:pageshadow="2"
     inkscape:window-width="1920"
     inkscape:window-height="1019"
     id="namedview4"
     showgrid="false"
     fit-margin-top="0"
     fit-margin-left="0"
     fit-margin-right="0"
     fit-margin-bottom="0"
     inkscape:zoom="4.7579047"
     inkscape:cx="48.341453"
     inkscape:cy="17.604647"
     inkscape:window-x="0"
     inkscape:window-y="0"
     inkscape:window-maximized="1"
     inkscape:current-layer="g10" /><g
     id="g10"
     inkscape:groupmode="layer"
     inkscape:label="steampunk"
     transform="matrix(0,1.3333333,1.3333333,0,-331.81974,-300.78972)"><g
       id="g170"
       transform="matrix(0.99046976,0.26737098,-0.26416143,0.99320192,268.98085,253.18136)"
       style="fill:#ffffff"><path
         d="M 0,0 -1.809,4.33 C -2.149,4.263 -2.485,4.202 -2.828,4.153 -2.972,4.128 -3.123,4.109 -3.269,4.09 L -3.484,4.062 C -3.788,4.029 -4.092,4.003 -4.391,3.976 L -5.174,-0.722 C -5.22,-1.006 -5.37,-1.262 -5.59,-1.444 -5.828,-1.664 -6.156,-1.788 -6.484,-1.765 l -0.596,0.036 -1.526,0.089 c -0.62,0.032 -1.15,0.568 -1.176,1.186 l -0.223,4.652 c -0.64,0.101 -1.272,0.228 -1.901,0.384 -0.22,0.055 -0.446,0.114 -0.667,0.175 l -0.155,-0.269 -2.164,-3.851 c -0.068,-0.121 -0.155,-0.22 -0.25,-0.31 -0.357,-0.311 -0.894,-0.416 -1.339,-0.224 l -0.018,0.009 -1.936,0.836 c -0.569,0.246 -0.882,0.928 -0.697,1.52 l 1.378,4.436 c -0.65,0.367 -1.287,0.764 -1.898,1.195 -0.109,0.069 -0.214,0.144 -0.318,0.22 L -20.471,7.888 -23.532,5.271 -23.538,5.27 -23.564,5.244 c -0.358,-0.307 -0.881,-0.374 -1.314,-0.193 -0.131,0.055 -0.253,0.133 -0.36,0.233 l -1.548,1.458 c -0.451,0.428 -0.511,1.177 -0.137,1.669 l 2.817,3.698 c -0.562,0.65 -1.094,1.333 -1.582,2.051 -0.007,0.012 -0.015,0.022 -0.022,0.033 l -0.875,-0.33 -2.868,-1.078 -0.012,-0.002 -0.672,-0.251 c -0.293,-0.109 -0.615,-0.091 -0.903,0.026 -0.279,0.107 -0.518,0.312 -0.654,0.585 l -0.953,1.902 c -0.278,0.55 -0.082,1.279 0.438,1.612 l 3.92,2.519 c -0.299,0.809 -0.56,1.645 -0.776,2.505 l -4.751,-0.053 c -0.62,-0.008 -1.188,0.494 -1.259,1.106 l -0.249,2.116 c -0.067,0.619 0.37,1.231 0.974,1.367 l 0.506,0.112 4.072,0.918 c 10e-4,0.036 -0.003,0.071 -0.002,0.106 -0.007,0.846 0.035,1.673 0.119,2.494 l -4.511,1.589 c -0.583,0.209 -0.946,0.873 -0.804,1.471 l 0.493,2.069 c 0.09,0.396 0.382,0.711 0.747,0.865 0.179,0.076 0.382,0.114 0.586,0.092 0.017,0.003 0.029,0.004 0.047,10e-4 l 4.686,-0.602 c 0.053,0.143 0.101,0.279 0.16,0.417 0.253,0.666 0.535,1.317 0.844,1.954 l -3.736,3.072 c -0.477,0.395 -0.589,1.138 -0.248,1.655 l 1.17,1.777 c 0.118,0.181 0.289,0.327 0.479,0.416 0.204,0.109 0.442,0.152 0.675,0.134 0.16,-0.009 0.319,-0.048 0.465,-0.124 l 3.53,-1.82 0.722,-0.375 c 0.159,0.192 0.318,0.378 0.479,0.558 0.403,0.454 0.821,0.892 1.252,1.315 -0.001,0.005 -0.001,0.005 -0.001,0.005 l -2.478,4.198 c -0.317,0.533 -0.169,1.274 0.328,1.639 l 1.708,1.272 c 0.053,0.037 0.108,0.073 0.164,0.098 0.205,0.109 0.442,0.157 0.67,0.133 0.31,-0.019 0.616,-0.146 0.83,-0.384 l 2.933,-3.175 0.343,-0.371 c 0.264,0.158 0.535,0.305 0.812,0.453 0.471,0.25 0.95,0.483 1.436,0.705 -0.007,0.011 -0.009,0.028 -0.011,0.046 l -0.898,4.79 c -0.113,0.607 0.278,1.255 0.876,1.432 l 0.712,0.215 1.061,0.314 0.262,0.081 c 0.598,0.177 1.279,-0.145 1.517,-0.717 l 1.826,-4.37 0.052,-0.124 c 0.404,0.076 0.816,0.14 1.235,0.194 0.419,0.054 0.834,0.095 1.256,0.125 -0.004,0.029 0.004,0.06 0.007,0.09 l 0.023,0.139 0.775,4.667 c 0.073,0.454 0.415,0.828 0.84,0.977 0.147,0.055 0.31,0.076 0.47,0.067 h 0.048 l 2.074,-0.119 c 0.62,-0.039 1.15,-0.575 1.177,-1.193 l 0.232,-4.87 0.003,-0.017 c 0.508,-0.089 1.012,-0.19 1.507,-0.31 0.311,-0.072 0.623,-0.151 0.929,-0.236 0.014,0.031 0.028,0.063 0.048,0.095 l 0.221,0.395 2.17,3.851 c 0.12,0.217 0.305,0.383 0.516,0.493 0.213,0.098 0.449,0.146 0.682,0.128 0.131,-10e-4 0.265,-0.03 0.39,-0.086 L 6.08,54.097 C 6.65,53.85 6.962,53.169 6.778,52.577 L 5.332,47.924 C 5.328,47.912 5.323,47.9 5.319,47.887 c 0.517,-0.295 1.025,-0.608 1.517,-0.942 0.2,-0.128 0.389,-0.263 0.584,-0.398 0.025,0.026 0.056,0.06 0.089,0.088 l 0.528,0.452 3.172,2.72 c 0.075,0.063 0.151,0.114 0.235,0.154 0.206,0.103 0.442,0.152 0.67,0.127 0.28,-0.017 0.561,-0.129 0.77,-0.327 l 1.547,-1.459 c 0.451,-0.427 0.512,-1.177 0.137,-1.669 L 11.615,42.758 C 11.61,42.746 11.6,42.739 11.589,42.725 c 0.465,-0.538 0.904,-1.097 1.316,-1.677 0.071,-0.098 0.143,-0.195 0.209,-0.293 0.033,0.016 0.067,0.032 0.101,0.042 l 0.824,0.307 3.58,1.346 0.163,0.062 c 0.085,0.035 0.177,0.059 0.269,0.07 0.513,0.066 1.051,-0.208 1.288,-0.675 l 0.954,-1.908 c 0.277,-0.55 0.081,-1.279 -0.439,-1.612 L 15.755,35.75 c -0.006,-10e-4 -0.012,-0.002 -0.018,-0.008 0.295,-0.773 0.551,-1.569 0.761,-2.382 0.029,0.004 0.059,0.007 0.094,0.006 l 4.87,0.049 c 0.62,0.009 1.187,-0.493 1.26,-1.105 l 0.247,-2.116 c 0.052,-0.455 -0.169,-0.903 -0.532,-1.162 -0.129,-0.1 -0.275,-0.166 -0.436,-0.204 L 18.2,27.968 17.256,27.759 c 0.014,-0.844 -0.02,-1.683 -0.098,-2.516 0.019,-0.003 0.038,-0.007 0.056,-0.016 l 4.597,-1.618 c 0.584,-0.21 0.946,-0.867 0.804,-1.472 l -0.492,-2.068 c -0.057,-0.25 -0.2,-0.47 -0.393,-0.636 -0.265,-0.235 -0.622,-0.364 -0.982,-0.321 l -0.451,0.06 -3.537,0.453 -0.794,0.099 c -0.017,-0.055 -0.039,-0.112 -0.061,-0.167 -0.26,-0.744 -0.558,-1.468 -0.899,-2.181 0.006,-0.005 0.008,-0.011 0.013,-0.01 l 3.764,-3.098 c 0.482,-0.388 0.595,-1.137 0.253,-1.654 l -1.169,-1.777 c -0.06,-0.09 -0.126,-0.17 -0.207,-0.233 -0.361,-0.324 -0.904,-0.424 -1.35,-0.221 -0.02,0.01 -0.044,0.018 -0.063,0.028 l -3.77,1.944 -0.475,0.246 C 11.89,12.462 11.772,12.317 11.653,12.184 11.222,11.667 10.759,11.176 10.281,10.701 L 12.75,6.531 C 13.061,5.997 12.912,5.262 12.415,4.891 L 10.827,3.711 10.708,3.619 C 10.358,3.355 9.871,3.317 9.472,3.478 9.31,3.54 9.162,3.64 9.038,3.772 L 5.967,7.101 5.835,7.244 C 5.594,7.101 5.351,6.963 5.102,6.83 4.593,6.546 4.077,6.285 3.546,6.04 L 4.428,1.324 C 4.524,0.809 4.256,0.266 3.804,0.008 3.728,-0.044 3.644,-0.079 3.553,-0.108 L 1.517,-0.711 C 1.25,-0.793 0.962,-0.771 0.707,-0.667 0.395,-0.547 0.128,-0.31 0,0 Z m -0.473,11.69 c 1.3,0.475 2.521,1.11 3.643,1.87 l -6.075,7.973 -0.07,0.091 C -3.202,21.495 -3.436,21.383 -3.677,21.286 -3.717,21.27 -3.751,21.253 -3.79,21.242 -4.302,21.029 -4.84,20.889 -5.41,20.816 -5.807,20.765 -6.195,20.75 -6.576,20.773 -6.79,20.775 -7,20.796 -7.205,20.829 c -0.252,0.032 -0.508,0.088 -0.753,0.152 l -0.09,-0.219 -3.825,-9.134 c 1.798,-0.64 3.717,-0.98 5.703,-0.963 0.013,-0.004 0.018,-0.004 0.03,-0.002 0.668,0.003 1.337,0.047 2.013,0.134 1.274,0.163 2.495,0.467 3.654,0.893 z m -7.91,32.348 c -0.943,-0.12 -1.865,-0.315 -2.748,-0.588 -1.663,-0.503 -3.206,-1.251 -4.588,-2.197 l 6.139,-8.066 c 0.275,0.16 0.565,0.297 0.869,0.419 0.006,10e-4 0.006,10e-4 0.006,10e-4 0.248,0.096 0.504,0.182 0.767,0.246 0.269,0.076 0.552,0.13 0.837,0.166 l 0.105,0.014 c 0.432,0.049 0.851,0.055 1.269,0.02 0.341,-0.028 0.673,-0.079 1.003,-0.156 l 0.185,0.45 3.734,8.916 c -2.037,0.703 -4.244,1.025 -6.515,0.876 -0.352,-0.021 -0.709,-0.055 -1.063,-0.101 z m -8.828,-3.935 c -0.223,-0.194 -0.441,-0.393 -0.652,-0.592 -3.461,-3.33 -5.454,-8.095 -5.116,-13.187 0.004,-0.035 0.003,-0.065 0.007,-0.099 l 10.059,1.288 c 0.004,0.064 10e-4,0.13 0.011,0.195 0.067,1.648 0.747,3.179 1.843,4.319 l -5.903,7.753 z m -5.523,-15.742 c 0.929,-5.041 4.064,-9.183 8.26,-11.552 0.286,-0.159 0.572,-0.311 0.869,-0.457 l 0.281,0.67 3.639,8.691 c -1.436,0.863 -2.531,2.249 -2.989,3.936 z m 19.866,3.49 c -0.24,1.874 -1.953,3.2 -3.822,2.96 -0.058,-0.007 -0.116,-0.015 -0.174,-0.028 -0.017,-0.002 -0.023,-0.003 -0.04,-0.011 L -6.909,30.771 C -8.666,30.44 -9.88,28.782 -9.65,26.983 c 0.202,-1.578 1.462,-2.771 2.976,-2.951 0.277,-0.041 0.561,-0.04 0.853,-0.003 0.395,0.051 0.77,0.17 1.109,0.344 1.257,0.634 2.032,2.012 1.844,3.478 z M 0.93,42.556 0.722,42.062 -2.979,33.21 c 1.441,-0.816 2.566,-2.157 3.073,-3.808 0.01,-0.035 0.019,-0.063 0.03,-0.097 l 10.071,1.29 C 10.181,30.658 10.172,30.728 10.153,30.79 9.122,35.83 5.888,39.931 1.602,42.21 1.379,42.335 1.157,42.449 0.93,42.556 Z M 0.397,27.447 c 0.01,-1.786 -0.7,-3.451 -1.887,-4.674 l 5.72,-7.516 0.426,-0.555 c 0.24,0.209 0.473,0.421 0.705,0.641 3.497,3.377 5.498,8.224 5.084,13.39 L 0.397,27.447"
         style="fill:#ffffff;fill-opacity:1;fill-rule:nonzero;stroke:none"
         id="path172"
         inkscape:connector-curvature="0" /></g></g></svg>