<?xml version="1.0" encoding="UTF-8" standalone="no"?>
<svg
   xmlns:dc="http://purl.org/dc/elements/1.1/"
   xmlns:cc="http://creativecommons.org/ns#"
   xmlns:rdf="http://www.w3.org/1999/02/22-rdf-syntax-ns#"
   xmlns:svg="http://www.w3.org/2000/svg"
   xmlns="http://www.w3.org/2000/svg"
   id="svg8"
   version="1.1"
   viewBox="0 0 135.46666 135.46666"
   height="135.46666mm"
   width="135.46666mm">
  <defs
     id="defs2" />
  <metadata
     id="metadata5">
    <rdf:RDF>
      <cc:Work
         rdf:about="">
        <dc:format>image/svg+xml</dc:format>
        <dc:type
           rdf:resource="http://purl.org/dc/dcmitype/StillImage" />
        <dc:title></dc:title>
      </cc:Work>
    </rdf:RDF>
  </metadata>
  <g
     transform="translate(305.85833,-129.48095)"
     id="layer1">
    <g
       transform="matrix(0.26458333,0,0,0.26458333,-305.85833,129.48095)"
       id="g832">
      <path
         style="fill:#8a2be2;fill-opacity:1"
         d="M 0,0 H 512 V 512 H 0 Z"
         id="path815" />
      <g
         transform="matrix(0.52646556,0,0,0.52646556,121.23192,121.22458)"
         class=""
         id="g819">
        <path
           style="fill:#ffffff;fill-opacity:1"
           d="m 179.594,20.688 v 41.406 h 143.25 V 20.687 H 179.594 Z M 256.03,82 C 143.04,82 51.25,173.727 51.25,286.656 c 0,112.93 91.788,204.656 204.78,204.656 112.994,0 204.75,-91.728 204.75,-204.656 C 460.78,173.73 369.025,82 256.03,82 Z m 0,35.625 c 93.42,0 169.126,75.665 169.126,169.03 0,93.368 -75.706,169.564 -169.125,169.564 -93.417,0 -169.155,-76.197 -169.155,-169.564 0,-93.366 75.736,-169.03 169.156,-169.03 z m 76.19,20.28 -72.47,107.5 c 10.67,1.036 20.516,6.045 27.625,13.814 l 44.844,-121.314 z m -85.533,1.064 v 45.31 c 3.077,-0.275 6.196,-0.405 9.344,-0.405 3.155,0 6.263,0.13 9.345,0.406 v -45.31 h -18.688 z m -88.53,36.655 -13.22,13.22 32.063,32.03 c 3.992,-4.784 8.432,-9.198 13.22,-13.188 l -32.064,-32.062 z m 195.75,0 -32.063,32.063 c 4.786,3.99 9.196,8.403 13.187,13.187 l 32.064,-32.03 z m -98.344,81.22 c -2.08,0.01 -4.195,0.243 -6.313,0.686 -16.948,3.544 -27.7,20.005 -24.156,36.94 3.544,16.932 20.02,27.698 36.97,24.155 16.946,-3.543 27.7,-20.004 24.155,-36.938 -3.102,-14.816 -16.104,-24.925 -30.658,-24.843 z M 108.28,277.31 V 296 h 45.314 c -0.278,-3.08 -0.406,-6.192 -0.406,-9.344 0,-3.146 0.13,-6.27 0.406,-9.344 H 108.28 Z m 250.157,0 c 0.277,3.075 0.438,6.197 0.438,9.344 0,3.153 -0.16,6.264 -0.438,9.344 h 45.344 V 277.31 H 358.44 Z m -60.062,6.72 c 0.993,10.522 -1.968,20.742 -7.813,28.937 l 124,19.092 -116.187,-48.03 z m -121.405,68.375 -32.032,32.03 13.218,13.22 32.063,-32.03 c -4.798,-4 -9.253,-8.424 -13.25,-13.22 z m 158.093,0 c -4,4.796 -8.423,9.22 -13.22,13.22 l 32.063,32.03 13.188,-13.22 -32.03,-32.03 z M 246.688,389 v 45.313 h 18.687 V 389 c -3.082,0.278 -6.19,0.438 -9.344,0.438 -3.147,0 -6.266,-0.16 -9.342,-0.438 z"
           id="path817" />
      </g>
    </g>
  </g>
</svg>
